G04 EAGLE Gerber RS-274X export*
G75*
%MOMM*%
%FSLAX34Y34*%
%LPD*%
%INTop Silkscreen*%
%IPPOS*%
%AMOC8*
5,1,8,0,0,1.08239X$1,22.5*%
G01*
%ADD10C,0.127000*%
%ADD11C,0.152400*%
%ADD12C,0.025400*%
%ADD13C,0.203200*%
%ADD14C,0.254000*%


D10*
X218516Y140123D02*
X219786Y140123D01*
X219786Y135890D01*
X217246Y135890D01*
X217165Y135892D01*
X217085Y135898D01*
X217005Y135907D01*
X216926Y135921D01*
X216847Y135938D01*
X216769Y135959D01*
X216692Y135983D01*
X216617Y136011D01*
X216543Y136043D01*
X216470Y136078D01*
X216400Y136117D01*
X216331Y136159D01*
X216264Y136204D01*
X216199Y136252D01*
X216137Y136304D01*
X216078Y136358D01*
X216021Y136415D01*
X215967Y136474D01*
X215915Y136536D01*
X215867Y136601D01*
X215822Y136668D01*
X215780Y136737D01*
X215741Y136807D01*
X215706Y136880D01*
X215674Y136954D01*
X215646Y137029D01*
X215622Y137106D01*
X215601Y137184D01*
X215584Y137263D01*
X215570Y137342D01*
X215561Y137422D01*
X215555Y137502D01*
X215553Y137583D01*
X215553Y141817D01*
X215555Y141898D01*
X215561Y141978D01*
X215570Y142058D01*
X215584Y142137D01*
X215601Y142216D01*
X215622Y142294D01*
X215646Y142371D01*
X215674Y142446D01*
X215706Y142520D01*
X215741Y142593D01*
X215780Y142663D01*
X215822Y142732D01*
X215867Y142799D01*
X215915Y142864D01*
X215967Y142926D01*
X216021Y142985D01*
X216078Y143042D01*
X216137Y143096D01*
X216199Y143148D01*
X216264Y143196D01*
X216331Y143241D01*
X216399Y143283D01*
X216470Y143322D01*
X216543Y143357D01*
X216617Y143389D01*
X216692Y143417D01*
X216769Y143441D01*
X216847Y143462D01*
X216926Y143479D01*
X217005Y143493D01*
X217085Y143502D01*
X217165Y143508D01*
X217246Y143510D01*
X219786Y143510D01*
X224087Y143510D02*
X224087Y135890D01*
X228321Y135890D02*
X224087Y143510D01*
X228321Y143510D02*
X228321Y135890D01*
X232622Y135890D02*
X232622Y143510D01*
X234738Y143510D01*
X234828Y143508D01*
X234918Y143502D01*
X235007Y143493D01*
X235096Y143480D01*
X235184Y143462D01*
X235271Y143442D01*
X235358Y143417D01*
X235443Y143389D01*
X235527Y143357D01*
X235610Y143322D01*
X235691Y143283D01*
X235770Y143241D01*
X235848Y143196D01*
X235923Y143147D01*
X235997Y143095D01*
X236068Y143040D01*
X236137Y142982D01*
X236203Y142921D01*
X236266Y142858D01*
X236327Y142792D01*
X236385Y142723D01*
X236440Y142652D01*
X236492Y142578D01*
X236541Y142503D01*
X236586Y142425D01*
X236628Y142346D01*
X236667Y142265D01*
X236702Y142182D01*
X236734Y142098D01*
X236762Y142013D01*
X236787Y141926D01*
X236807Y141839D01*
X236825Y141751D01*
X236838Y141662D01*
X236847Y141573D01*
X236853Y141483D01*
X236855Y141393D01*
X236855Y138007D01*
X236853Y137917D01*
X236847Y137827D01*
X236838Y137738D01*
X236825Y137649D01*
X236807Y137561D01*
X236787Y137474D01*
X236762Y137387D01*
X236734Y137302D01*
X236702Y137218D01*
X236667Y137135D01*
X236628Y137054D01*
X236586Y136975D01*
X236541Y136897D01*
X236492Y136822D01*
X236440Y136748D01*
X236385Y136677D01*
X236327Y136608D01*
X236266Y136542D01*
X236203Y136479D01*
X236137Y136418D01*
X236068Y136360D01*
X235997Y136305D01*
X235923Y136253D01*
X235848Y136204D01*
X235770Y136159D01*
X235691Y136117D01*
X235610Y136078D01*
X235527Y136043D01*
X235443Y136011D01*
X235358Y135983D01*
X235271Y135958D01*
X235184Y135938D01*
X235096Y135920D01*
X235007Y135907D01*
X234918Y135898D01*
X234828Y135892D01*
X234738Y135890D01*
X232622Y135890D01*
X219215Y118110D02*
X219215Y110490D01*
X219215Y118110D02*
X221332Y118110D01*
X221422Y118108D01*
X221512Y118102D01*
X221601Y118093D01*
X221690Y118080D01*
X221778Y118062D01*
X221865Y118042D01*
X221952Y118017D01*
X222037Y117989D01*
X222121Y117957D01*
X222204Y117922D01*
X222285Y117883D01*
X222364Y117841D01*
X222442Y117796D01*
X222517Y117747D01*
X222591Y117695D01*
X222662Y117640D01*
X222731Y117582D01*
X222797Y117521D01*
X222860Y117458D01*
X222921Y117392D01*
X222979Y117323D01*
X223034Y117252D01*
X223086Y117178D01*
X223135Y117103D01*
X223180Y117025D01*
X223222Y116946D01*
X223261Y116865D01*
X223296Y116782D01*
X223328Y116698D01*
X223356Y116613D01*
X223381Y116526D01*
X223401Y116439D01*
X223419Y116351D01*
X223432Y116262D01*
X223441Y116173D01*
X223447Y116083D01*
X223449Y115993D01*
X223448Y115993D02*
X223448Y112607D01*
X223449Y112607D02*
X223447Y112517D01*
X223441Y112427D01*
X223432Y112338D01*
X223419Y112249D01*
X223401Y112161D01*
X223381Y112074D01*
X223356Y111987D01*
X223328Y111902D01*
X223296Y111818D01*
X223261Y111735D01*
X223222Y111654D01*
X223180Y111575D01*
X223135Y111497D01*
X223086Y111422D01*
X223034Y111348D01*
X222979Y111277D01*
X222921Y111208D01*
X222860Y111142D01*
X222797Y111079D01*
X222731Y111018D01*
X222662Y110960D01*
X222591Y110905D01*
X222517Y110853D01*
X222442Y110804D01*
X222364Y110759D01*
X222285Y110717D01*
X222204Y110678D01*
X222121Y110643D01*
X222037Y110611D01*
X221952Y110583D01*
X221865Y110558D01*
X221778Y110538D01*
X221690Y110520D01*
X221601Y110507D01*
X221512Y110498D01*
X221422Y110492D01*
X221332Y110490D01*
X219215Y110490D01*
X227999Y110490D02*
X227999Y118110D01*
X227152Y110490D02*
X228846Y110490D01*
X228846Y118110D02*
X227152Y118110D01*
X232622Y118110D02*
X232622Y110490D01*
X232622Y118110D02*
X234738Y118110D01*
X234829Y118108D01*
X234920Y118102D01*
X235011Y118092D01*
X235101Y118079D01*
X235190Y118061D01*
X235279Y118040D01*
X235366Y118015D01*
X235453Y117986D01*
X235538Y117953D01*
X235621Y117917D01*
X235703Y117877D01*
X235783Y117834D01*
X235862Y117787D01*
X235938Y117737D01*
X236012Y117684D01*
X236083Y117628D01*
X236152Y117568D01*
X236219Y117506D01*
X236282Y117441D01*
X236343Y117373D01*
X236401Y117303D01*
X236456Y117230D01*
X236508Y117155D01*
X236556Y117078D01*
X236601Y116998D01*
X236643Y116917D01*
X236681Y116835D01*
X236715Y116750D01*
X236746Y116664D01*
X236773Y116577D01*
X236796Y116489D01*
X236815Y116400D01*
X236831Y116311D01*
X236843Y116220D01*
X236851Y116130D01*
X236855Y116039D01*
X236855Y115947D01*
X236851Y115856D01*
X236843Y115766D01*
X236831Y115675D01*
X236815Y115586D01*
X236796Y115497D01*
X236773Y115409D01*
X236746Y115322D01*
X236715Y115236D01*
X236681Y115151D01*
X236643Y115069D01*
X236601Y114988D01*
X236556Y114908D01*
X236508Y114831D01*
X236456Y114756D01*
X236401Y114683D01*
X236343Y114613D01*
X236282Y114545D01*
X236219Y114480D01*
X236152Y114418D01*
X236083Y114358D01*
X236012Y114302D01*
X235938Y114249D01*
X235862Y114199D01*
X235783Y114152D01*
X235703Y114109D01*
X235621Y114069D01*
X235538Y114033D01*
X235453Y114000D01*
X235366Y113971D01*
X235279Y113946D01*
X235190Y113925D01*
X235101Y113907D01*
X235011Y113894D01*
X234920Y113884D01*
X234829Y113878D01*
X234738Y113876D01*
X234738Y113877D02*
X232622Y113877D01*
X235162Y113877D02*
X236855Y110490D01*
X220853Y86783D02*
X220851Y86702D01*
X220845Y86622D01*
X220836Y86542D01*
X220822Y86463D01*
X220805Y86384D01*
X220784Y86306D01*
X220760Y86229D01*
X220732Y86154D01*
X220700Y86080D01*
X220665Y86007D01*
X220626Y85937D01*
X220584Y85868D01*
X220539Y85801D01*
X220491Y85736D01*
X220439Y85674D01*
X220385Y85615D01*
X220328Y85558D01*
X220269Y85504D01*
X220207Y85452D01*
X220142Y85404D01*
X220075Y85359D01*
X220007Y85317D01*
X219936Y85278D01*
X219863Y85243D01*
X219789Y85211D01*
X219714Y85183D01*
X219637Y85159D01*
X219559Y85138D01*
X219480Y85121D01*
X219401Y85107D01*
X219321Y85098D01*
X219241Y85092D01*
X219160Y85090D01*
X219042Y85092D01*
X218925Y85098D01*
X218808Y85107D01*
X218691Y85121D01*
X218574Y85138D01*
X218459Y85159D01*
X218344Y85184D01*
X218229Y85213D01*
X218116Y85246D01*
X218004Y85282D01*
X217894Y85322D01*
X217784Y85365D01*
X217676Y85412D01*
X217570Y85463D01*
X217466Y85517D01*
X217363Y85574D01*
X217262Y85635D01*
X217163Y85699D01*
X217067Y85766D01*
X216973Y85837D01*
X216881Y85910D01*
X216791Y85987D01*
X216704Y86066D01*
X216620Y86148D01*
X216832Y91017D02*
X216834Y91098D01*
X216840Y91178D01*
X216849Y91258D01*
X216863Y91337D01*
X216880Y91416D01*
X216901Y91494D01*
X216925Y91571D01*
X216953Y91646D01*
X216985Y91720D01*
X217020Y91793D01*
X217059Y91864D01*
X217101Y91932D01*
X217146Y91999D01*
X217194Y92064D01*
X217246Y92126D01*
X217300Y92185D01*
X217357Y92242D01*
X217416Y92296D01*
X217478Y92348D01*
X217543Y92396D01*
X217610Y92441D01*
X217679Y92483D01*
X217749Y92522D01*
X217822Y92557D01*
X217896Y92589D01*
X217971Y92617D01*
X218048Y92641D01*
X218126Y92662D01*
X218205Y92679D01*
X218284Y92693D01*
X218364Y92702D01*
X218444Y92708D01*
X218525Y92710D01*
X218633Y92708D01*
X218740Y92703D01*
X218847Y92694D01*
X218954Y92681D01*
X219060Y92665D01*
X219166Y92645D01*
X219271Y92621D01*
X219375Y92594D01*
X219478Y92564D01*
X219580Y92530D01*
X219681Y92492D01*
X219780Y92451D01*
X219878Y92407D01*
X219975Y92360D01*
X220069Y92309D01*
X220163Y92255D01*
X220254Y92198D01*
X220343Y92138D01*
X220430Y92075D01*
X217678Y89535D02*
X217609Y89578D01*
X217542Y89624D01*
X217477Y89673D01*
X217415Y89725D01*
X217356Y89780D01*
X217299Y89838D01*
X217244Y89899D01*
X217193Y89961D01*
X217145Y90027D01*
X217100Y90094D01*
X217058Y90164D01*
X217019Y90235D01*
X216984Y90308D01*
X216952Y90383D01*
X216924Y90459D01*
X216899Y90536D01*
X216879Y90615D01*
X216862Y90694D01*
X216848Y90774D01*
X216839Y90855D01*
X216833Y90936D01*
X216831Y91017D01*
X220006Y88265D02*
X220075Y88222D01*
X220142Y88176D01*
X220207Y88127D01*
X220269Y88075D01*
X220328Y88020D01*
X220386Y87962D01*
X220440Y87901D01*
X220491Y87839D01*
X220539Y87773D01*
X220584Y87706D01*
X220626Y87636D01*
X220665Y87565D01*
X220700Y87492D01*
X220732Y87417D01*
X220760Y87341D01*
X220785Y87264D01*
X220805Y87185D01*
X220822Y87106D01*
X220836Y87026D01*
X220845Y86945D01*
X220851Y86864D01*
X220853Y86783D01*
X220006Y88265D02*
X217678Y89535D01*
X224786Y92710D02*
X224786Y85090D01*
X224786Y92710D02*
X226902Y92710D01*
X226993Y92708D01*
X227084Y92702D01*
X227175Y92692D01*
X227265Y92679D01*
X227354Y92661D01*
X227443Y92640D01*
X227530Y92615D01*
X227617Y92586D01*
X227702Y92553D01*
X227785Y92517D01*
X227867Y92477D01*
X227947Y92434D01*
X228026Y92387D01*
X228102Y92337D01*
X228176Y92284D01*
X228247Y92228D01*
X228316Y92168D01*
X228383Y92106D01*
X228446Y92041D01*
X228507Y91973D01*
X228565Y91903D01*
X228620Y91830D01*
X228672Y91755D01*
X228720Y91678D01*
X228765Y91598D01*
X228807Y91517D01*
X228845Y91435D01*
X228879Y91350D01*
X228910Y91264D01*
X228937Y91177D01*
X228960Y91089D01*
X228979Y91000D01*
X228995Y90911D01*
X229007Y90820D01*
X229015Y90730D01*
X229019Y90639D01*
X229019Y90547D01*
X229015Y90456D01*
X229007Y90366D01*
X228995Y90275D01*
X228979Y90186D01*
X228960Y90097D01*
X228937Y90009D01*
X228910Y89922D01*
X228879Y89836D01*
X228845Y89751D01*
X228807Y89669D01*
X228765Y89588D01*
X228720Y89508D01*
X228672Y89431D01*
X228620Y89356D01*
X228565Y89283D01*
X228507Y89213D01*
X228446Y89145D01*
X228383Y89080D01*
X228316Y89018D01*
X228247Y88958D01*
X228176Y88902D01*
X228102Y88849D01*
X228026Y88799D01*
X227947Y88752D01*
X227867Y88709D01*
X227785Y88669D01*
X227702Y88633D01*
X227617Y88600D01*
X227530Y88571D01*
X227443Y88546D01*
X227354Y88525D01*
X227265Y88507D01*
X227175Y88494D01*
X227084Y88484D01*
X226993Y88478D01*
X226902Y88476D01*
X226902Y88477D02*
X224786Y88477D01*
X232622Y85090D02*
X232622Y92710D01*
X234738Y92710D01*
X234828Y92708D01*
X234918Y92702D01*
X235007Y92693D01*
X235096Y92680D01*
X235184Y92662D01*
X235271Y92642D01*
X235358Y92617D01*
X235443Y92589D01*
X235527Y92557D01*
X235610Y92522D01*
X235691Y92483D01*
X235770Y92441D01*
X235848Y92396D01*
X235923Y92347D01*
X235997Y92295D01*
X236068Y92240D01*
X236137Y92182D01*
X236203Y92121D01*
X236266Y92058D01*
X236327Y91992D01*
X236385Y91923D01*
X236440Y91852D01*
X236492Y91778D01*
X236541Y91703D01*
X236586Y91625D01*
X236628Y91546D01*
X236667Y91465D01*
X236702Y91382D01*
X236734Y91298D01*
X236762Y91213D01*
X236787Y91126D01*
X236807Y91039D01*
X236825Y90951D01*
X236838Y90862D01*
X236847Y90773D01*
X236853Y90683D01*
X236855Y90593D01*
X236855Y87207D01*
X236853Y87117D01*
X236847Y87027D01*
X236838Y86938D01*
X236825Y86849D01*
X236807Y86761D01*
X236787Y86674D01*
X236762Y86587D01*
X236734Y86502D01*
X236702Y86418D01*
X236667Y86335D01*
X236628Y86254D01*
X236586Y86175D01*
X236541Y86097D01*
X236492Y86022D01*
X236440Y85948D01*
X236385Y85877D01*
X236327Y85808D01*
X236266Y85742D01*
X236203Y85679D01*
X236137Y85618D01*
X236068Y85560D01*
X235997Y85505D01*
X235923Y85453D01*
X235848Y85404D01*
X235770Y85359D01*
X235691Y85317D01*
X235610Y85278D01*
X235527Y85243D01*
X235443Y85211D01*
X235358Y85183D01*
X235271Y85158D01*
X235184Y85138D01*
X235096Y85120D01*
X235007Y85107D01*
X234918Y85098D01*
X234828Y85092D01*
X234738Y85090D01*
X232622Y85090D01*
X218558Y67310D02*
X218558Y59690D01*
X218558Y67310D02*
X220675Y67310D01*
X220766Y67308D01*
X220857Y67302D01*
X220948Y67292D01*
X221038Y67279D01*
X221127Y67261D01*
X221216Y67240D01*
X221303Y67215D01*
X221390Y67186D01*
X221475Y67153D01*
X221558Y67117D01*
X221640Y67077D01*
X221720Y67034D01*
X221799Y66987D01*
X221875Y66937D01*
X221949Y66884D01*
X222020Y66828D01*
X222089Y66768D01*
X222156Y66706D01*
X222219Y66641D01*
X222280Y66573D01*
X222338Y66503D01*
X222393Y66430D01*
X222445Y66355D01*
X222493Y66278D01*
X222538Y66198D01*
X222580Y66117D01*
X222618Y66035D01*
X222652Y65950D01*
X222683Y65864D01*
X222710Y65777D01*
X222733Y65689D01*
X222752Y65600D01*
X222768Y65511D01*
X222780Y65420D01*
X222788Y65330D01*
X222792Y65239D01*
X222792Y65147D01*
X222788Y65056D01*
X222780Y64966D01*
X222768Y64875D01*
X222752Y64786D01*
X222733Y64697D01*
X222710Y64609D01*
X222683Y64522D01*
X222652Y64436D01*
X222618Y64351D01*
X222580Y64269D01*
X222538Y64188D01*
X222493Y64108D01*
X222445Y64031D01*
X222393Y63956D01*
X222338Y63883D01*
X222280Y63813D01*
X222219Y63745D01*
X222156Y63680D01*
X222089Y63618D01*
X222020Y63558D01*
X221949Y63502D01*
X221875Y63449D01*
X221799Y63399D01*
X221720Y63352D01*
X221640Y63309D01*
X221558Y63269D01*
X221475Y63233D01*
X221390Y63200D01*
X221303Y63171D01*
X221216Y63146D01*
X221127Y63125D01*
X221038Y63107D01*
X220948Y63094D01*
X220857Y63084D01*
X220766Y63078D01*
X220675Y63076D01*
X220675Y63077D02*
X218558Y63077D01*
X221098Y63077D02*
X222792Y59690D01*
X228149Y59690D02*
X229842Y59690D01*
X228149Y59690D02*
X228068Y59692D01*
X227988Y59698D01*
X227908Y59707D01*
X227829Y59721D01*
X227750Y59738D01*
X227672Y59759D01*
X227595Y59783D01*
X227520Y59811D01*
X227446Y59843D01*
X227373Y59878D01*
X227303Y59917D01*
X227234Y59959D01*
X227167Y60004D01*
X227102Y60052D01*
X227040Y60104D01*
X226981Y60158D01*
X226924Y60215D01*
X226870Y60274D01*
X226818Y60336D01*
X226770Y60401D01*
X226725Y60468D01*
X226683Y60537D01*
X226644Y60607D01*
X226609Y60680D01*
X226577Y60754D01*
X226549Y60829D01*
X226525Y60906D01*
X226504Y60984D01*
X226487Y61063D01*
X226473Y61142D01*
X226464Y61222D01*
X226458Y61302D01*
X226456Y61383D01*
X226455Y61383D02*
X226455Y65617D01*
X226456Y65617D02*
X226458Y65698D01*
X226464Y65778D01*
X226473Y65858D01*
X226487Y65937D01*
X226504Y66016D01*
X226525Y66094D01*
X226549Y66171D01*
X226577Y66246D01*
X226609Y66320D01*
X226644Y66393D01*
X226683Y66463D01*
X226725Y66532D01*
X226770Y66599D01*
X226818Y66664D01*
X226870Y66726D01*
X226924Y66785D01*
X226981Y66842D01*
X227040Y66896D01*
X227102Y66948D01*
X227167Y66996D01*
X227234Y67041D01*
X227302Y67083D01*
X227373Y67122D01*
X227446Y67157D01*
X227520Y67189D01*
X227595Y67217D01*
X227672Y67241D01*
X227750Y67262D01*
X227829Y67279D01*
X227908Y67293D01*
X227988Y67302D01*
X228068Y67308D01*
X228149Y67310D01*
X229842Y67310D01*
X234738Y67310D02*
X234738Y59690D01*
X232622Y67310D02*
X236855Y67310D01*
X218409Y41910D02*
X220949Y34290D01*
X223489Y41910D01*
X228494Y34290D02*
X230188Y34290D01*
X228494Y34290D02*
X228413Y34292D01*
X228333Y34298D01*
X228253Y34307D01*
X228174Y34321D01*
X228095Y34338D01*
X228017Y34359D01*
X227940Y34383D01*
X227865Y34411D01*
X227791Y34443D01*
X227718Y34478D01*
X227648Y34517D01*
X227579Y34559D01*
X227512Y34604D01*
X227447Y34652D01*
X227385Y34704D01*
X227326Y34758D01*
X227269Y34815D01*
X227215Y34874D01*
X227163Y34936D01*
X227115Y35001D01*
X227070Y35068D01*
X227028Y35137D01*
X226989Y35207D01*
X226954Y35280D01*
X226922Y35354D01*
X226894Y35429D01*
X226870Y35506D01*
X226849Y35584D01*
X226832Y35663D01*
X226818Y35742D01*
X226809Y35822D01*
X226803Y35902D01*
X226801Y35983D01*
X226801Y40217D01*
X226803Y40298D01*
X226809Y40378D01*
X226818Y40458D01*
X226832Y40537D01*
X226849Y40616D01*
X226870Y40694D01*
X226894Y40771D01*
X226922Y40846D01*
X226954Y40920D01*
X226989Y40993D01*
X227028Y41063D01*
X227070Y41132D01*
X227115Y41199D01*
X227163Y41264D01*
X227215Y41326D01*
X227269Y41385D01*
X227326Y41442D01*
X227385Y41496D01*
X227447Y41548D01*
X227512Y41596D01*
X227579Y41641D01*
X227647Y41683D01*
X227718Y41722D01*
X227791Y41757D01*
X227865Y41789D01*
X227940Y41817D01*
X228017Y41841D01*
X228095Y41862D01*
X228174Y41879D01*
X228253Y41893D01*
X228333Y41902D01*
X228413Y41908D01*
X228494Y41910D01*
X230188Y41910D01*
X235162Y34290D02*
X236855Y34290D01*
X235162Y34290D02*
X235081Y34292D01*
X235001Y34298D01*
X234921Y34307D01*
X234842Y34321D01*
X234763Y34338D01*
X234685Y34359D01*
X234608Y34383D01*
X234533Y34411D01*
X234459Y34443D01*
X234386Y34478D01*
X234316Y34517D01*
X234247Y34559D01*
X234180Y34604D01*
X234115Y34652D01*
X234053Y34704D01*
X233994Y34758D01*
X233937Y34815D01*
X233883Y34874D01*
X233831Y34936D01*
X233783Y35001D01*
X233738Y35068D01*
X233696Y35137D01*
X233657Y35207D01*
X233622Y35280D01*
X233590Y35354D01*
X233562Y35429D01*
X233538Y35506D01*
X233517Y35584D01*
X233500Y35663D01*
X233486Y35742D01*
X233477Y35822D01*
X233471Y35902D01*
X233469Y35983D01*
X233468Y35983D02*
X233468Y40217D01*
X233469Y40217D02*
X233471Y40298D01*
X233477Y40378D01*
X233486Y40458D01*
X233500Y40537D01*
X233517Y40616D01*
X233538Y40694D01*
X233562Y40771D01*
X233590Y40846D01*
X233622Y40920D01*
X233657Y40993D01*
X233696Y41063D01*
X233738Y41132D01*
X233783Y41199D01*
X233831Y41264D01*
X233883Y41326D01*
X233937Y41385D01*
X233994Y41442D01*
X234053Y41496D01*
X234115Y41548D01*
X234180Y41596D01*
X234247Y41641D01*
X234315Y41683D01*
X234386Y41722D01*
X234459Y41757D01*
X234533Y41789D01*
X234608Y41817D01*
X234685Y41841D01*
X234763Y41862D01*
X234842Y41879D01*
X234921Y41893D01*
X235001Y41902D01*
X235081Y41908D01*
X235162Y41910D01*
X236855Y41910D01*
X46355Y151553D02*
X40005Y151553D01*
X41275Y75353D02*
X46355Y75353D01*
X43815Y72813D02*
X43815Y77893D01*
D11*
X199040Y140510D02*
X199040Y146510D01*
X187040Y146510D02*
X187040Y140510D01*
D12*
X205232Y146676D02*
X205232Y147522D01*
X205232Y146676D02*
X205230Y146618D01*
X205224Y146561D01*
X205214Y146504D01*
X205201Y146447D01*
X205183Y146392D01*
X205162Y146339D01*
X205137Y146286D01*
X205109Y146236D01*
X205077Y146188D01*
X205042Y146141D01*
X205004Y146098D01*
X204963Y146057D01*
X204920Y146019D01*
X204873Y145984D01*
X204825Y145952D01*
X204775Y145924D01*
X204722Y145899D01*
X204669Y145878D01*
X204614Y145860D01*
X204557Y145847D01*
X204500Y145837D01*
X204443Y145831D01*
X204385Y145829D01*
X202269Y145829D01*
X202211Y145831D01*
X202154Y145837D01*
X202097Y145847D01*
X202040Y145860D01*
X201985Y145878D01*
X201932Y145899D01*
X201879Y145924D01*
X201829Y145952D01*
X201781Y145984D01*
X201734Y146019D01*
X201691Y146057D01*
X201650Y146098D01*
X201612Y146141D01*
X201577Y146188D01*
X201545Y146236D01*
X201517Y146286D01*
X201492Y146339D01*
X201471Y146392D01*
X201453Y146447D01*
X201440Y146504D01*
X201430Y146561D01*
X201424Y146618D01*
X201422Y146676D01*
X201422Y147522D01*
X202269Y148886D02*
X201422Y149945D01*
X205232Y149945D01*
X205232Y151003D02*
X205232Y148886D01*
X180044Y148102D02*
X179197Y149161D01*
X183007Y149161D01*
X183007Y150219D02*
X183007Y148102D01*
X182372Y151850D02*
X180467Y151850D01*
X182372Y151850D02*
X182419Y151852D01*
X182467Y151857D01*
X182513Y151866D01*
X182559Y151878D01*
X182604Y151894D01*
X182648Y151913D01*
X182690Y151935D01*
X182730Y151960D01*
X182768Y151989D01*
X182804Y152020D01*
X182837Y152053D01*
X182868Y152089D01*
X182897Y152127D01*
X182922Y152168D01*
X182944Y152209D01*
X182963Y152253D01*
X182979Y152298D01*
X182991Y152344D01*
X183000Y152390D01*
X183005Y152438D01*
X183007Y152485D01*
X183007Y153543D01*
X180467Y153543D01*
D11*
X209200Y53800D02*
X209200Y47800D01*
X197200Y47800D02*
X197200Y53800D01*
D12*
X215392Y53966D02*
X215392Y54812D01*
X215392Y53966D02*
X215390Y53908D01*
X215384Y53851D01*
X215374Y53794D01*
X215361Y53737D01*
X215343Y53682D01*
X215322Y53629D01*
X215297Y53576D01*
X215269Y53526D01*
X215237Y53478D01*
X215202Y53431D01*
X215164Y53388D01*
X215123Y53347D01*
X215080Y53309D01*
X215033Y53274D01*
X214985Y53242D01*
X214935Y53214D01*
X214882Y53189D01*
X214829Y53168D01*
X214774Y53150D01*
X214717Y53137D01*
X214660Y53127D01*
X214603Y53121D01*
X214545Y53119D01*
X212429Y53119D01*
X212371Y53121D01*
X212314Y53127D01*
X212257Y53137D01*
X212200Y53150D01*
X212145Y53168D01*
X212092Y53189D01*
X212039Y53214D01*
X211989Y53242D01*
X211941Y53274D01*
X211894Y53309D01*
X211851Y53347D01*
X211810Y53388D01*
X211772Y53431D01*
X211737Y53478D01*
X211705Y53526D01*
X211677Y53576D01*
X211652Y53629D01*
X211631Y53682D01*
X211613Y53737D01*
X211600Y53794D01*
X211590Y53851D01*
X211584Y53908D01*
X211582Y53966D01*
X211582Y54812D01*
X211582Y57341D02*
X211584Y57401D01*
X211590Y57460D01*
X211599Y57520D01*
X211612Y57578D01*
X211629Y57635D01*
X211649Y57692D01*
X211673Y57747D01*
X211700Y57800D01*
X211730Y57852D01*
X211764Y57901D01*
X211801Y57948D01*
X211840Y57993D01*
X211883Y58036D01*
X211928Y58075D01*
X211975Y58112D01*
X212024Y58146D01*
X212076Y58176D01*
X212129Y58203D01*
X212184Y58227D01*
X212241Y58247D01*
X212298Y58264D01*
X212356Y58277D01*
X212416Y58286D01*
X212475Y58292D01*
X212535Y58294D01*
X211582Y57341D02*
X211584Y57274D01*
X211589Y57207D01*
X211598Y57141D01*
X211611Y57075D01*
X211627Y57011D01*
X211647Y56947D01*
X211671Y56884D01*
X211697Y56822D01*
X211727Y56763D01*
X211760Y56705D01*
X211797Y56648D01*
X211836Y56594D01*
X211878Y56542D01*
X211923Y56493D01*
X211971Y56446D01*
X212021Y56402D01*
X212074Y56360D01*
X212129Y56322D01*
X212185Y56286D01*
X212244Y56254D01*
X212304Y56225D01*
X212366Y56199D01*
X212429Y56177D01*
X213276Y57975D02*
X213234Y58017D01*
X213189Y58056D01*
X213143Y58093D01*
X213094Y58127D01*
X213044Y58157D01*
X212992Y58185D01*
X212938Y58210D01*
X212883Y58232D01*
X212827Y58251D01*
X212770Y58266D01*
X212712Y58278D01*
X212653Y58286D01*
X212594Y58291D01*
X212535Y58293D01*
X213275Y57976D02*
X215392Y56176D01*
X215392Y58293D01*
X190204Y51735D02*
X189357Y52793D01*
X193167Y52793D01*
X193167Y51735D02*
X193167Y53851D01*
X191262Y55392D02*
X191152Y55394D01*
X191043Y55400D01*
X190934Y55409D01*
X190825Y55423D01*
X190717Y55440D01*
X190609Y55461D01*
X190503Y55485D01*
X190397Y55514D01*
X190292Y55546D01*
X190188Y55581D01*
X190086Y55620D01*
X189985Y55663D01*
X189886Y55710D01*
X189836Y55730D01*
X189787Y55752D01*
X189739Y55778D01*
X189694Y55807D01*
X189651Y55840D01*
X189610Y55875D01*
X189571Y55913D01*
X189536Y55953D01*
X189503Y55996D01*
X189473Y56041D01*
X189446Y56088D01*
X189423Y56136D01*
X189403Y56186D01*
X189387Y56238D01*
X189374Y56290D01*
X189364Y56343D01*
X189359Y56397D01*
X189357Y56451D01*
X189359Y56505D01*
X189364Y56559D01*
X189374Y56612D01*
X189387Y56664D01*
X189403Y56716D01*
X189423Y56766D01*
X189446Y56814D01*
X189473Y56861D01*
X189503Y56906D01*
X189536Y56949D01*
X189571Y56989D01*
X189610Y57027D01*
X189651Y57062D01*
X189694Y57095D01*
X189739Y57124D01*
X189787Y57150D01*
X189836Y57172D01*
X189886Y57192D01*
X189886Y57191D02*
X189985Y57238D01*
X190086Y57281D01*
X190188Y57320D01*
X190292Y57355D01*
X190397Y57387D01*
X190503Y57416D01*
X190609Y57440D01*
X190717Y57461D01*
X190825Y57478D01*
X190934Y57492D01*
X191043Y57501D01*
X191152Y57507D01*
X191262Y57509D01*
X191262Y55392D02*
X191372Y55394D01*
X191481Y55400D01*
X191590Y55409D01*
X191699Y55423D01*
X191807Y55440D01*
X191915Y55461D01*
X192021Y55485D01*
X192127Y55514D01*
X192232Y55546D01*
X192336Y55581D01*
X192438Y55620D01*
X192539Y55663D01*
X192638Y55710D01*
X192688Y55730D01*
X192737Y55752D01*
X192785Y55778D01*
X192830Y55807D01*
X192873Y55840D01*
X192914Y55875D01*
X192953Y55913D01*
X192988Y55953D01*
X193021Y55996D01*
X193051Y56041D01*
X193078Y56088D01*
X193101Y56136D01*
X193121Y56187D01*
X193137Y56238D01*
X193150Y56290D01*
X193160Y56343D01*
X193165Y56397D01*
X193167Y56451D01*
X192638Y57191D02*
X192539Y57238D01*
X192438Y57281D01*
X192336Y57320D01*
X192232Y57355D01*
X192127Y57387D01*
X192021Y57416D01*
X191915Y57440D01*
X191807Y57461D01*
X191699Y57478D01*
X191590Y57492D01*
X191481Y57501D01*
X191372Y57507D01*
X191262Y57509D01*
X192638Y57192D02*
X192688Y57172D01*
X192737Y57150D01*
X192785Y57124D01*
X192830Y57095D01*
X192873Y57062D01*
X192914Y57027D01*
X192953Y56989D01*
X192988Y56949D01*
X193021Y56906D01*
X193051Y56861D01*
X193078Y56814D01*
X193101Y56766D01*
X193121Y56715D01*
X193137Y56664D01*
X193150Y56612D01*
X193160Y56559D01*
X193165Y56505D01*
X193167Y56451D01*
X192320Y55604D02*
X190204Y57297D01*
X190627Y59140D02*
X192532Y59140D01*
X192579Y59142D01*
X192627Y59147D01*
X192673Y59156D01*
X192719Y59168D01*
X192764Y59184D01*
X192808Y59203D01*
X192850Y59225D01*
X192890Y59250D01*
X192928Y59279D01*
X192964Y59310D01*
X192997Y59343D01*
X193028Y59379D01*
X193057Y59417D01*
X193082Y59458D01*
X193104Y59499D01*
X193123Y59543D01*
X193139Y59588D01*
X193151Y59634D01*
X193160Y59680D01*
X193165Y59728D01*
X193167Y59775D01*
X193167Y60833D01*
X190627Y60833D01*
D11*
X102520Y43640D02*
X102520Y37640D01*
X90520Y37640D02*
X90520Y43640D01*
D12*
X108712Y43806D02*
X108712Y44652D01*
X108712Y43806D02*
X108710Y43748D01*
X108704Y43691D01*
X108694Y43634D01*
X108681Y43577D01*
X108663Y43522D01*
X108642Y43469D01*
X108617Y43416D01*
X108589Y43366D01*
X108557Y43318D01*
X108522Y43271D01*
X108484Y43228D01*
X108443Y43187D01*
X108400Y43149D01*
X108353Y43114D01*
X108305Y43082D01*
X108255Y43054D01*
X108202Y43029D01*
X108149Y43008D01*
X108094Y42990D01*
X108037Y42977D01*
X107980Y42967D01*
X107923Y42961D01*
X107865Y42959D01*
X105749Y42959D01*
X105691Y42961D01*
X105634Y42967D01*
X105577Y42977D01*
X105520Y42990D01*
X105465Y43008D01*
X105412Y43029D01*
X105359Y43054D01*
X105309Y43082D01*
X105261Y43114D01*
X105214Y43149D01*
X105171Y43187D01*
X105130Y43228D01*
X105092Y43271D01*
X105057Y43318D01*
X105025Y43366D01*
X104997Y43416D01*
X104972Y43469D01*
X104951Y43522D01*
X104933Y43577D01*
X104920Y43634D01*
X104910Y43691D01*
X104904Y43748D01*
X104902Y43806D01*
X104902Y44652D01*
X108712Y46016D02*
X108712Y47075D01*
X108710Y47139D01*
X108704Y47203D01*
X108695Y47266D01*
X108681Y47328D01*
X108664Y47390D01*
X108643Y47450D01*
X108619Y47509D01*
X108591Y47567D01*
X108559Y47622D01*
X108525Y47676D01*
X108487Y47727D01*
X108446Y47777D01*
X108402Y47823D01*
X108356Y47867D01*
X108306Y47908D01*
X108255Y47946D01*
X108201Y47980D01*
X108146Y48012D01*
X108088Y48040D01*
X108029Y48064D01*
X107969Y48085D01*
X107907Y48102D01*
X107845Y48116D01*
X107782Y48125D01*
X107718Y48131D01*
X107654Y48133D01*
X107590Y48131D01*
X107526Y48125D01*
X107463Y48116D01*
X107401Y48102D01*
X107339Y48085D01*
X107279Y48064D01*
X107220Y48040D01*
X107162Y48012D01*
X107107Y47980D01*
X107053Y47946D01*
X107002Y47908D01*
X106952Y47867D01*
X106906Y47823D01*
X106862Y47777D01*
X106821Y47727D01*
X106783Y47676D01*
X106749Y47622D01*
X106717Y47567D01*
X106689Y47509D01*
X106665Y47450D01*
X106644Y47390D01*
X106627Y47328D01*
X106613Y47266D01*
X106604Y47203D01*
X106598Y47139D01*
X106596Y47075D01*
X104902Y47286D02*
X104902Y46016D01*
X104902Y47286D02*
X104904Y47343D01*
X104910Y47399D01*
X104919Y47455D01*
X104932Y47510D01*
X104949Y47564D01*
X104969Y47617D01*
X104993Y47668D01*
X105020Y47718D01*
X105051Y47765D01*
X105084Y47811D01*
X105121Y47854D01*
X105160Y47895D01*
X105202Y47933D01*
X105247Y47968D01*
X105293Y48000D01*
X105342Y48029D01*
X105392Y48054D01*
X105445Y48076D01*
X105498Y48095D01*
X105553Y48110D01*
X105608Y48121D01*
X105664Y48129D01*
X105721Y48133D01*
X105777Y48133D01*
X105834Y48129D01*
X105890Y48121D01*
X105945Y48110D01*
X106000Y48095D01*
X106053Y48076D01*
X106106Y48054D01*
X106156Y48029D01*
X106205Y48000D01*
X106251Y47968D01*
X106296Y47933D01*
X106338Y47895D01*
X106377Y47854D01*
X106414Y47811D01*
X106447Y47765D01*
X106478Y47718D01*
X106505Y47668D01*
X106529Y47617D01*
X106549Y47564D01*
X106566Y47510D01*
X106579Y47455D01*
X106588Y47399D01*
X106594Y47343D01*
X106596Y47286D01*
X106595Y47286D02*
X106595Y46440D01*
X83524Y45232D02*
X82677Y46291D01*
X86487Y46291D01*
X86487Y47349D02*
X86487Y45232D01*
X85852Y48980D02*
X83947Y48980D01*
X85852Y48980D02*
X85899Y48982D01*
X85947Y48987D01*
X85993Y48996D01*
X86039Y49008D01*
X86084Y49024D01*
X86128Y49043D01*
X86170Y49065D01*
X86210Y49090D01*
X86248Y49119D01*
X86284Y49150D01*
X86317Y49183D01*
X86348Y49219D01*
X86377Y49257D01*
X86402Y49298D01*
X86424Y49339D01*
X86443Y49383D01*
X86459Y49428D01*
X86471Y49474D01*
X86480Y49520D01*
X86485Y49568D01*
X86487Y49615D01*
X86487Y50673D01*
X83947Y50673D01*
D13*
X132000Y95100D02*
X136000Y95100D01*
X132000Y95100D02*
X118000Y95100D01*
X132000Y108100D02*
X136000Y108100D01*
X132000Y108100D02*
X118000Y108100D01*
X132000Y108100D02*
X132000Y95100D01*
D12*
X129867Y91313D02*
X129867Y87503D01*
X129867Y91313D02*
X130925Y91313D01*
X130989Y91311D01*
X131053Y91305D01*
X131116Y91296D01*
X131178Y91282D01*
X131240Y91265D01*
X131300Y91244D01*
X131359Y91220D01*
X131417Y91192D01*
X131472Y91160D01*
X131526Y91126D01*
X131577Y91088D01*
X131627Y91047D01*
X131673Y91003D01*
X131717Y90957D01*
X131758Y90907D01*
X131796Y90856D01*
X131830Y90802D01*
X131862Y90747D01*
X131890Y90689D01*
X131914Y90630D01*
X131935Y90570D01*
X131952Y90508D01*
X131966Y90446D01*
X131975Y90383D01*
X131981Y90319D01*
X131983Y90255D01*
X131984Y90255D02*
X131984Y88561D01*
X131983Y88561D02*
X131981Y88497D01*
X131975Y88433D01*
X131966Y88370D01*
X131952Y88308D01*
X131935Y88246D01*
X131914Y88186D01*
X131890Y88127D01*
X131862Y88069D01*
X131830Y88014D01*
X131796Y87960D01*
X131758Y87909D01*
X131717Y87859D01*
X131673Y87813D01*
X131627Y87769D01*
X131577Y87728D01*
X131526Y87690D01*
X131472Y87656D01*
X131417Y87624D01*
X131359Y87596D01*
X131300Y87572D01*
X131240Y87551D01*
X131178Y87534D01*
X131116Y87520D01*
X131053Y87511D01*
X130989Y87505D01*
X130925Y87503D01*
X129867Y87503D01*
X133646Y90466D02*
X134705Y91313D01*
X134705Y87503D01*
X135763Y87503D02*
X133646Y87503D01*
D13*
X132000Y120500D02*
X136000Y120500D01*
X132000Y120500D02*
X118000Y120500D01*
X132000Y133500D02*
X136000Y133500D01*
X132000Y133500D02*
X118000Y133500D01*
X132000Y133500D02*
X132000Y120500D01*
D12*
X129867Y116713D02*
X129867Y112903D01*
X129867Y116713D02*
X130925Y116713D01*
X130989Y116711D01*
X131053Y116705D01*
X131116Y116696D01*
X131178Y116682D01*
X131240Y116665D01*
X131300Y116644D01*
X131359Y116620D01*
X131417Y116592D01*
X131472Y116560D01*
X131526Y116526D01*
X131577Y116488D01*
X131627Y116447D01*
X131673Y116403D01*
X131717Y116357D01*
X131758Y116307D01*
X131796Y116256D01*
X131830Y116202D01*
X131862Y116147D01*
X131890Y116089D01*
X131914Y116030D01*
X131935Y115970D01*
X131952Y115908D01*
X131966Y115846D01*
X131975Y115783D01*
X131981Y115719D01*
X131983Y115655D01*
X131984Y115655D02*
X131984Y113961D01*
X131983Y113961D02*
X131981Y113897D01*
X131975Y113833D01*
X131966Y113770D01*
X131952Y113708D01*
X131935Y113646D01*
X131914Y113586D01*
X131890Y113527D01*
X131862Y113469D01*
X131830Y113414D01*
X131796Y113360D01*
X131758Y113309D01*
X131717Y113259D01*
X131673Y113213D01*
X131627Y113169D01*
X131577Y113128D01*
X131526Y113090D01*
X131472Y113056D01*
X131417Y113024D01*
X131359Y112996D01*
X131300Y112972D01*
X131240Y112951D01*
X131178Y112934D01*
X131116Y112920D01*
X131053Y112911D01*
X130989Y112905D01*
X130925Y112903D01*
X129867Y112903D01*
X134811Y116714D02*
X134871Y116712D01*
X134930Y116706D01*
X134990Y116697D01*
X135048Y116684D01*
X135105Y116667D01*
X135162Y116647D01*
X135217Y116623D01*
X135270Y116596D01*
X135322Y116566D01*
X135371Y116532D01*
X135418Y116495D01*
X135463Y116456D01*
X135506Y116413D01*
X135545Y116368D01*
X135582Y116321D01*
X135616Y116272D01*
X135646Y116220D01*
X135673Y116167D01*
X135697Y116112D01*
X135717Y116055D01*
X135734Y115998D01*
X135747Y115940D01*
X135756Y115880D01*
X135762Y115821D01*
X135764Y115761D01*
X134811Y116713D02*
X134744Y116711D01*
X134677Y116706D01*
X134611Y116697D01*
X134545Y116684D01*
X134481Y116668D01*
X134417Y116648D01*
X134354Y116624D01*
X134292Y116598D01*
X134233Y116568D01*
X134175Y116535D01*
X134118Y116498D01*
X134064Y116459D01*
X134012Y116417D01*
X133963Y116372D01*
X133916Y116324D01*
X133872Y116274D01*
X133830Y116221D01*
X133792Y116166D01*
X133756Y116110D01*
X133724Y116051D01*
X133695Y115991D01*
X133669Y115929D01*
X133647Y115866D01*
X135446Y115020D02*
X135487Y115062D01*
X135526Y115107D01*
X135563Y115153D01*
X135597Y115202D01*
X135628Y115252D01*
X135655Y115304D01*
X135680Y115358D01*
X135702Y115413D01*
X135721Y115469D01*
X135736Y115526D01*
X135748Y115584D01*
X135756Y115643D01*
X135761Y115702D01*
X135763Y115761D01*
X135446Y115020D02*
X133646Y112903D01*
X135763Y112903D01*
D13*
X95400Y97900D02*
X95400Y93900D01*
X95400Y79900D01*
X82400Y93900D02*
X82400Y97900D01*
X82400Y93900D02*
X82400Y79900D01*
X82400Y93900D02*
X95400Y93900D01*
D12*
X99187Y91767D02*
X102997Y91767D01*
X99187Y91767D02*
X99187Y92825D01*
X99189Y92889D01*
X99195Y92953D01*
X99204Y93016D01*
X99218Y93078D01*
X99235Y93140D01*
X99256Y93200D01*
X99280Y93259D01*
X99308Y93317D01*
X99340Y93372D01*
X99374Y93426D01*
X99412Y93477D01*
X99453Y93527D01*
X99497Y93573D01*
X99543Y93617D01*
X99593Y93658D01*
X99644Y93696D01*
X99698Y93730D01*
X99753Y93762D01*
X99811Y93790D01*
X99870Y93814D01*
X99930Y93835D01*
X99992Y93852D01*
X100054Y93866D01*
X100118Y93875D01*
X100181Y93881D01*
X100245Y93883D01*
X100245Y93884D02*
X101939Y93884D01*
X101939Y93883D02*
X102003Y93881D01*
X102067Y93875D01*
X102130Y93866D01*
X102192Y93852D01*
X102254Y93835D01*
X102314Y93814D01*
X102373Y93790D01*
X102431Y93762D01*
X102486Y93730D01*
X102540Y93696D01*
X102591Y93658D01*
X102641Y93617D01*
X102687Y93573D01*
X102731Y93527D01*
X102772Y93477D01*
X102810Y93426D01*
X102844Y93372D01*
X102876Y93317D01*
X102904Y93259D01*
X102928Y93200D01*
X102949Y93140D01*
X102966Y93078D01*
X102980Y93016D01*
X102989Y92953D01*
X102995Y92889D01*
X102997Y92825D01*
X102997Y91767D01*
X102997Y95546D02*
X102997Y96605D01*
X102995Y96669D01*
X102989Y96733D01*
X102980Y96796D01*
X102966Y96858D01*
X102949Y96920D01*
X102928Y96980D01*
X102904Y97039D01*
X102876Y97097D01*
X102844Y97152D01*
X102810Y97206D01*
X102772Y97257D01*
X102731Y97307D01*
X102687Y97353D01*
X102641Y97397D01*
X102591Y97438D01*
X102540Y97476D01*
X102486Y97510D01*
X102431Y97542D01*
X102373Y97570D01*
X102314Y97594D01*
X102254Y97615D01*
X102192Y97632D01*
X102130Y97646D01*
X102067Y97655D01*
X102003Y97661D01*
X101939Y97663D01*
X101875Y97661D01*
X101811Y97655D01*
X101748Y97646D01*
X101686Y97632D01*
X101624Y97615D01*
X101564Y97594D01*
X101505Y97570D01*
X101447Y97542D01*
X101392Y97510D01*
X101338Y97476D01*
X101287Y97438D01*
X101237Y97397D01*
X101191Y97353D01*
X101147Y97307D01*
X101106Y97257D01*
X101068Y97206D01*
X101034Y97152D01*
X101002Y97097D01*
X100974Y97039D01*
X100950Y96980D01*
X100929Y96920D01*
X100912Y96858D01*
X100898Y96796D01*
X100889Y96733D01*
X100883Y96669D01*
X100881Y96605D01*
X99187Y96816D02*
X99187Y95546D01*
X99187Y96816D02*
X99189Y96873D01*
X99195Y96929D01*
X99204Y96985D01*
X99217Y97040D01*
X99234Y97094D01*
X99254Y97147D01*
X99278Y97198D01*
X99305Y97248D01*
X99336Y97295D01*
X99369Y97341D01*
X99406Y97384D01*
X99445Y97425D01*
X99487Y97463D01*
X99532Y97498D01*
X99578Y97530D01*
X99627Y97559D01*
X99677Y97584D01*
X99730Y97606D01*
X99783Y97625D01*
X99838Y97640D01*
X99893Y97651D01*
X99949Y97659D01*
X100006Y97663D01*
X100062Y97663D01*
X100119Y97659D01*
X100175Y97651D01*
X100230Y97640D01*
X100285Y97625D01*
X100338Y97606D01*
X100391Y97584D01*
X100441Y97559D01*
X100490Y97530D01*
X100536Y97498D01*
X100581Y97463D01*
X100623Y97425D01*
X100662Y97384D01*
X100699Y97341D01*
X100732Y97295D01*
X100763Y97248D01*
X100790Y97198D01*
X100814Y97147D01*
X100834Y97094D01*
X100851Y97040D01*
X100864Y96985D01*
X100873Y96929D01*
X100879Y96873D01*
X100881Y96816D01*
X100880Y96816D02*
X100880Y95970D01*
D13*
X82400Y130700D02*
X82400Y134700D01*
X82400Y148700D01*
X95400Y134700D02*
X95400Y130700D01*
X95400Y134700D02*
X95400Y148700D01*
X95400Y134700D02*
X82400Y134700D01*
D12*
X78613Y130937D02*
X74803Y130937D01*
X74803Y131995D01*
X74805Y132059D01*
X74811Y132123D01*
X74820Y132186D01*
X74834Y132248D01*
X74851Y132310D01*
X74872Y132370D01*
X74896Y132429D01*
X74924Y132487D01*
X74956Y132542D01*
X74990Y132596D01*
X75028Y132647D01*
X75069Y132697D01*
X75113Y132743D01*
X75159Y132787D01*
X75209Y132828D01*
X75260Y132866D01*
X75314Y132900D01*
X75369Y132932D01*
X75427Y132960D01*
X75486Y132984D01*
X75546Y133005D01*
X75608Y133022D01*
X75670Y133036D01*
X75734Y133045D01*
X75797Y133051D01*
X75861Y133053D01*
X75861Y133054D02*
X77555Y133054D01*
X77555Y133053D02*
X77619Y133051D01*
X77683Y133045D01*
X77746Y133036D01*
X77808Y133022D01*
X77870Y133005D01*
X77930Y132984D01*
X77989Y132960D01*
X78047Y132932D01*
X78102Y132900D01*
X78156Y132866D01*
X78207Y132828D01*
X78257Y132787D01*
X78303Y132743D01*
X78347Y132697D01*
X78388Y132647D01*
X78426Y132596D01*
X78460Y132542D01*
X78492Y132487D01*
X78520Y132429D01*
X78544Y132370D01*
X78565Y132310D01*
X78582Y132248D01*
X78596Y132186D01*
X78605Y132123D01*
X78611Y132059D01*
X78613Y131995D01*
X78613Y130937D01*
X77766Y134717D02*
X74803Y135563D01*
X77766Y134717D02*
X77766Y136833D01*
X76920Y136198D02*
X78613Y136198D01*
D13*
X170310Y140890D02*
X170310Y148890D01*
X170310Y140890D02*
X170310Y122890D01*
X154810Y140890D02*
X154810Y148890D01*
X154810Y140890D02*
X154810Y122890D01*
X154810Y140890D02*
X170310Y140890D01*
D12*
X172847Y138757D02*
X176657Y138757D01*
X172847Y138757D02*
X172847Y139815D01*
X172849Y139879D01*
X172855Y139943D01*
X172864Y140006D01*
X172878Y140068D01*
X172895Y140130D01*
X172916Y140190D01*
X172940Y140249D01*
X172968Y140307D01*
X173000Y140362D01*
X173034Y140416D01*
X173072Y140467D01*
X173113Y140517D01*
X173157Y140563D01*
X173203Y140607D01*
X173253Y140648D01*
X173304Y140686D01*
X173358Y140720D01*
X173413Y140752D01*
X173471Y140780D01*
X173530Y140804D01*
X173590Y140825D01*
X173652Y140842D01*
X173714Y140856D01*
X173778Y140865D01*
X173841Y140871D01*
X173905Y140873D01*
X173905Y140874D02*
X175599Y140874D01*
X175599Y140873D02*
X175663Y140871D01*
X175727Y140865D01*
X175790Y140856D01*
X175852Y140842D01*
X175914Y140825D01*
X175974Y140804D01*
X176033Y140780D01*
X176091Y140752D01*
X176146Y140720D01*
X176200Y140686D01*
X176251Y140648D01*
X176301Y140607D01*
X176347Y140563D01*
X176391Y140517D01*
X176432Y140467D01*
X176470Y140416D01*
X176504Y140362D01*
X176536Y140307D01*
X176564Y140249D01*
X176588Y140190D01*
X176609Y140130D01*
X176626Y140068D01*
X176640Y140006D01*
X176649Y139943D01*
X176655Y139879D01*
X176657Y139815D01*
X176657Y138757D01*
X176657Y142536D02*
X176657Y143806D01*
X176655Y143861D01*
X176650Y143917D01*
X176641Y143971D01*
X176628Y144025D01*
X176612Y144078D01*
X176593Y144130D01*
X176570Y144181D01*
X176544Y144230D01*
X176514Y144277D01*
X176482Y144322D01*
X176447Y144364D01*
X176409Y144405D01*
X176368Y144443D01*
X176326Y144478D01*
X176281Y144510D01*
X176234Y144540D01*
X176185Y144566D01*
X176134Y144589D01*
X176082Y144608D01*
X176029Y144624D01*
X175975Y144637D01*
X175921Y144646D01*
X175865Y144651D01*
X175810Y144653D01*
X175387Y144653D01*
X175329Y144651D01*
X175272Y144645D01*
X175215Y144635D01*
X175158Y144622D01*
X175103Y144604D01*
X175050Y144583D01*
X174997Y144558D01*
X174947Y144530D01*
X174899Y144498D01*
X174852Y144463D01*
X174809Y144425D01*
X174768Y144384D01*
X174730Y144341D01*
X174695Y144294D01*
X174663Y144246D01*
X174635Y144196D01*
X174610Y144143D01*
X174589Y144090D01*
X174571Y144035D01*
X174558Y143978D01*
X174548Y143921D01*
X174542Y143864D01*
X174540Y143806D01*
X174540Y142536D01*
X172847Y142536D01*
X172847Y144653D01*
X149564Y136280D02*
X148717Y137338D01*
X152527Y137338D01*
X152527Y136280D02*
X152527Y138396D01*
X150410Y139937D02*
X150410Y141207D01*
X150412Y141262D01*
X150417Y141318D01*
X150426Y141372D01*
X150439Y141426D01*
X150455Y141479D01*
X150474Y141531D01*
X150497Y141582D01*
X150523Y141631D01*
X150553Y141678D01*
X150585Y141723D01*
X150620Y141765D01*
X150658Y141806D01*
X150699Y141844D01*
X150741Y141879D01*
X150786Y141911D01*
X150834Y141941D01*
X150882Y141967D01*
X150933Y141990D01*
X150985Y142009D01*
X151038Y142025D01*
X151092Y142038D01*
X151146Y142047D01*
X151202Y142052D01*
X151257Y142054D01*
X151469Y142054D01*
X151469Y142053D02*
X151533Y142051D01*
X151597Y142045D01*
X151660Y142036D01*
X151722Y142022D01*
X151784Y142005D01*
X151844Y141984D01*
X151903Y141960D01*
X151961Y141932D01*
X152016Y141900D01*
X152070Y141866D01*
X152121Y141828D01*
X152171Y141787D01*
X152217Y141743D01*
X152261Y141697D01*
X152302Y141647D01*
X152340Y141596D01*
X152374Y141542D01*
X152406Y141487D01*
X152434Y141429D01*
X152458Y141370D01*
X152479Y141310D01*
X152496Y141248D01*
X152510Y141186D01*
X152519Y141123D01*
X152525Y141059D01*
X152527Y140995D01*
X152525Y140931D01*
X152519Y140867D01*
X152510Y140804D01*
X152496Y140742D01*
X152479Y140680D01*
X152458Y140620D01*
X152434Y140561D01*
X152406Y140503D01*
X152374Y140448D01*
X152340Y140394D01*
X152302Y140343D01*
X152261Y140293D01*
X152217Y140247D01*
X152171Y140203D01*
X152121Y140162D01*
X152070Y140124D01*
X152016Y140090D01*
X151961Y140058D01*
X151903Y140030D01*
X151844Y140006D01*
X151784Y139985D01*
X151722Y139968D01*
X151660Y139954D01*
X151597Y139945D01*
X151533Y139939D01*
X151469Y139937D01*
X150410Y139937D01*
X150329Y139939D01*
X150249Y139945D01*
X150169Y139954D01*
X150090Y139968D01*
X150011Y139985D01*
X149933Y140006D01*
X149856Y140030D01*
X149781Y140058D01*
X149707Y140090D01*
X149634Y140125D01*
X149564Y140164D01*
X149495Y140206D01*
X149428Y140251D01*
X149363Y140299D01*
X149301Y140350D01*
X149242Y140405D01*
X149185Y140462D01*
X149131Y140521D01*
X149079Y140583D01*
X149031Y140648D01*
X148986Y140715D01*
X148944Y140783D01*
X148905Y140854D01*
X148870Y140927D01*
X148838Y141001D01*
X148810Y141076D01*
X148786Y141153D01*
X148765Y141231D01*
X148748Y141310D01*
X148734Y141389D01*
X148725Y141469D01*
X148719Y141549D01*
X148717Y141630D01*
X148717Y143383D02*
X152527Y144653D01*
X148717Y145923D01*
D13*
X5600Y141600D02*
X5600Y86600D01*
X5600Y141600D02*
X13100Y141600D01*
X70600Y141600D01*
X70600Y86600D01*
X13100Y86600D01*
X5600Y86600D01*
X13100Y86600D02*
X13100Y141600D01*
X266700Y69850D02*
X266700Y57150D01*
X260350Y50800D01*
X247650Y50800D02*
X241300Y57150D01*
X260350Y50800D02*
X266700Y44450D01*
X266700Y31750D01*
X260350Y25400D01*
X247650Y25400D02*
X241300Y31750D01*
X241300Y44450D01*
X247650Y50800D01*
X266700Y95250D02*
X260350Y101600D01*
X266700Y95250D02*
X266700Y82550D01*
X260350Y76200D01*
X247650Y76200D02*
X241300Y82550D01*
X241300Y95250D01*
X247650Y101600D01*
X260350Y76200D02*
X266700Y69850D01*
X247650Y76200D02*
X241300Y69850D01*
X241300Y57150D01*
X266700Y133350D02*
X266700Y146050D01*
X266700Y133350D02*
X260350Y127000D01*
X247650Y127000D02*
X241300Y133350D01*
X260350Y127000D02*
X266700Y120650D01*
X266700Y107950D01*
X260350Y101600D01*
X247650Y101600D02*
X241300Y107950D01*
X241300Y120650D01*
X247650Y127000D01*
X247650Y152400D02*
X260350Y152400D01*
X266700Y146050D01*
X247650Y152400D02*
X241300Y146050D01*
X241300Y133350D01*
X247650Y25400D02*
X260350Y25400D01*
D11*
X130000Y158400D02*
X124000Y158400D01*
X124000Y146400D02*
X130000Y146400D01*
D12*
X119507Y160782D02*
X119507Y164592D01*
X120565Y164592D01*
X120629Y164590D01*
X120693Y164584D01*
X120756Y164575D01*
X120818Y164561D01*
X120880Y164544D01*
X120940Y164523D01*
X120999Y164499D01*
X121057Y164471D01*
X121112Y164439D01*
X121166Y164405D01*
X121217Y164367D01*
X121267Y164326D01*
X121313Y164282D01*
X121357Y164236D01*
X121398Y164186D01*
X121436Y164135D01*
X121470Y164081D01*
X121502Y164026D01*
X121530Y163968D01*
X121554Y163909D01*
X121575Y163849D01*
X121592Y163787D01*
X121606Y163725D01*
X121615Y163662D01*
X121621Y163598D01*
X121623Y163534D01*
X121621Y163470D01*
X121615Y163406D01*
X121606Y163343D01*
X121592Y163281D01*
X121575Y163219D01*
X121554Y163159D01*
X121530Y163100D01*
X121502Y163042D01*
X121470Y162987D01*
X121436Y162933D01*
X121398Y162882D01*
X121357Y162832D01*
X121313Y162786D01*
X121267Y162742D01*
X121217Y162701D01*
X121166Y162663D01*
X121112Y162629D01*
X121057Y162597D01*
X120999Y162569D01*
X120940Y162545D01*
X120880Y162524D01*
X120818Y162507D01*
X120756Y162493D01*
X120693Y162484D01*
X120629Y162478D01*
X120565Y162476D01*
X120565Y162475D02*
X119507Y162475D01*
X120777Y162475D02*
X121624Y160782D01*
X123144Y163745D02*
X124202Y164592D01*
X124202Y160782D01*
X123144Y160782D02*
X125260Y160782D01*
X118025Y142367D02*
X116967Y141520D01*
X118025Y142367D02*
X118025Y138557D01*
X116967Y138557D02*
X119084Y138557D01*
X120753Y138557D02*
X120753Y142367D01*
X122446Y141097D02*
X120753Y139827D01*
X121494Y140356D02*
X122446Y138557D01*
D11*
X162100Y26320D02*
X168100Y26320D01*
X168100Y14320D02*
X162100Y14320D01*
D12*
X157607Y28702D02*
X157607Y32512D01*
X158665Y32512D01*
X158729Y32510D01*
X158793Y32504D01*
X158856Y32495D01*
X158918Y32481D01*
X158980Y32464D01*
X159040Y32443D01*
X159099Y32419D01*
X159157Y32391D01*
X159212Y32359D01*
X159266Y32325D01*
X159317Y32287D01*
X159367Y32246D01*
X159413Y32202D01*
X159457Y32156D01*
X159498Y32106D01*
X159536Y32055D01*
X159570Y32001D01*
X159602Y31946D01*
X159630Y31888D01*
X159654Y31829D01*
X159675Y31769D01*
X159692Y31707D01*
X159706Y31645D01*
X159715Y31582D01*
X159721Y31518D01*
X159723Y31454D01*
X159721Y31390D01*
X159715Y31326D01*
X159706Y31263D01*
X159692Y31201D01*
X159675Y31139D01*
X159654Y31079D01*
X159630Y31020D01*
X159602Y30962D01*
X159570Y30907D01*
X159536Y30853D01*
X159498Y30802D01*
X159457Y30752D01*
X159413Y30706D01*
X159367Y30662D01*
X159317Y30621D01*
X159266Y30583D01*
X159212Y30549D01*
X159157Y30517D01*
X159099Y30489D01*
X159040Y30465D01*
X158980Y30444D01*
X158918Y30427D01*
X158856Y30413D01*
X158793Y30404D01*
X158729Y30398D01*
X158665Y30396D01*
X158665Y30395D02*
X157607Y30395D01*
X158877Y30395D02*
X159724Y28702D01*
X163361Y31560D02*
X163359Y31620D01*
X163353Y31679D01*
X163344Y31739D01*
X163331Y31797D01*
X163314Y31854D01*
X163294Y31911D01*
X163270Y31966D01*
X163243Y32019D01*
X163213Y32071D01*
X163179Y32120D01*
X163142Y32167D01*
X163103Y32212D01*
X163060Y32255D01*
X163015Y32294D01*
X162968Y32331D01*
X162919Y32365D01*
X162867Y32395D01*
X162814Y32422D01*
X162759Y32446D01*
X162702Y32466D01*
X162645Y32483D01*
X162587Y32496D01*
X162527Y32505D01*
X162468Y32511D01*
X162408Y32513D01*
X162408Y32512D02*
X162341Y32510D01*
X162274Y32505D01*
X162208Y32496D01*
X162142Y32483D01*
X162078Y32467D01*
X162014Y32447D01*
X161951Y32423D01*
X161889Y32397D01*
X161830Y32367D01*
X161772Y32334D01*
X161715Y32297D01*
X161661Y32258D01*
X161609Y32216D01*
X161560Y32171D01*
X161513Y32123D01*
X161469Y32073D01*
X161427Y32020D01*
X161389Y31965D01*
X161353Y31909D01*
X161321Y31850D01*
X161292Y31790D01*
X161266Y31728D01*
X161244Y31665D01*
X163043Y30819D02*
X163084Y30861D01*
X163123Y30906D01*
X163160Y30952D01*
X163194Y31001D01*
X163225Y31051D01*
X163252Y31103D01*
X163277Y31157D01*
X163299Y31212D01*
X163318Y31268D01*
X163333Y31325D01*
X163345Y31383D01*
X163353Y31442D01*
X163358Y31501D01*
X163360Y31560D01*
X163043Y30819D02*
X161244Y28702D01*
X163360Y28702D01*
X156125Y10287D02*
X155067Y9440D01*
X156125Y10287D02*
X156125Y6477D01*
X155067Y6477D02*
X157184Y6477D01*
X158724Y8382D02*
X158726Y8492D01*
X158732Y8601D01*
X158741Y8710D01*
X158755Y8819D01*
X158772Y8927D01*
X158793Y9035D01*
X158817Y9141D01*
X158846Y9247D01*
X158878Y9352D01*
X158913Y9456D01*
X158952Y9558D01*
X158995Y9659D01*
X159042Y9758D01*
X159062Y9808D01*
X159084Y9857D01*
X159110Y9905D01*
X159139Y9950D01*
X159172Y9993D01*
X159207Y10034D01*
X159245Y10073D01*
X159285Y10108D01*
X159328Y10141D01*
X159373Y10171D01*
X159420Y10198D01*
X159468Y10221D01*
X159518Y10241D01*
X159570Y10257D01*
X159622Y10270D01*
X159675Y10280D01*
X159729Y10285D01*
X159783Y10287D01*
X159837Y10285D01*
X159891Y10280D01*
X159944Y10270D01*
X159996Y10257D01*
X160048Y10241D01*
X160098Y10221D01*
X160146Y10198D01*
X160193Y10171D01*
X160238Y10141D01*
X160281Y10108D01*
X160321Y10073D01*
X160359Y10034D01*
X160394Y9993D01*
X160427Y9950D01*
X160456Y9905D01*
X160482Y9857D01*
X160504Y9808D01*
X160524Y9758D01*
X160571Y9659D01*
X160614Y9558D01*
X160653Y9456D01*
X160688Y9352D01*
X160720Y9247D01*
X160749Y9141D01*
X160773Y9035D01*
X160794Y8927D01*
X160811Y8819D01*
X160825Y8710D01*
X160834Y8601D01*
X160840Y8492D01*
X160842Y8382D01*
X158724Y8382D02*
X158726Y8272D01*
X158732Y8163D01*
X158741Y8054D01*
X158755Y7945D01*
X158772Y7837D01*
X158793Y7729D01*
X158817Y7623D01*
X158846Y7517D01*
X158878Y7412D01*
X158913Y7309D01*
X158952Y7206D01*
X158995Y7105D01*
X159042Y7006D01*
X159062Y6956D01*
X159084Y6907D01*
X159110Y6859D01*
X159139Y6814D01*
X159172Y6771D01*
X159207Y6730D01*
X159245Y6691D01*
X159285Y6656D01*
X159328Y6623D01*
X159373Y6593D01*
X159420Y6566D01*
X159468Y6543D01*
X159518Y6523D01*
X159570Y6507D01*
X159622Y6494D01*
X159675Y6484D01*
X159729Y6479D01*
X159783Y6477D01*
X160523Y7006D02*
X160570Y7105D01*
X160613Y7206D01*
X160652Y7309D01*
X160687Y7412D01*
X160719Y7517D01*
X160748Y7623D01*
X160772Y7729D01*
X160793Y7837D01*
X160810Y7945D01*
X160824Y8054D01*
X160833Y8163D01*
X160839Y8272D01*
X160841Y8382D01*
X160524Y7006D02*
X160504Y6956D01*
X160482Y6907D01*
X160456Y6859D01*
X160427Y6814D01*
X160394Y6771D01*
X160359Y6730D01*
X160321Y6691D01*
X160281Y6656D01*
X160238Y6623D01*
X160193Y6593D01*
X160146Y6566D01*
X160098Y6543D01*
X160048Y6523D01*
X159996Y6507D01*
X159944Y6494D01*
X159891Y6484D01*
X159837Y6479D01*
X159783Y6477D01*
X158936Y7324D02*
X160630Y9440D01*
X162382Y8382D02*
X162384Y8492D01*
X162390Y8601D01*
X162399Y8710D01*
X162413Y8819D01*
X162430Y8927D01*
X162451Y9035D01*
X162475Y9141D01*
X162504Y9247D01*
X162536Y9352D01*
X162571Y9456D01*
X162610Y9558D01*
X162653Y9659D01*
X162700Y9758D01*
X162720Y9808D01*
X162742Y9857D01*
X162768Y9905D01*
X162797Y9950D01*
X162830Y9993D01*
X162865Y10034D01*
X162903Y10073D01*
X162943Y10108D01*
X162986Y10141D01*
X163031Y10171D01*
X163078Y10198D01*
X163126Y10221D01*
X163176Y10241D01*
X163228Y10257D01*
X163280Y10270D01*
X163333Y10280D01*
X163387Y10285D01*
X163441Y10287D01*
X163495Y10285D01*
X163549Y10280D01*
X163602Y10270D01*
X163654Y10257D01*
X163706Y10241D01*
X163756Y10221D01*
X163804Y10198D01*
X163851Y10171D01*
X163896Y10141D01*
X163939Y10108D01*
X163979Y10073D01*
X164017Y10034D01*
X164052Y9993D01*
X164085Y9950D01*
X164114Y9905D01*
X164140Y9857D01*
X164162Y9808D01*
X164182Y9758D01*
X164181Y9758D02*
X164228Y9659D01*
X164271Y9558D01*
X164310Y9456D01*
X164345Y9352D01*
X164377Y9247D01*
X164406Y9141D01*
X164430Y9035D01*
X164451Y8927D01*
X164468Y8819D01*
X164482Y8710D01*
X164491Y8601D01*
X164497Y8492D01*
X164499Y8382D01*
X162382Y8382D02*
X162384Y8272D01*
X162390Y8163D01*
X162399Y8054D01*
X162413Y7945D01*
X162430Y7837D01*
X162451Y7729D01*
X162475Y7623D01*
X162504Y7517D01*
X162536Y7412D01*
X162571Y7309D01*
X162610Y7206D01*
X162653Y7105D01*
X162700Y7006D01*
X162720Y6956D01*
X162742Y6907D01*
X162768Y6859D01*
X162797Y6814D01*
X162830Y6771D01*
X162865Y6730D01*
X162903Y6691D01*
X162943Y6656D01*
X162986Y6623D01*
X163031Y6593D01*
X163078Y6566D01*
X163126Y6543D01*
X163176Y6523D01*
X163228Y6507D01*
X163280Y6494D01*
X163333Y6484D01*
X163387Y6479D01*
X163441Y6477D01*
X164181Y7006D02*
X164228Y7105D01*
X164271Y7206D01*
X164310Y7309D01*
X164345Y7412D01*
X164377Y7517D01*
X164406Y7623D01*
X164430Y7729D01*
X164451Y7837D01*
X164468Y7945D01*
X164482Y8054D01*
X164491Y8163D01*
X164497Y8272D01*
X164499Y8382D01*
X164182Y7006D02*
X164162Y6956D01*
X164140Y6907D01*
X164114Y6859D01*
X164085Y6814D01*
X164052Y6771D01*
X164017Y6730D01*
X163979Y6691D01*
X163939Y6656D01*
X163896Y6623D01*
X163851Y6593D01*
X163804Y6566D01*
X163756Y6543D01*
X163706Y6523D01*
X163654Y6507D01*
X163602Y6494D01*
X163549Y6484D01*
X163495Y6479D01*
X163441Y6477D01*
X162594Y7324D02*
X164287Y9440D01*
X166168Y10287D02*
X166168Y6477D01*
X166168Y7747D02*
X167861Y9017D01*
X166909Y8276D02*
X167861Y6477D01*
D11*
X171800Y47800D02*
X171800Y53800D01*
X183800Y53800D02*
X183800Y47800D01*
D12*
X169418Y43307D02*
X165608Y43307D01*
X165608Y44365D01*
X165610Y44429D01*
X165616Y44493D01*
X165625Y44556D01*
X165639Y44618D01*
X165656Y44680D01*
X165677Y44740D01*
X165701Y44799D01*
X165729Y44857D01*
X165761Y44912D01*
X165795Y44966D01*
X165833Y45017D01*
X165874Y45067D01*
X165918Y45113D01*
X165964Y45157D01*
X166014Y45198D01*
X166065Y45236D01*
X166119Y45270D01*
X166174Y45302D01*
X166232Y45330D01*
X166291Y45354D01*
X166351Y45375D01*
X166413Y45392D01*
X166475Y45406D01*
X166538Y45415D01*
X166602Y45421D01*
X166666Y45423D01*
X166730Y45421D01*
X166794Y45415D01*
X166857Y45406D01*
X166919Y45392D01*
X166981Y45375D01*
X167041Y45354D01*
X167100Y45330D01*
X167158Y45302D01*
X167213Y45270D01*
X167267Y45236D01*
X167318Y45198D01*
X167368Y45157D01*
X167414Y45113D01*
X167458Y45067D01*
X167499Y45017D01*
X167537Y44966D01*
X167571Y44912D01*
X167603Y44857D01*
X167631Y44799D01*
X167655Y44740D01*
X167676Y44680D01*
X167693Y44618D01*
X167707Y44556D01*
X167716Y44493D01*
X167722Y44429D01*
X167724Y44365D01*
X167725Y44365D02*
X167725Y43307D01*
X167725Y44577D02*
X169418Y45424D01*
X169418Y46944D02*
X169418Y48002D01*
X169416Y48066D01*
X169410Y48130D01*
X169401Y48193D01*
X169387Y48255D01*
X169370Y48317D01*
X169349Y48377D01*
X169325Y48436D01*
X169297Y48494D01*
X169265Y48549D01*
X169231Y48603D01*
X169193Y48654D01*
X169152Y48704D01*
X169108Y48750D01*
X169062Y48794D01*
X169012Y48835D01*
X168961Y48873D01*
X168907Y48907D01*
X168852Y48939D01*
X168794Y48967D01*
X168735Y48991D01*
X168675Y49012D01*
X168613Y49029D01*
X168551Y49043D01*
X168488Y49052D01*
X168424Y49058D01*
X168360Y49060D01*
X168296Y49058D01*
X168232Y49052D01*
X168169Y49043D01*
X168107Y49029D01*
X168045Y49012D01*
X167985Y48991D01*
X167926Y48967D01*
X167868Y48939D01*
X167813Y48907D01*
X167759Y48873D01*
X167708Y48835D01*
X167658Y48794D01*
X167612Y48750D01*
X167568Y48704D01*
X167527Y48654D01*
X167489Y48603D01*
X167455Y48549D01*
X167423Y48494D01*
X167395Y48436D01*
X167371Y48377D01*
X167350Y48317D01*
X167333Y48255D01*
X167319Y48193D01*
X167310Y48130D01*
X167304Y48066D01*
X167302Y48002D01*
X165608Y48214D02*
X165608Y46944D01*
X165608Y48214D02*
X165610Y48271D01*
X165616Y48327D01*
X165625Y48383D01*
X165638Y48438D01*
X165655Y48492D01*
X165675Y48545D01*
X165699Y48596D01*
X165726Y48646D01*
X165757Y48693D01*
X165790Y48739D01*
X165827Y48782D01*
X165866Y48823D01*
X165908Y48861D01*
X165953Y48896D01*
X165999Y48928D01*
X166048Y48957D01*
X166098Y48982D01*
X166151Y49004D01*
X166204Y49023D01*
X166259Y49038D01*
X166314Y49049D01*
X166370Y49057D01*
X166427Y49061D01*
X166483Y49061D01*
X166540Y49057D01*
X166596Y49049D01*
X166651Y49038D01*
X166706Y49023D01*
X166759Y49004D01*
X166812Y48982D01*
X166862Y48957D01*
X166911Y48928D01*
X166957Y48896D01*
X167002Y48861D01*
X167044Y48823D01*
X167083Y48782D01*
X167120Y48739D01*
X167153Y48693D01*
X167184Y48646D01*
X167211Y48596D01*
X167235Y48545D01*
X167255Y48492D01*
X167272Y48438D01*
X167285Y48383D01*
X167294Y48327D01*
X167300Y48271D01*
X167302Y48214D01*
X167301Y48214D02*
X167301Y47367D01*
X187833Y41825D02*
X188680Y40767D01*
X187833Y41825D02*
X191643Y41825D01*
X191643Y40767D02*
X191643Y42884D01*
X189738Y44424D02*
X189628Y44426D01*
X189519Y44432D01*
X189410Y44441D01*
X189301Y44455D01*
X189193Y44472D01*
X189085Y44493D01*
X188979Y44517D01*
X188873Y44546D01*
X188768Y44578D01*
X188664Y44613D01*
X188562Y44652D01*
X188461Y44695D01*
X188362Y44742D01*
X188312Y44762D01*
X188263Y44784D01*
X188215Y44810D01*
X188170Y44839D01*
X188127Y44872D01*
X188086Y44907D01*
X188047Y44945D01*
X188012Y44985D01*
X187979Y45028D01*
X187949Y45073D01*
X187922Y45120D01*
X187899Y45168D01*
X187879Y45218D01*
X187863Y45270D01*
X187850Y45322D01*
X187840Y45375D01*
X187835Y45429D01*
X187833Y45483D01*
X187835Y45537D01*
X187840Y45591D01*
X187850Y45644D01*
X187863Y45696D01*
X187879Y45748D01*
X187899Y45798D01*
X187922Y45846D01*
X187949Y45893D01*
X187979Y45938D01*
X188012Y45981D01*
X188047Y46021D01*
X188086Y46059D01*
X188127Y46094D01*
X188170Y46127D01*
X188215Y46156D01*
X188263Y46182D01*
X188312Y46204D01*
X188362Y46224D01*
X188461Y46271D01*
X188562Y46314D01*
X188664Y46353D01*
X188768Y46388D01*
X188873Y46420D01*
X188979Y46449D01*
X189085Y46473D01*
X189193Y46494D01*
X189301Y46511D01*
X189410Y46525D01*
X189519Y46534D01*
X189628Y46540D01*
X189738Y46542D01*
X189738Y44424D02*
X189848Y44426D01*
X189957Y44432D01*
X190066Y44441D01*
X190175Y44455D01*
X190283Y44472D01*
X190391Y44493D01*
X190497Y44517D01*
X190603Y44546D01*
X190708Y44578D01*
X190812Y44613D01*
X190914Y44652D01*
X191015Y44695D01*
X191114Y44742D01*
X191164Y44762D01*
X191213Y44784D01*
X191261Y44810D01*
X191306Y44839D01*
X191349Y44872D01*
X191390Y44907D01*
X191429Y44945D01*
X191464Y44985D01*
X191497Y45028D01*
X191527Y45073D01*
X191554Y45120D01*
X191577Y45168D01*
X191597Y45219D01*
X191613Y45270D01*
X191626Y45322D01*
X191636Y45375D01*
X191641Y45429D01*
X191643Y45483D01*
X191114Y46224D02*
X191015Y46271D01*
X190914Y46314D01*
X190812Y46353D01*
X190708Y46388D01*
X190603Y46420D01*
X190497Y46449D01*
X190391Y46473D01*
X190283Y46494D01*
X190175Y46511D01*
X190066Y46525D01*
X189957Y46534D01*
X189848Y46540D01*
X189738Y46542D01*
X191114Y46224D02*
X191164Y46204D01*
X191213Y46182D01*
X191261Y46156D01*
X191306Y46127D01*
X191349Y46094D01*
X191390Y46059D01*
X191429Y46021D01*
X191464Y45981D01*
X191497Y45938D01*
X191527Y45893D01*
X191554Y45846D01*
X191577Y45798D01*
X191597Y45747D01*
X191613Y45696D01*
X191626Y45644D01*
X191636Y45591D01*
X191641Y45537D01*
X191643Y45483D01*
X190796Y44636D02*
X188680Y46330D01*
X187833Y49246D02*
X187835Y49306D01*
X187841Y49365D01*
X187850Y49425D01*
X187863Y49483D01*
X187880Y49540D01*
X187900Y49597D01*
X187924Y49652D01*
X187951Y49705D01*
X187981Y49757D01*
X188015Y49806D01*
X188052Y49853D01*
X188091Y49898D01*
X188134Y49941D01*
X188179Y49980D01*
X188226Y50017D01*
X188275Y50051D01*
X188327Y50081D01*
X188380Y50108D01*
X188435Y50132D01*
X188492Y50152D01*
X188549Y50169D01*
X188607Y50182D01*
X188667Y50191D01*
X188726Y50197D01*
X188786Y50199D01*
X187833Y49246D02*
X187835Y49179D01*
X187840Y49112D01*
X187849Y49046D01*
X187862Y48980D01*
X187878Y48916D01*
X187898Y48852D01*
X187922Y48789D01*
X187948Y48727D01*
X187978Y48668D01*
X188011Y48610D01*
X188048Y48553D01*
X188087Y48499D01*
X188129Y48447D01*
X188174Y48398D01*
X188222Y48351D01*
X188272Y48307D01*
X188325Y48265D01*
X188380Y48227D01*
X188436Y48191D01*
X188495Y48159D01*
X188555Y48130D01*
X188617Y48104D01*
X188680Y48082D01*
X189527Y49881D02*
X189485Y49923D01*
X189440Y49962D01*
X189394Y49999D01*
X189345Y50033D01*
X189295Y50063D01*
X189243Y50091D01*
X189189Y50116D01*
X189134Y50138D01*
X189078Y50157D01*
X189021Y50172D01*
X188963Y50184D01*
X188904Y50192D01*
X188845Y50197D01*
X188786Y50199D01*
X189526Y49881D02*
X191643Y48082D01*
X191643Y50199D01*
X191643Y51868D02*
X187833Y51868D01*
X189103Y53561D02*
X190373Y51868D01*
X189844Y52609D02*
X191643Y53561D01*
D11*
X168100Y101250D02*
X162100Y101250D01*
X162100Y89250D02*
X168100Y89250D01*
D12*
X157607Y103632D02*
X157607Y107442D01*
X158665Y107442D01*
X158729Y107440D01*
X158793Y107434D01*
X158856Y107425D01*
X158918Y107411D01*
X158980Y107394D01*
X159040Y107373D01*
X159099Y107349D01*
X159157Y107321D01*
X159212Y107289D01*
X159266Y107255D01*
X159317Y107217D01*
X159367Y107176D01*
X159413Y107132D01*
X159457Y107086D01*
X159498Y107036D01*
X159536Y106985D01*
X159570Y106931D01*
X159602Y106876D01*
X159630Y106818D01*
X159654Y106759D01*
X159675Y106699D01*
X159692Y106637D01*
X159706Y106575D01*
X159715Y106512D01*
X159721Y106448D01*
X159723Y106384D01*
X159721Y106320D01*
X159715Y106256D01*
X159706Y106193D01*
X159692Y106131D01*
X159675Y106069D01*
X159654Y106009D01*
X159630Y105950D01*
X159602Y105892D01*
X159570Y105837D01*
X159536Y105783D01*
X159498Y105732D01*
X159457Y105682D01*
X159413Y105636D01*
X159367Y105592D01*
X159317Y105551D01*
X159266Y105513D01*
X159212Y105479D01*
X159157Y105447D01*
X159099Y105419D01*
X159040Y105395D01*
X158980Y105374D01*
X158918Y105357D01*
X158856Y105343D01*
X158793Y105334D01*
X158729Y105328D01*
X158665Y105326D01*
X158665Y105325D02*
X157607Y105325D01*
X158877Y105325D02*
X159724Y103632D01*
X161244Y104479D02*
X162090Y107442D01*
X161244Y104479D02*
X163360Y104479D01*
X162725Y105325D02*
X162725Y103632D01*
X156125Y85217D02*
X155067Y84370D01*
X156125Y85217D02*
X156125Y81407D01*
X155067Y81407D02*
X157184Y81407D01*
X158724Y83312D02*
X158726Y83422D01*
X158732Y83531D01*
X158741Y83640D01*
X158755Y83749D01*
X158772Y83857D01*
X158793Y83965D01*
X158817Y84071D01*
X158846Y84177D01*
X158878Y84282D01*
X158913Y84386D01*
X158952Y84488D01*
X158995Y84589D01*
X159042Y84688D01*
X159062Y84738D01*
X159084Y84787D01*
X159110Y84835D01*
X159139Y84880D01*
X159172Y84923D01*
X159207Y84964D01*
X159245Y85003D01*
X159285Y85038D01*
X159328Y85071D01*
X159373Y85101D01*
X159420Y85128D01*
X159468Y85151D01*
X159518Y85171D01*
X159570Y85187D01*
X159622Y85200D01*
X159675Y85210D01*
X159729Y85215D01*
X159783Y85217D01*
X159837Y85215D01*
X159891Y85210D01*
X159944Y85200D01*
X159996Y85187D01*
X160048Y85171D01*
X160098Y85151D01*
X160146Y85128D01*
X160193Y85101D01*
X160238Y85071D01*
X160281Y85038D01*
X160321Y85003D01*
X160359Y84964D01*
X160394Y84923D01*
X160427Y84880D01*
X160456Y84835D01*
X160482Y84787D01*
X160504Y84738D01*
X160524Y84688D01*
X160571Y84589D01*
X160614Y84488D01*
X160653Y84386D01*
X160688Y84282D01*
X160720Y84177D01*
X160749Y84071D01*
X160773Y83965D01*
X160794Y83857D01*
X160811Y83749D01*
X160825Y83640D01*
X160834Y83531D01*
X160840Y83422D01*
X160842Y83312D01*
X158724Y83312D02*
X158726Y83202D01*
X158732Y83093D01*
X158741Y82984D01*
X158755Y82875D01*
X158772Y82767D01*
X158793Y82659D01*
X158817Y82553D01*
X158846Y82447D01*
X158878Y82342D01*
X158913Y82239D01*
X158952Y82136D01*
X158995Y82035D01*
X159042Y81936D01*
X159062Y81886D01*
X159084Y81837D01*
X159110Y81789D01*
X159139Y81744D01*
X159172Y81701D01*
X159207Y81660D01*
X159245Y81621D01*
X159285Y81586D01*
X159328Y81553D01*
X159373Y81523D01*
X159420Y81496D01*
X159468Y81473D01*
X159518Y81453D01*
X159570Y81437D01*
X159622Y81424D01*
X159675Y81414D01*
X159729Y81409D01*
X159783Y81407D01*
X160523Y81936D02*
X160570Y82035D01*
X160613Y82136D01*
X160652Y82239D01*
X160687Y82342D01*
X160719Y82447D01*
X160748Y82553D01*
X160772Y82659D01*
X160793Y82767D01*
X160810Y82875D01*
X160824Y82984D01*
X160833Y83093D01*
X160839Y83202D01*
X160841Y83312D01*
X160524Y81936D02*
X160504Y81886D01*
X160482Y81837D01*
X160456Y81789D01*
X160427Y81744D01*
X160394Y81701D01*
X160359Y81660D01*
X160321Y81621D01*
X160281Y81586D01*
X160238Y81553D01*
X160193Y81523D01*
X160146Y81496D01*
X160098Y81473D01*
X160048Y81453D01*
X159996Y81437D01*
X159944Y81424D01*
X159891Y81414D01*
X159837Y81409D01*
X159783Y81407D01*
X158936Y82254D02*
X160630Y84370D01*
X162382Y83312D02*
X162384Y83422D01*
X162390Y83531D01*
X162399Y83640D01*
X162413Y83749D01*
X162430Y83857D01*
X162451Y83965D01*
X162475Y84071D01*
X162504Y84177D01*
X162536Y84282D01*
X162571Y84386D01*
X162610Y84488D01*
X162653Y84589D01*
X162700Y84688D01*
X162720Y84738D01*
X162742Y84787D01*
X162768Y84835D01*
X162797Y84880D01*
X162830Y84923D01*
X162865Y84964D01*
X162903Y85003D01*
X162943Y85038D01*
X162986Y85071D01*
X163031Y85101D01*
X163078Y85128D01*
X163126Y85151D01*
X163176Y85171D01*
X163228Y85187D01*
X163280Y85200D01*
X163333Y85210D01*
X163387Y85215D01*
X163441Y85217D01*
X163495Y85215D01*
X163549Y85210D01*
X163602Y85200D01*
X163654Y85187D01*
X163706Y85171D01*
X163756Y85151D01*
X163804Y85128D01*
X163851Y85101D01*
X163896Y85071D01*
X163939Y85038D01*
X163979Y85003D01*
X164017Y84964D01*
X164052Y84923D01*
X164085Y84880D01*
X164114Y84835D01*
X164140Y84787D01*
X164162Y84738D01*
X164182Y84688D01*
X164181Y84688D02*
X164228Y84589D01*
X164271Y84488D01*
X164310Y84386D01*
X164345Y84282D01*
X164377Y84177D01*
X164406Y84071D01*
X164430Y83965D01*
X164451Y83857D01*
X164468Y83749D01*
X164482Y83640D01*
X164491Y83531D01*
X164497Y83422D01*
X164499Y83312D01*
X162382Y83312D02*
X162384Y83202D01*
X162390Y83093D01*
X162399Y82984D01*
X162413Y82875D01*
X162430Y82767D01*
X162451Y82659D01*
X162475Y82553D01*
X162504Y82447D01*
X162536Y82342D01*
X162571Y82239D01*
X162610Y82136D01*
X162653Y82035D01*
X162700Y81936D01*
X162720Y81886D01*
X162742Y81837D01*
X162768Y81789D01*
X162797Y81744D01*
X162830Y81701D01*
X162865Y81660D01*
X162903Y81621D01*
X162943Y81586D01*
X162986Y81553D01*
X163031Y81523D01*
X163078Y81496D01*
X163126Y81473D01*
X163176Y81453D01*
X163228Y81437D01*
X163280Y81424D01*
X163333Y81414D01*
X163387Y81409D01*
X163441Y81407D01*
X164181Y81936D02*
X164228Y82035D01*
X164271Y82136D01*
X164310Y82239D01*
X164345Y82342D01*
X164377Y82447D01*
X164406Y82553D01*
X164430Y82659D01*
X164451Y82767D01*
X164468Y82875D01*
X164482Y82984D01*
X164491Y83093D01*
X164497Y83202D01*
X164499Y83312D01*
X164182Y81936D02*
X164162Y81886D01*
X164140Y81837D01*
X164114Y81789D01*
X164085Y81744D01*
X164052Y81701D01*
X164017Y81660D01*
X163979Y81621D01*
X163939Y81586D01*
X163896Y81553D01*
X163851Y81523D01*
X163804Y81496D01*
X163756Y81473D01*
X163706Y81453D01*
X163654Y81437D01*
X163602Y81424D01*
X163549Y81414D01*
X163495Y81409D01*
X163441Y81407D01*
X162594Y82254D02*
X164287Y84370D01*
X166168Y85217D02*
X166168Y81407D01*
X166168Y82677D02*
X167861Y83947D01*
X166909Y83206D02*
X167861Y81407D01*
D11*
X201470Y89250D02*
X207470Y89250D01*
X207470Y101250D02*
X201470Y101250D01*
D12*
X206210Y86868D02*
X206210Y83058D01*
X206210Y86868D02*
X207268Y86868D01*
X207332Y86866D01*
X207396Y86860D01*
X207459Y86851D01*
X207521Y86837D01*
X207583Y86820D01*
X207643Y86799D01*
X207702Y86775D01*
X207760Y86747D01*
X207815Y86715D01*
X207869Y86681D01*
X207920Y86643D01*
X207970Y86602D01*
X208016Y86558D01*
X208060Y86512D01*
X208101Y86462D01*
X208139Y86411D01*
X208173Y86357D01*
X208205Y86302D01*
X208233Y86244D01*
X208257Y86185D01*
X208278Y86125D01*
X208295Y86063D01*
X208309Y86001D01*
X208318Y85938D01*
X208324Y85874D01*
X208326Y85810D01*
X208324Y85746D01*
X208318Y85682D01*
X208309Y85619D01*
X208295Y85557D01*
X208278Y85495D01*
X208257Y85435D01*
X208233Y85376D01*
X208205Y85318D01*
X208173Y85263D01*
X208139Y85209D01*
X208101Y85158D01*
X208060Y85108D01*
X208016Y85062D01*
X207970Y85018D01*
X207920Y84977D01*
X207869Y84939D01*
X207815Y84905D01*
X207760Y84873D01*
X207702Y84845D01*
X207643Y84821D01*
X207583Y84800D01*
X207521Y84783D01*
X207459Y84769D01*
X207396Y84760D01*
X207332Y84754D01*
X207268Y84752D01*
X207268Y84751D02*
X206210Y84751D01*
X207480Y84751D02*
X208326Y83058D01*
X209846Y83058D02*
X211116Y83058D01*
X211171Y83060D01*
X211227Y83065D01*
X211281Y83074D01*
X211335Y83087D01*
X211388Y83103D01*
X211440Y83122D01*
X211491Y83145D01*
X211540Y83171D01*
X211587Y83201D01*
X211632Y83233D01*
X211674Y83268D01*
X211715Y83306D01*
X211753Y83347D01*
X211788Y83389D01*
X211820Y83434D01*
X211850Y83482D01*
X211876Y83530D01*
X211899Y83581D01*
X211918Y83633D01*
X211934Y83686D01*
X211947Y83740D01*
X211956Y83794D01*
X211961Y83850D01*
X211963Y83905D01*
X211963Y84328D01*
X211961Y84383D01*
X211956Y84439D01*
X211947Y84493D01*
X211934Y84547D01*
X211918Y84600D01*
X211899Y84652D01*
X211876Y84703D01*
X211850Y84752D01*
X211820Y84799D01*
X211788Y84844D01*
X211753Y84886D01*
X211715Y84927D01*
X211674Y84965D01*
X211632Y85000D01*
X211587Y85032D01*
X211540Y85062D01*
X211491Y85088D01*
X211440Y85111D01*
X211388Y85130D01*
X211335Y85146D01*
X211281Y85159D01*
X211227Y85168D01*
X211171Y85173D01*
X211116Y85175D01*
X209846Y85175D01*
X209846Y86868D01*
X211963Y86868D01*
X205173Y107400D02*
X203903Y107400D01*
X205173Y107400D02*
X205228Y107398D01*
X205284Y107393D01*
X205338Y107384D01*
X205392Y107371D01*
X205445Y107355D01*
X205497Y107336D01*
X205548Y107313D01*
X205597Y107287D01*
X205644Y107257D01*
X205689Y107225D01*
X205731Y107190D01*
X205772Y107152D01*
X205810Y107111D01*
X205845Y107069D01*
X205877Y107024D01*
X205907Y106977D01*
X205933Y106928D01*
X205956Y106877D01*
X205975Y106825D01*
X205991Y106772D01*
X206004Y106718D01*
X206013Y106664D01*
X206018Y106608D01*
X206020Y106553D01*
X206020Y106341D01*
X206018Y106277D01*
X206012Y106213D01*
X206003Y106150D01*
X205989Y106088D01*
X205972Y106026D01*
X205951Y105966D01*
X205927Y105907D01*
X205899Y105849D01*
X205867Y105794D01*
X205833Y105740D01*
X205795Y105689D01*
X205754Y105639D01*
X205710Y105593D01*
X205664Y105549D01*
X205614Y105508D01*
X205563Y105470D01*
X205509Y105436D01*
X205454Y105404D01*
X205396Y105376D01*
X205337Y105352D01*
X205277Y105331D01*
X205215Y105314D01*
X205153Y105300D01*
X205090Y105291D01*
X205026Y105285D01*
X204962Y105283D01*
X204898Y105285D01*
X204834Y105291D01*
X204771Y105300D01*
X204709Y105314D01*
X204647Y105331D01*
X204587Y105352D01*
X204528Y105376D01*
X204470Y105404D01*
X204415Y105436D01*
X204361Y105470D01*
X204310Y105508D01*
X204260Y105549D01*
X204214Y105593D01*
X204170Y105639D01*
X204129Y105689D01*
X204091Y105740D01*
X204057Y105794D01*
X204025Y105849D01*
X203997Y105907D01*
X203973Y105966D01*
X203952Y106026D01*
X203935Y106088D01*
X203921Y106150D01*
X203912Y106213D01*
X203906Y106277D01*
X203904Y106341D01*
X203903Y106341D02*
X203903Y107400D01*
X203904Y107400D02*
X203906Y107481D01*
X203912Y107561D01*
X203921Y107641D01*
X203935Y107720D01*
X203952Y107799D01*
X203973Y107877D01*
X203997Y107954D01*
X204025Y108029D01*
X204057Y108103D01*
X204092Y108176D01*
X204131Y108246D01*
X204173Y108315D01*
X204218Y108382D01*
X204266Y108447D01*
X204318Y108509D01*
X204372Y108568D01*
X204429Y108625D01*
X204488Y108679D01*
X204550Y108731D01*
X204615Y108779D01*
X204682Y108824D01*
X204750Y108866D01*
X204821Y108905D01*
X204894Y108940D01*
X204968Y108972D01*
X205043Y109000D01*
X205120Y109024D01*
X205198Y109045D01*
X205277Y109062D01*
X205356Y109076D01*
X205436Y109085D01*
X205516Y109091D01*
X205597Y109093D01*
X207416Y105495D02*
X207416Y105283D01*
X207416Y105495D02*
X207628Y105495D01*
X207628Y105283D01*
X207416Y105283D01*
X211141Y108141D02*
X211139Y108201D01*
X211133Y108260D01*
X211124Y108320D01*
X211111Y108378D01*
X211094Y108435D01*
X211074Y108492D01*
X211050Y108547D01*
X211023Y108600D01*
X210993Y108652D01*
X210959Y108701D01*
X210922Y108748D01*
X210883Y108793D01*
X210840Y108836D01*
X210795Y108875D01*
X210748Y108912D01*
X210699Y108946D01*
X210647Y108976D01*
X210594Y109003D01*
X210539Y109027D01*
X210482Y109047D01*
X210425Y109064D01*
X210367Y109077D01*
X210307Y109086D01*
X210248Y109092D01*
X210188Y109094D01*
X210188Y109093D02*
X210121Y109091D01*
X210054Y109086D01*
X209988Y109077D01*
X209922Y109064D01*
X209858Y109048D01*
X209794Y109028D01*
X209731Y109004D01*
X209669Y108978D01*
X209610Y108948D01*
X209552Y108915D01*
X209495Y108878D01*
X209441Y108839D01*
X209389Y108797D01*
X209340Y108752D01*
X209293Y108704D01*
X209249Y108654D01*
X209207Y108601D01*
X209169Y108546D01*
X209133Y108490D01*
X209101Y108431D01*
X209072Y108371D01*
X209046Y108309D01*
X209024Y108246D01*
X210823Y107400D02*
X210864Y107442D01*
X210903Y107487D01*
X210940Y107533D01*
X210974Y107582D01*
X211005Y107632D01*
X211032Y107684D01*
X211057Y107738D01*
X211079Y107793D01*
X211098Y107849D01*
X211113Y107906D01*
X211125Y107964D01*
X211133Y108023D01*
X211138Y108082D01*
X211140Y108141D01*
X210823Y107400D02*
X209024Y105283D01*
X211140Y105283D01*
X212810Y105283D02*
X212810Y109093D01*
X214503Y107823D02*
X212810Y106553D01*
X213551Y107082D02*
X214503Y105283D01*
D13*
X143994Y38100D02*
X135406Y38100D01*
X135406Y63500D02*
X143994Y63500D01*
X146788Y53484D02*
X146788Y48116D01*
D14*
X129540Y66802D03*
D12*
X161417Y53667D02*
X164169Y53667D01*
X164233Y53669D01*
X164297Y53675D01*
X164360Y53684D01*
X164422Y53698D01*
X164484Y53715D01*
X164544Y53736D01*
X164603Y53760D01*
X164661Y53788D01*
X164716Y53820D01*
X164770Y53854D01*
X164821Y53892D01*
X164871Y53933D01*
X164917Y53977D01*
X164961Y54023D01*
X165002Y54073D01*
X165040Y54124D01*
X165074Y54178D01*
X165106Y54233D01*
X165134Y54291D01*
X165158Y54350D01*
X165179Y54410D01*
X165196Y54472D01*
X165210Y54534D01*
X165219Y54597D01*
X165225Y54661D01*
X165227Y54725D01*
X165225Y54789D01*
X165219Y54853D01*
X165210Y54916D01*
X165196Y54978D01*
X165179Y55040D01*
X165158Y55100D01*
X165134Y55159D01*
X165106Y55217D01*
X165074Y55272D01*
X165040Y55326D01*
X165002Y55377D01*
X164961Y55427D01*
X164917Y55473D01*
X164871Y55517D01*
X164821Y55558D01*
X164770Y55596D01*
X164716Y55630D01*
X164661Y55662D01*
X164603Y55690D01*
X164544Y55714D01*
X164484Y55735D01*
X164422Y55752D01*
X164360Y55766D01*
X164297Y55775D01*
X164233Y55781D01*
X164169Y55783D01*
X164169Y55784D02*
X161417Y55784D01*
X162264Y57446D02*
X161417Y58505D01*
X165227Y58505D01*
X165227Y59563D02*
X165227Y57446D01*
X141732Y18175D02*
X137922Y16905D01*
X137922Y19445D02*
X141732Y18175D01*
X142155Y20620D02*
X142155Y22313D01*
X141732Y23843D02*
X137922Y23843D01*
X137922Y24901D01*
X137924Y24965D01*
X137930Y25029D01*
X137939Y25092D01*
X137953Y25154D01*
X137970Y25216D01*
X137991Y25276D01*
X138015Y25335D01*
X138043Y25393D01*
X138075Y25448D01*
X138109Y25502D01*
X138147Y25553D01*
X138188Y25603D01*
X138232Y25649D01*
X138278Y25693D01*
X138328Y25734D01*
X138379Y25772D01*
X138433Y25806D01*
X138488Y25838D01*
X138546Y25866D01*
X138605Y25890D01*
X138665Y25911D01*
X138727Y25928D01*
X138789Y25942D01*
X138852Y25951D01*
X138916Y25957D01*
X138980Y25959D01*
X139044Y25957D01*
X139108Y25951D01*
X139171Y25942D01*
X139233Y25928D01*
X139295Y25911D01*
X139355Y25890D01*
X139414Y25866D01*
X139472Y25838D01*
X139527Y25806D01*
X139581Y25772D01*
X139632Y25734D01*
X139682Y25693D01*
X139728Y25649D01*
X139772Y25603D01*
X139813Y25553D01*
X139851Y25502D01*
X139885Y25448D01*
X139917Y25393D01*
X139945Y25335D01*
X139969Y25276D01*
X139990Y25216D01*
X140007Y25154D01*
X140021Y25092D01*
X140030Y25029D01*
X140036Y24965D01*
X140038Y24901D01*
X140039Y24901D02*
X140039Y23843D01*
X140039Y25113D02*
X141732Y25960D01*
X141732Y27608D02*
X141732Y29301D01*
X141732Y27608D02*
X137922Y27608D01*
X137922Y29301D01*
X139615Y28878D02*
X139615Y27608D01*
X139615Y32253D02*
X139615Y32888D01*
X141732Y32888D01*
X141732Y31618D01*
X141730Y31560D01*
X141724Y31503D01*
X141714Y31446D01*
X141701Y31389D01*
X141683Y31334D01*
X141662Y31281D01*
X141637Y31228D01*
X141609Y31178D01*
X141577Y31130D01*
X141542Y31083D01*
X141504Y31040D01*
X141463Y30999D01*
X141420Y30961D01*
X141373Y30926D01*
X141325Y30894D01*
X141275Y30866D01*
X141222Y30841D01*
X141169Y30820D01*
X141114Y30802D01*
X141057Y30789D01*
X141000Y30779D01*
X140943Y30773D01*
X140885Y30771D01*
X138769Y30771D01*
X138711Y30773D01*
X138654Y30779D01*
X138597Y30789D01*
X138540Y30802D01*
X138485Y30820D01*
X138432Y30841D01*
X138379Y30866D01*
X138329Y30894D01*
X138281Y30926D01*
X138234Y30961D01*
X138191Y30999D01*
X138150Y31040D01*
X138112Y31083D01*
X138077Y31130D01*
X138045Y31178D01*
X138017Y31228D01*
X137992Y31281D01*
X137971Y31334D01*
X137953Y31389D01*
X137940Y31446D01*
X137930Y31503D01*
X137924Y31560D01*
X137922Y31618D01*
X137922Y32888D01*
X142155Y34397D02*
X142155Y36090D01*
X141732Y37631D02*
X137922Y37631D01*
X140039Y38901D01*
X137922Y40171D01*
X141732Y40171D01*
X141732Y42193D02*
X137922Y42193D01*
X141732Y41770D02*
X141732Y42616D01*
X137922Y42616D02*
X137922Y41770D01*
X141732Y44898D02*
X141732Y45744D01*
X141732Y44898D02*
X141730Y44840D01*
X141724Y44783D01*
X141714Y44726D01*
X141701Y44669D01*
X141683Y44614D01*
X141662Y44561D01*
X141637Y44508D01*
X141609Y44458D01*
X141577Y44410D01*
X141542Y44363D01*
X141504Y44320D01*
X141463Y44279D01*
X141420Y44241D01*
X141373Y44206D01*
X141325Y44174D01*
X141275Y44146D01*
X141222Y44121D01*
X141169Y44100D01*
X141114Y44082D01*
X141057Y44069D01*
X141000Y44059D01*
X140943Y44053D01*
X140885Y44051D01*
X138769Y44051D01*
X138711Y44053D01*
X138654Y44059D01*
X138597Y44069D01*
X138540Y44082D01*
X138485Y44100D01*
X138432Y44121D01*
X138379Y44146D01*
X138329Y44174D01*
X138281Y44206D01*
X138234Y44241D01*
X138191Y44279D01*
X138150Y44320D01*
X138112Y44363D01*
X138077Y44410D01*
X138045Y44458D01*
X138017Y44508D01*
X137992Y44561D01*
X137971Y44614D01*
X137953Y44669D01*
X137940Y44726D01*
X137930Y44783D01*
X137924Y44840D01*
X137922Y44898D01*
X137922Y45744D01*
X141732Y47109D02*
X141732Y48379D01*
X141730Y48434D01*
X141725Y48490D01*
X141716Y48544D01*
X141703Y48598D01*
X141687Y48651D01*
X141668Y48703D01*
X141645Y48754D01*
X141619Y48803D01*
X141589Y48850D01*
X141557Y48895D01*
X141522Y48937D01*
X141484Y48978D01*
X141443Y49016D01*
X141401Y49051D01*
X141356Y49083D01*
X141309Y49113D01*
X141260Y49139D01*
X141209Y49162D01*
X141157Y49181D01*
X141104Y49197D01*
X141050Y49210D01*
X140996Y49219D01*
X140940Y49224D01*
X140885Y49226D01*
X140885Y49225D02*
X140462Y49225D01*
X140462Y49226D02*
X140404Y49224D01*
X140347Y49218D01*
X140290Y49208D01*
X140233Y49195D01*
X140178Y49177D01*
X140125Y49156D01*
X140072Y49131D01*
X140022Y49103D01*
X139974Y49071D01*
X139927Y49036D01*
X139884Y48998D01*
X139843Y48957D01*
X139805Y48914D01*
X139770Y48867D01*
X139738Y48819D01*
X139710Y48769D01*
X139685Y48716D01*
X139664Y48663D01*
X139646Y48608D01*
X139633Y48551D01*
X139623Y48494D01*
X139617Y48437D01*
X139615Y48379D01*
X139615Y47109D01*
X137922Y47109D01*
X137922Y49225D01*
X137922Y51930D02*
X137924Y51990D01*
X137930Y52049D01*
X137939Y52109D01*
X137952Y52167D01*
X137969Y52224D01*
X137989Y52281D01*
X138013Y52336D01*
X138040Y52389D01*
X138070Y52441D01*
X138104Y52490D01*
X138141Y52537D01*
X138180Y52582D01*
X138223Y52625D01*
X138268Y52664D01*
X138315Y52701D01*
X138364Y52735D01*
X138416Y52765D01*
X138469Y52792D01*
X138524Y52816D01*
X138581Y52836D01*
X138638Y52853D01*
X138696Y52866D01*
X138756Y52875D01*
X138815Y52881D01*
X138875Y52883D01*
X137922Y51930D02*
X137924Y51863D01*
X137929Y51796D01*
X137938Y51730D01*
X137951Y51664D01*
X137967Y51600D01*
X137987Y51536D01*
X138011Y51473D01*
X138037Y51411D01*
X138067Y51352D01*
X138100Y51294D01*
X138137Y51237D01*
X138176Y51183D01*
X138218Y51131D01*
X138263Y51082D01*
X138311Y51035D01*
X138361Y50991D01*
X138414Y50949D01*
X138469Y50911D01*
X138525Y50875D01*
X138584Y50843D01*
X138644Y50814D01*
X138706Y50788D01*
X138769Y50766D01*
X139616Y52565D02*
X139574Y52607D01*
X139529Y52646D01*
X139483Y52683D01*
X139434Y52717D01*
X139384Y52747D01*
X139332Y52775D01*
X139278Y52800D01*
X139223Y52822D01*
X139167Y52841D01*
X139110Y52856D01*
X139052Y52868D01*
X138993Y52876D01*
X138934Y52881D01*
X138875Y52883D01*
X139615Y52565D02*
X141732Y50766D01*
X141732Y52883D01*
X141732Y54424D02*
X141732Y55482D01*
X141730Y55546D01*
X141724Y55610D01*
X141715Y55673D01*
X141701Y55735D01*
X141684Y55797D01*
X141663Y55857D01*
X141639Y55916D01*
X141611Y55974D01*
X141579Y56029D01*
X141545Y56083D01*
X141507Y56134D01*
X141466Y56184D01*
X141422Y56230D01*
X141376Y56274D01*
X141326Y56315D01*
X141275Y56353D01*
X141221Y56387D01*
X141166Y56419D01*
X141108Y56447D01*
X141049Y56471D01*
X140989Y56492D01*
X140927Y56509D01*
X140865Y56523D01*
X140802Y56532D01*
X140738Y56538D01*
X140674Y56540D01*
X140610Y56538D01*
X140546Y56532D01*
X140483Y56523D01*
X140421Y56509D01*
X140359Y56492D01*
X140299Y56471D01*
X140240Y56447D01*
X140182Y56419D01*
X140127Y56387D01*
X140073Y56353D01*
X140022Y56315D01*
X139972Y56274D01*
X139926Y56230D01*
X139882Y56184D01*
X139841Y56134D01*
X139803Y56083D01*
X139769Y56029D01*
X139737Y55974D01*
X139709Y55916D01*
X139685Y55857D01*
X139664Y55797D01*
X139647Y55735D01*
X139633Y55673D01*
X139624Y55610D01*
X139618Y55546D01*
X139616Y55482D01*
X137922Y55694D02*
X137922Y54424D01*
X137922Y55694D02*
X137924Y55751D01*
X137930Y55807D01*
X137939Y55863D01*
X137952Y55918D01*
X137969Y55972D01*
X137989Y56025D01*
X138013Y56076D01*
X138040Y56126D01*
X138071Y56173D01*
X138104Y56219D01*
X138141Y56262D01*
X138180Y56303D01*
X138222Y56341D01*
X138267Y56376D01*
X138313Y56408D01*
X138362Y56437D01*
X138412Y56462D01*
X138465Y56484D01*
X138518Y56503D01*
X138573Y56518D01*
X138628Y56529D01*
X138684Y56537D01*
X138741Y56541D01*
X138797Y56541D01*
X138854Y56537D01*
X138910Y56529D01*
X138965Y56518D01*
X139020Y56503D01*
X139073Y56484D01*
X139126Y56462D01*
X139176Y56437D01*
X139225Y56408D01*
X139271Y56376D01*
X139316Y56341D01*
X139358Y56303D01*
X139397Y56262D01*
X139434Y56219D01*
X139467Y56173D01*
X139498Y56126D01*
X139525Y56076D01*
X139549Y56025D01*
X139569Y55972D01*
X139586Y55918D01*
X139599Y55863D01*
X139608Y55807D01*
X139614Y55751D01*
X139616Y55694D01*
X139615Y55694D02*
X139615Y54847D01*
X141732Y58081D02*
X141732Y59351D01*
X141730Y59406D01*
X141725Y59462D01*
X141716Y59516D01*
X141703Y59570D01*
X141687Y59623D01*
X141668Y59675D01*
X141645Y59726D01*
X141619Y59775D01*
X141589Y59822D01*
X141557Y59867D01*
X141522Y59909D01*
X141484Y59950D01*
X141443Y59988D01*
X141401Y60023D01*
X141356Y60055D01*
X141309Y60085D01*
X141260Y60111D01*
X141209Y60134D01*
X141157Y60153D01*
X141104Y60169D01*
X141050Y60182D01*
X140996Y60191D01*
X140940Y60196D01*
X140885Y60198D01*
X140462Y60198D01*
X140404Y60196D01*
X140347Y60190D01*
X140290Y60180D01*
X140233Y60167D01*
X140178Y60149D01*
X140125Y60128D01*
X140072Y60103D01*
X140022Y60075D01*
X139974Y60043D01*
X139927Y60008D01*
X139884Y59970D01*
X139843Y59929D01*
X139805Y59886D01*
X139770Y59839D01*
X139738Y59791D01*
X139710Y59741D01*
X139685Y59688D01*
X139664Y59635D01*
X139646Y59580D01*
X139633Y59523D01*
X139623Y59466D01*
X139617Y59409D01*
X139615Y59351D01*
X139615Y58081D01*
X137922Y58081D01*
X137922Y60198D01*
M02*
