G04 EAGLE Gerber RS-274X export*
G75*
%MOMM*%
%FSLAX34Y34*%
%LPD*%
%INTop Copper*%
%IPPOS*%
%AMOC8*
5,1,8,0,0,1.08239X$1,22.5*%
G01*
%ADD10R,1.200000X0.800000*%
%ADD11R,0.630000X0.830000*%
%ADD12R,0.830000X0.630000*%
%ADD13R,0.950000X0.900000*%
%ADD14R,1.524000X1.524000*%
%ADD15C,1.879600*%
%ADD16R,0.800000X1.200000*%
%ADD17R,1.200000X0.550000*%
%ADD18C,0.330200*%

G36*
X274848Y3814D02*
X274848Y3814D01*
X274867Y3812D01*
X274969Y3834D01*
X275071Y3850D01*
X275088Y3860D01*
X275108Y3864D01*
X275197Y3917D01*
X275288Y3966D01*
X275302Y3980D01*
X275319Y3990D01*
X275386Y4069D01*
X275458Y4144D01*
X275466Y4162D01*
X275479Y4177D01*
X275518Y4273D01*
X275561Y4367D01*
X275563Y4387D01*
X275571Y4405D01*
X275589Y4572D01*
X275589Y165608D01*
X275586Y165628D01*
X275588Y165647D01*
X275566Y165749D01*
X275550Y165851D01*
X275540Y165868D01*
X275536Y165888D01*
X275483Y165977D01*
X275434Y166068D01*
X275420Y166082D01*
X275410Y166099D01*
X275331Y166166D01*
X275256Y166238D01*
X275238Y166246D01*
X275223Y166259D01*
X275127Y166298D01*
X275033Y166341D01*
X275013Y166343D01*
X274995Y166351D01*
X274828Y166369D01*
X32374Y166369D01*
X32284Y166355D01*
X32193Y166347D01*
X32163Y166335D01*
X32131Y166330D01*
X32050Y166287D01*
X31966Y166251D01*
X31934Y166225D01*
X31914Y166214D01*
X31891Y166191D01*
X31835Y166146D01*
X4034Y138344D01*
X3981Y138271D01*
X3921Y138201D01*
X3909Y138171D01*
X3890Y138145D01*
X3863Y138058D01*
X3829Y137973D01*
X3825Y137932D01*
X3818Y137910D01*
X3819Y137877D01*
X3811Y137806D01*
X3811Y80772D01*
X3814Y80752D01*
X3812Y80733D01*
X3834Y80631D01*
X3850Y80529D01*
X3860Y80512D01*
X3864Y80492D01*
X3917Y80403D01*
X3966Y80312D01*
X3980Y80298D01*
X3990Y80281D01*
X4069Y80214D01*
X4144Y80142D01*
X4162Y80134D01*
X4177Y80121D01*
X4273Y80082D01*
X4367Y80039D01*
X4387Y80037D01*
X4405Y80029D01*
X4572Y80011D01*
X14278Y80011D01*
X90256Y4034D01*
X90329Y3981D01*
X90399Y3921D01*
X90429Y3909D01*
X90455Y3890D01*
X90542Y3863D01*
X90627Y3829D01*
X90668Y3825D01*
X90690Y3818D01*
X90723Y3819D01*
X90794Y3811D01*
X274828Y3811D01*
X274848Y3814D01*
G37*
%LPC*%
G36*
X120067Y37025D02*
X120067Y37025D01*
X119191Y37901D01*
X119117Y37954D01*
X119048Y38014D01*
X119018Y38026D01*
X118992Y38045D01*
X118905Y38072D01*
X118820Y38106D01*
X118779Y38110D01*
X118757Y38117D01*
X118724Y38116D01*
X118653Y38124D01*
X111055Y38124D01*
X104646Y44533D01*
X104630Y44545D01*
X104617Y44560D01*
X104530Y44616D01*
X104446Y44677D01*
X104427Y44682D01*
X104410Y44693D01*
X104310Y44718D01*
X104211Y44749D01*
X104191Y44748D01*
X104172Y44753D01*
X104069Y44745D01*
X103965Y44743D01*
X103946Y44736D01*
X103927Y44734D01*
X103832Y44694D01*
X103734Y44658D01*
X103719Y44646D01*
X103700Y44638D01*
X103569Y44533D01*
X103152Y44115D01*
X89888Y44115D01*
X88995Y45008D01*
X88995Y54272D01*
X89888Y55165D01*
X97238Y55165D01*
X97328Y55179D01*
X97419Y55187D01*
X97449Y55199D01*
X97481Y55204D01*
X97562Y55247D01*
X97646Y55283D01*
X97678Y55309D01*
X97698Y55320D01*
X97721Y55343D01*
X97777Y55388D01*
X105865Y63476D01*
X118653Y63476D01*
X118743Y63490D01*
X118834Y63498D01*
X118864Y63510D01*
X118896Y63515D01*
X118977Y63558D01*
X119060Y63594D01*
X119093Y63620D01*
X119113Y63631D01*
X119135Y63654D01*
X119191Y63699D01*
X120067Y64575D01*
X122762Y64575D01*
X122782Y64578D01*
X122801Y64576D01*
X122903Y64598D01*
X123005Y64614D01*
X123022Y64624D01*
X123042Y64628D01*
X123131Y64681D01*
X123222Y64730D01*
X123236Y64744D01*
X123253Y64754D01*
X123320Y64833D01*
X123392Y64908D01*
X123400Y64926D01*
X123413Y64941D01*
X123452Y65037D01*
X123495Y65131D01*
X123497Y65151D01*
X123505Y65169D01*
X123523Y65336D01*
X123523Y77214D01*
X135101Y88792D01*
X135154Y88866D01*
X135214Y88936D01*
X135226Y88966D01*
X135245Y88992D01*
X135272Y89079D01*
X135306Y89164D01*
X135310Y89205D01*
X135317Y89227D01*
X135316Y89259D01*
X135324Y89331D01*
X135324Y95164D01*
X135321Y95182D01*
X135323Y95200D01*
X135323Y95201D01*
X135323Y95203D01*
X135301Y95305D01*
X135285Y95407D01*
X135275Y95424D01*
X135271Y95444D01*
X135218Y95533D01*
X135169Y95624D01*
X135155Y95638D01*
X135145Y95655D01*
X135066Y95722D01*
X134991Y95794D01*
X134973Y95802D01*
X134958Y95815D01*
X134862Y95854D01*
X134768Y95897D01*
X134748Y95899D01*
X134742Y95902D01*
X133825Y96818D01*
X133825Y106382D01*
X134749Y107305D01*
X134806Y107314D01*
X134823Y107324D01*
X134843Y107328D01*
X134932Y107381D01*
X135023Y107430D01*
X135037Y107444D01*
X135054Y107454D01*
X135121Y107533D01*
X135193Y107608D01*
X135201Y107626D01*
X135214Y107641D01*
X135253Y107737D01*
X135296Y107831D01*
X135298Y107851D01*
X135306Y107869D01*
X135324Y108036D01*
X135324Y120564D01*
X135321Y120584D01*
X135323Y120603D01*
X135301Y120705D01*
X135285Y120807D01*
X135275Y120824D01*
X135271Y120844D01*
X135218Y120933D01*
X135169Y121024D01*
X135155Y121038D01*
X135145Y121055D01*
X135066Y121122D01*
X134991Y121194D01*
X134973Y121202D01*
X134958Y121215D01*
X134862Y121254D01*
X134768Y121297D01*
X134748Y121299D01*
X134742Y121302D01*
X133825Y122218D01*
X133825Y131782D01*
X134718Y132675D01*
X142282Y132675D01*
X143175Y131782D01*
X143175Y122218D01*
X142251Y121295D01*
X142194Y121286D01*
X142177Y121276D01*
X142157Y121272D01*
X142068Y121219D01*
X141977Y121170D01*
X141963Y121156D01*
X141946Y121146D01*
X141879Y121067D01*
X141807Y120992D01*
X141799Y120974D01*
X141786Y120959D01*
X141747Y120862D01*
X141704Y120769D01*
X141702Y120749D01*
X141694Y120731D01*
X141676Y120564D01*
X141676Y108036D01*
X141679Y108016D01*
X141677Y107997D01*
X141699Y107895D01*
X141715Y107793D01*
X141725Y107776D01*
X141729Y107756D01*
X141782Y107667D01*
X141831Y107576D01*
X141845Y107562D01*
X141855Y107545D01*
X141934Y107478D01*
X142009Y107406D01*
X142027Y107398D01*
X142042Y107385D01*
X142138Y107346D01*
X142232Y107303D01*
X142252Y107301D01*
X142258Y107298D01*
X143175Y106382D01*
X143175Y105537D01*
X143178Y105517D01*
X143176Y105498D01*
X143198Y105396D01*
X143214Y105294D01*
X143224Y105277D01*
X143228Y105257D01*
X143281Y105168D01*
X143330Y105077D01*
X143344Y105063D01*
X143354Y105046D01*
X143433Y104979D01*
X143508Y104907D01*
X143526Y104899D01*
X143541Y104886D01*
X143637Y104847D01*
X143731Y104804D01*
X143751Y104802D01*
X143769Y104794D01*
X143936Y104776D01*
X151065Y104776D01*
X152843Y102998D01*
X152917Y102945D01*
X152987Y102885D01*
X153017Y102873D01*
X153043Y102854D01*
X153130Y102827D01*
X153215Y102793D01*
X153256Y102789D01*
X153278Y102782D01*
X153310Y102783D01*
X153382Y102775D01*
X160732Y102775D01*
X161625Y101882D01*
X161625Y88618D01*
X160732Y87725D01*
X158877Y87725D01*
X158857Y87722D01*
X158838Y87724D01*
X158736Y87702D01*
X158634Y87686D01*
X158617Y87676D01*
X158597Y87672D01*
X158508Y87619D01*
X158417Y87570D01*
X158403Y87556D01*
X158386Y87546D01*
X158319Y87467D01*
X158247Y87392D01*
X158239Y87374D01*
X158226Y87359D01*
X158187Y87263D01*
X158144Y87169D01*
X158142Y87149D01*
X158134Y87131D01*
X158116Y86964D01*
X158116Y82911D01*
X158130Y82821D01*
X158138Y82730D01*
X158150Y82700D01*
X158155Y82668D01*
X158198Y82587D01*
X158234Y82503D01*
X158260Y82471D01*
X158271Y82451D01*
X158294Y82428D01*
X158339Y82372D01*
X161112Y79599D01*
X161186Y79546D01*
X161256Y79486D01*
X161286Y79474D01*
X161312Y79455D01*
X161399Y79428D01*
X161484Y79394D01*
X161525Y79390D01*
X161547Y79383D01*
X161579Y79384D01*
X161651Y79376D01*
X241345Y79376D01*
X243429Y77292D01*
X247186Y73535D01*
X247281Y73466D01*
X247375Y73397D01*
X247381Y73395D01*
X247386Y73391D01*
X247497Y73357D01*
X247609Y73321D01*
X247615Y73321D01*
X247621Y73319D01*
X247738Y73322D01*
X247855Y73323D01*
X247862Y73325D01*
X247867Y73325D01*
X247884Y73332D01*
X248016Y73370D01*
X250557Y74423D01*
X254903Y74423D01*
X258917Y72760D01*
X261990Y69687D01*
X263653Y65673D01*
X263653Y61327D01*
X261990Y57313D01*
X258917Y54240D01*
X254903Y52577D01*
X250557Y52577D01*
X246543Y54240D01*
X243470Y57313D01*
X241807Y61327D01*
X241807Y65673D01*
X242860Y68214D01*
X242887Y68328D01*
X242915Y68441D01*
X242915Y68448D01*
X242916Y68454D01*
X242905Y68570D01*
X242896Y68687D01*
X242894Y68692D01*
X242893Y68699D01*
X242857Y68780D01*
X242853Y68797D01*
X242839Y68820D01*
X242800Y68913D01*
X242795Y68919D01*
X242793Y68923D01*
X242781Y68937D01*
X242737Y68992D01*
X242727Y69008D01*
X242717Y69017D01*
X242695Y69044D01*
X238938Y72801D01*
X238864Y72854D01*
X238794Y72914D01*
X238764Y72926D01*
X238738Y72945D01*
X238651Y72972D01*
X238566Y73006D01*
X238525Y73010D01*
X238503Y73017D01*
X238471Y73016D01*
X238399Y73024D01*
X158705Y73024D01*
X151764Y79965D01*
X151764Y87114D01*
X151750Y87204D01*
X151742Y87295D01*
X151730Y87325D01*
X151725Y87357D01*
X151682Y87438D01*
X151646Y87521D01*
X151620Y87554D01*
X151609Y87574D01*
X151586Y87596D01*
X151541Y87652D01*
X150575Y88618D01*
X150575Y95968D01*
X150561Y96058D01*
X150553Y96149D01*
X150541Y96179D01*
X150536Y96211D01*
X150493Y96292D01*
X150457Y96376D01*
X150431Y96408D01*
X150420Y96428D01*
X150397Y96451D01*
X150352Y96507D01*
X148658Y98201D01*
X148584Y98254D01*
X148514Y98314D01*
X148484Y98326D01*
X148458Y98345D01*
X148371Y98372D01*
X148286Y98406D01*
X148245Y98410D01*
X148223Y98417D01*
X148191Y98416D01*
X148119Y98424D01*
X143936Y98424D01*
X143916Y98421D01*
X143897Y98423D01*
X143795Y98401D01*
X143693Y98385D01*
X143676Y98375D01*
X143656Y98371D01*
X143567Y98318D01*
X143476Y98269D01*
X143462Y98255D01*
X143445Y98245D01*
X143378Y98166D01*
X143306Y98091D01*
X143298Y98073D01*
X143285Y98058D01*
X143246Y97962D01*
X143203Y97868D01*
X143201Y97848D01*
X143193Y97830D01*
X143175Y97663D01*
X143175Y96818D01*
X142251Y95895D01*
X142194Y95886D01*
X142177Y95876D01*
X142157Y95872D01*
X142068Y95819D01*
X141977Y95770D01*
X141963Y95756D01*
X141946Y95746D01*
X141879Y95667D01*
X141807Y95592D01*
X141799Y95574D01*
X141786Y95559D01*
X141747Y95463D01*
X141704Y95369D01*
X141702Y95349D01*
X141694Y95331D01*
X141676Y95164D01*
X141676Y86385D01*
X130098Y74807D01*
X130045Y74733D01*
X129985Y74663D01*
X129973Y74633D01*
X129954Y74607D01*
X129927Y74520D01*
X129893Y74435D01*
X129889Y74394D01*
X129882Y74372D01*
X129883Y74340D01*
X129875Y74268D01*
X129875Y65336D01*
X129878Y65316D01*
X129876Y65297D01*
X129898Y65195D01*
X129914Y65093D01*
X129924Y65076D01*
X129928Y65056D01*
X129981Y64967D01*
X130030Y64876D01*
X130044Y64862D01*
X130054Y64845D01*
X130133Y64778D01*
X130208Y64706D01*
X130226Y64698D01*
X130241Y64685D01*
X130337Y64646D01*
X130431Y64603D01*
X130451Y64601D01*
X130469Y64593D01*
X130636Y64575D01*
X133331Y64575D01*
X134224Y63682D01*
X134224Y56918D01*
X134092Y56786D01*
X134023Y56691D01*
X133952Y56594D01*
X133950Y56590D01*
X133948Y56587D01*
X133913Y56473D01*
X133877Y56360D01*
X133877Y56355D01*
X133876Y56352D01*
X133879Y56233D01*
X133881Y56114D01*
X133882Y56110D01*
X133882Y56106D01*
X133923Y55995D01*
X133962Y55882D01*
X133965Y55879D01*
X133966Y55875D01*
X134042Y55781D01*
X134114Y55688D01*
X134118Y55685D01*
X134120Y55683D01*
X134132Y55675D01*
X134249Y55589D01*
X134259Y55583D01*
X134732Y55110D01*
X135067Y54531D01*
X135240Y53884D01*
X135240Y52174D01*
X127312Y52174D01*
X127293Y52171D01*
X127273Y52173D01*
X127171Y52151D01*
X127069Y52135D01*
X127052Y52125D01*
X127032Y52121D01*
X126943Y52068D01*
X126852Y52019D01*
X126838Y52005D01*
X126821Y51995D01*
X126754Y51916D01*
X126700Y51859D01*
X126692Y51873D01*
X126678Y51887D01*
X126668Y51904D01*
X126589Y51971D01*
X126514Y52043D01*
X126496Y52051D01*
X126481Y52064D01*
X126384Y52103D01*
X126291Y52146D01*
X126271Y52148D01*
X126253Y52156D01*
X126086Y52174D01*
X118158Y52174D01*
X118158Y53884D01*
X118331Y54531D01*
X118666Y55110D01*
X119139Y55583D01*
X119149Y55589D01*
X119240Y55663D01*
X119334Y55738D01*
X119336Y55742D01*
X119339Y55745D01*
X119401Y55844D01*
X119467Y55945D01*
X119468Y55949D01*
X119470Y55953D01*
X119497Y56068D01*
X119527Y56184D01*
X119526Y56188D01*
X119527Y56192D01*
X119517Y56311D01*
X119508Y56429D01*
X119506Y56433D01*
X119506Y56437D01*
X119458Y56547D01*
X119411Y56655D01*
X119408Y56659D01*
X119407Y56662D01*
X119397Y56673D01*
X119306Y56786D01*
X119191Y56901D01*
X119117Y56954D01*
X119048Y57014D01*
X119018Y57026D01*
X118992Y57045D01*
X118905Y57072D01*
X118820Y57106D01*
X118779Y57110D01*
X118757Y57117D01*
X118724Y57116D01*
X118653Y57124D01*
X108811Y57124D01*
X108721Y57110D01*
X108630Y57102D01*
X108600Y57090D01*
X108568Y57085D01*
X108488Y57042D01*
X108403Y57006D01*
X108371Y56980D01*
X108351Y56969D01*
X108329Y56946D01*
X108326Y56944D01*
X108325Y56943D01*
X108323Y56942D01*
X108272Y56901D01*
X105304Y53933D01*
X105293Y53917D01*
X105277Y53905D01*
X105221Y53817D01*
X105161Y53734D01*
X105155Y53715D01*
X105144Y53698D01*
X105119Y53597D01*
X105089Y53498D01*
X105089Y53479D01*
X105084Y53459D01*
X105092Y53356D01*
X105095Y53253D01*
X105102Y53234D01*
X105103Y53214D01*
X105144Y53119D01*
X105179Y53022D01*
X105192Y53006D01*
X105200Y52988D01*
X105304Y52857D01*
X113462Y44699D01*
X113536Y44646D01*
X113606Y44586D01*
X113636Y44574D01*
X113662Y44555D01*
X113749Y44528D01*
X113834Y44494D01*
X113875Y44490D01*
X113897Y44483D01*
X113929Y44484D01*
X114001Y44476D01*
X118653Y44476D01*
X118743Y44490D01*
X118834Y44498D01*
X118864Y44510D01*
X118896Y44515D01*
X118977Y44558D01*
X119060Y44594D01*
X119093Y44620D01*
X119113Y44631D01*
X119135Y44654D01*
X119191Y44699D01*
X119306Y44814D01*
X119375Y44909D01*
X119446Y45006D01*
X119448Y45010D01*
X119450Y45013D01*
X119485Y45126D01*
X119521Y45240D01*
X119521Y45245D01*
X119522Y45249D01*
X119519Y45367D01*
X119517Y45486D01*
X119516Y45490D01*
X119516Y45494D01*
X119475Y45607D01*
X119436Y45718D01*
X119433Y45721D01*
X119432Y45725D01*
X119357Y45819D01*
X119284Y45912D01*
X119280Y45915D01*
X119278Y45917D01*
X119266Y45925D01*
X119149Y46011D01*
X119139Y46017D01*
X118666Y46490D01*
X118331Y47069D01*
X118158Y47716D01*
X118158Y49426D01*
X126086Y49426D01*
X126105Y49429D01*
X126125Y49427D01*
X126227Y49449D01*
X126329Y49465D01*
X126346Y49475D01*
X126366Y49479D01*
X126455Y49532D01*
X126546Y49581D01*
X126560Y49595D01*
X126577Y49605D01*
X126644Y49684D01*
X126698Y49741D01*
X126706Y49727D01*
X126720Y49713D01*
X126730Y49696D01*
X126809Y49629D01*
X126884Y49557D01*
X126902Y49549D01*
X126917Y49536D01*
X127014Y49497D01*
X127107Y49454D01*
X127127Y49452D01*
X127145Y49444D01*
X127312Y49426D01*
X135240Y49426D01*
X135240Y47716D01*
X135067Y47069D01*
X134732Y46490D01*
X134259Y46017D01*
X134249Y46011D01*
X134158Y45936D01*
X134064Y45862D01*
X134062Y45858D01*
X134059Y45855D01*
X133996Y45756D01*
X133931Y45655D01*
X133930Y45651D01*
X133928Y45647D01*
X133900Y45532D01*
X133871Y45416D01*
X133872Y45412D01*
X133871Y45408D01*
X133881Y45289D01*
X133890Y45171D01*
X133892Y45167D01*
X133892Y45163D01*
X133940Y45055D01*
X133987Y44945D01*
X133990Y44941D01*
X133991Y44938D01*
X134000Y44928D01*
X134092Y44814D01*
X134224Y44682D01*
X134224Y37918D01*
X133331Y37025D01*
X120067Y37025D01*
G37*
%LPD*%
%LPC*%
G36*
X250557Y103377D02*
X250557Y103377D01*
X246543Y105040D01*
X243470Y108113D01*
X241807Y112127D01*
X241807Y116473D01*
X243232Y119912D01*
X243259Y120026D01*
X243287Y120139D01*
X243287Y120146D01*
X243288Y120152D01*
X243277Y120268D01*
X243268Y120385D01*
X243266Y120390D01*
X243265Y120397D01*
X243217Y120504D01*
X243172Y120611D01*
X243167Y120617D01*
X243165Y120621D01*
X243152Y120635D01*
X243067Y120742D01*
X214698Y149111D01*
X214624Y149164D01*
X214554Y149224D01*
X214524Y149236D01*
X214498Y149255D01*
X214411Y149282D01*
X214326Y149316D01*
X214285Y149320D01*
X214263Y149327D01*
X214231Y149326D01*
X214159Y149334D01*
X201326Y149334D01*
X201306Y149331D01*
X201287Y149333D01*
X201185Y149311D01*
X201083Y149295D01*
X201066Y149285D01*
X201046Y149281D01*
X200957Y149228D01*
X200866Y149179D01*
X200852Y149165D01*
X200835Y149155D01*
X200768Y149076D01*
X200696Y149001D01*
X200688Y148983D01*
X200675Y148968D01*
X200636Y148872D01*
X200593Y148778D01*
X200591Y148758D01*
X200583Y148740D01*
X200565Y148573D01*
X200565Y147878D01*
X199672Y146985D01*
X186408Y146985D01*
X185481Y147913D01*
X185476Y147946D01*
X185466Y147963D01*
X185462Y147983D01*
X185409Y148072D01*
X185360Y148163D01*
X185346Y148177D01*
X185336Y148194D01*
X185257Y148261D01*
X185182Y148333D01*
X185164Y148341D01*
X185149Y148354D01*
X185053Y148393D01*
X184959Y148436D01*
X184939Y148438D01*
X184921Y148446D01*
X184754Y148464D01*
X169596Y148464D01*
X169576Y148461D01*
X169557Y148463D01*
X169455Y148441D01*
X169353Y148425D01*
X169336Y148415D01*
X169316Y148411D01*
X169227Y148358D01*
X169136Y148309D01*
X169122Y148295D01*
X169105Y148285D01*
X169038Y148206D01*
X168966Y148131D01*
X168958Y148113D01*
X168945Y148098D01*
X168906Y148002D01*
X168863Y147908D01*
X168861Y147888D01*
X168853Y147870D01*
X168835Y147703D01*
X168835Y146508D01*
X167942Y145615D01*
X157178Y145615D01*
X156285Y146508D01*
X156285Y148463D01*
X156283Y148477D01*
X156284Y148488D01*
X156283Y148493D01*
X156284Y148502D01*
X156262Y148604D01*
X156246Y148706D01*
X156236Y148723D01*
X156232Y148743D01*
X156179Y148832D01*
X156130Y148923D01*
X156116Y148937D01*
X156106Y148954D01*
X156027Y149021D01*
X155952Y149093D01*
X155934Y149101D01*
X155919Y149114D01*
X155823Y149153D01*
X155729Y149196D01*
X155709Y149198D01*
X155691Y149206D01*
X155524Y149224D01*
X142286Y149224D01*
X142266Y149221D01*
X142247Y149223D01*
X142145Y149201D01*
X142043Y149185D01*
X142026Y149175D01*
X142006Y149171D01*
X141917Y149118D01*
X141826Y149069D01*
X141812Y149055D01*
X141795Y149045D01*
X141728Y148966D01*
X141656Y148891D01*
X141648Y148873D01*
X141635Y148858D01*
X141596Y148762D01*
X141553Y148668D01*
X141551Y148648D01*
X141543Y148630D01*
X141525Y148463D01*
X141525Y145768D01*
X140632Y144875D01*
X131368Y144875D01*
X130475Y145768D01*
X130475Y159032D01*
X131368Y159925D01*
X140632Y159925D01*
X141525Y159032D01*
X141525Y156337D01*
X141528Y156317D01*
X141526Y156298D01*
X141548Y156196D01*
X141564Y156094D01*
X141574Y156077D01*
X141578Y156057D01*
X141631Y155968D01*
X141680Y155877D01*
X141694Y155863D01*
X141704Y155846D01*
X141783Y155779D01*
X141858Y155707D01*
X141876Y155699D01*
X141891Y155686D01*
X141987Y155647D01*
X142081Y155604D01*
X142101Y155602D01*
X142119Y155594D01*
X142286Y155576D01*
X155524Y155576D01*
X155544Y155579D01*
X155563Y155577D01*
X155665Y155599D01*
X155767Y155615D01*
X155784Y155625D01*
X155804Y155629D01*
X155893Y155682D01*
X155984Y155731D01*
X155998Y155745D01*
X156015Y155755D01*
X156082Y155834D01*
X156154Y155909D01*
X156162Y155927D01*
X156175Y155942D01*
X156214Y156038D01*
X156257Y156132D01*
X156259Y156152D01*
X156267Y156170D01*
X156285Y156337D01*
X156285Y156772D01*
X157178Y157665D01*
X167942Y157665D01*
X168835Y156772D01*
X168835Y155577D01*
X168838Y155557D01*
X168836Y155538D01*
X168858Y155436D01*
X168874Y155334D01*
X168884Y155317D01*
X168888Y155297D01*
X168941Y155208D01*
X168990Y155117D01*
X169004Y155103D01*
X169014Y155086D01*
X169093Y155019D01*
X169168Y154947D01*
X169186Y154939D01*
X169201Y154926D01*
X169297Y154887D01*
X169391Y154844D01*
X169411Y154842D01*
X169429Y154834D01*
X169596Y154816D01*
X184754Y154816D01*
X184774Y154819D01*
X184793Y154817D01*
X184895Y154839D01*
X184997Y154855D01*
X185014Y154865D01*
X185034Y154869D01*
X185123Y154922D01*
X185214Y154971D01*
X185228Y154985D01*
X185245Y154995D01*
X185312Y155074D01*
X185384Y155149D01*
X185392Y155167D01*
X185405Y155182D01*
X185444Y155278D01*
X185487Y155372D01*
X185489Y155392D01*
X185497Y155410D01*
X185515Y155577D01*
X185515Y157142D01*
X186408Y158035D01*
X199672Y158035D01*
X200565Y157142D01*
X200565Y156447D01*
X200568Y156427D01*
X200566Y156408D01*
X200588Y156306D01*
X200604Y156204D01*
X200614Y156187D01*
X200618Y156167D01*
X200671Y156078D01*
X200720Y155987D01*
X200734Y155973D01*
X200744Y155956D01*
X200823Y155889D01*
X200898Y155817D01*
X200916Y155809D01*
X200931Y155796D01*
X201027Y155757D01*
X201121Y155714D01*
X201141Y155712D01*
X201159Y155704D01*
X201326Y155686D01*
X217105Y155686D01*
X248084Y124707D01*
X248178Y124639D01*
X248273Y124569D01*
X248279Y124567D01*
X248284Y124563D01*
X248395Y124529D01*
X248507Y124493D01*
X248513Y124493D01*
X248519Y124491D01*
X248636Y124494D01*
X248753Y124495D01*
X248760Y124497D01*
X248765Y124497D01*
X248782Y124504D01*
X248914Y124542D01*
X250557Y125223D01*
X254903Y125223D01*
X258917Y123560D01*
X261990Y120487D01*
X263653Y116473D01*
X263653Y112127D01*
X261990Y108113D01*
X258917Y105040D01*
X254903Y103377D01*
X250557Y103377D01*
G37*
%LPD*%
%LPC*%
G36*
X253097Y27177D02*
X253097Y27177D01*
X249083Y28840D01*
X246010Y31913D01*
X244347Y35927D01*
X244347Y40273D01*
X245400Y42814D01*
X245427Y42928D01*
X245455Y43041D01*
X245455Y43048D01*
X245456Y43054D01*
X245445Y43170D01*
X245436Y43287D01*
X245434Y43292D01*
X245433Y43299D01*
X245385Y43406D01*
X245340Y43513D01*
X245335Y43519D01*
X245333Y43523D01*
X245320Y43537D01*
X245235Y43644D01*
X232478Y56401D01*
X232404Y56454D01*
X232334Y56514D01*
X232304Y56526D01*
X232278Y56545D01*
X232191Y56572D01*
X232106Y56606D01*
X232065Y56610D01*
X232043Y56617D01*
X232011Y56616D01*
X231939Y56624D01*
X211486Y56624D01*
X211466Y56621D01*
X211447Y56623D01*
X211345Y56601D01*
X211243Y56585D01*
X211226Y56575D01*
X211206Y56571D01*
X211117Y56518D01*
X211026Y56469D01*
X211012Y56455D01*
X210995Y56445D01*
X210928Y56366D01*
X210856Y56291D01*
X210848Y56273D01*
X210835Y56258D01*
X210796Y56162D01*
X210753Y56068D01*
X210751Y56048D01*
X210743Y56030D01*
X210725Y55863D01*
X210725Y55168D01*
X209832Y54275D01*
X196568Y54275D01*
X195675Y55168D01*
X195675Y55863D01*
X195672Y55883D01*
X195674Y55902D01*
X195652Y56004D01*
X195636Y56106D01*
X195626Y56123D01*
X195622Y56143D01*
X195569Y56232D01*
X195520Y56323D01*
X195506Y56337D01*
X195496Y56354D01*
X195417Y56421D01*
X195342Y56493D01*
X195324Y56501D01*
X195309Y56514D01*
X195213Y56553D01*
X195119Y56596D01*
X195099Y56598D01*
X195081Y56606D01*
X194914Y56624D01*
X186086Y56624D01*
X186066Y56621D01*
X186047Y56623D01*
X185945Y56601D01*
X185843Y56585D01*
X185826Y56575D01*
X185806Y56571D01*
X185717Y56518D01*
X185626Y56469D01*
X185612Y56455D01*
X185595Y56445D01*
X185528Y56366D01*
X185456Y56291D01*
X185448Y56273D01*
X185435Y56258D01*
X185396Y56162D01*
X185353Y56068D01*
X185351Y56048D01*
X185343Y56030D01*
X185325Y55863D01*
X185325Y55168D01*
X184432Y54275D01*
X171168Y54275D01*
X170275Y55168D01*
X170275Y56363D01*
X170274Y56372D01*
X170274Y56376D01*
X170272Y56385D01*
X170274Y56402D01*
X170252Y56504D01*
X170236Y56606D01*
X170226Y56623D01*
X170222Y56643D01*
X170169Y56732D01*
X170120Y56823D01*
X170106Y56837D01*
X170096Y56854D01*
X170017Y56921D01*
X169942Y56993D01*
X169924Y57001D01*
X169909Y57014D01*
X169813Y57053D01*
X169719Y57096D01*
X169699Y57098D01*
X169681Y57106D01*
X169514Y57124D01*
X160747Y57124D01*
X160657Y57110D01*
X160566Y57102D01*
X160536Y57090D01*
X160504Y57085D01*
X160423Y57042D01*
X160340Y57006D01*
X160307Y56980D01*
X160287Y56969D01*
X160265Y56946D01*
X160262Y56944D01*
X160261Y56943D01*
X160259Y56942D01*
X160209Y56901D01*
X159333Y56025D01*
X146069Y56025D01*
X145176Y56918D01*
X145176Y63682D01*
X146069Y64575D01*
X159333Y64575D01*
X160209Y63699D01*
X160283Y63646D01*
X160352Y63586D01*
X160382Y63574D01*
X160408Y63555D01*
X160495Y63528D01*
X160580Y63494D01*
X160621Y63490D01*
X160643Y63483D01*
X160676Y63484D01*
X160747Y63476D01*
X169514Y63476D01*
X169534Y63479D01*
X169553Y63477D01*
X169655Y63499D01*
X169757Y63515D01*
X169774Y63525D01*
X169794Y63529D01*
X169883Y63582D01*
X169974Y63631D01*
X169988Y63645D01*
X170005Y63655D01*
X170072Y63734D01*
X170144Y63809D01*
X170152Y63827D01*
X170165Y63842D01*
X170204Y63938D01*
X170247Y64032D01*
X170249Y64052D01*
X170257Y64070D01*
X170275Y64237D01*
X170275Y64432D01*
X171168Y65325D01*
X184432Y65325D01*
X185325Y64432D01*
X185325Y63737D01*
X185328Y63717D01*
X185326Y63698D01*
X185348Y63596D01*
X185364Y63494D01*
X185374Y63477D01*
X185378Y63457D01*
X185431Y63368D01*
X185480Y63277D01*
X185494Y63263D01*
X185504Y63246D01*
X185583Y63179D01*
X185658Y63107D01*
X185676Y63099D01*
X185691Y63086D01*
X185787Y63047D01*
X185881Y63004D01*
X185901Y63002D01*
X185919Y62994D01*
X186086Y62976D01*
X194914Y62976D01*
X194934Y62979D01*
X194953Y62977D01*
X195055Y62999D01*
X195157Y63015D01*
X195174Y63025D01*
X195194Y63029D01*
X195283Y63082D01*
X195374Y63131D01*
X195388Y63145D01*
X195405Y63155D01*
X195472Y63234D01*
X195544Y63309D01*
X195552Y63327D01*
X195565Y63342D01*
X195604Y63438D01*
X195647Y63532D01*
X195649Y63552D01*
X195657Y63570D01*
X195675Y63737D01*
X195675Y64432D01*
X196568Y65325D01*
X209832Y65325D01*
X210725Y64432D01*
X210725Y63737D01*
X210728Y63717D01*
X210726Y63698D01*
X210748Y63596D01*
X210764Y63494D01*
X210774Y63477D01*
X210778Y63457D01*
X210831Y63368D01*
X210880Y63277D01*
X210894Y63263D01*
X210904Y63246D01*
X210983Y63179D01*
X211058Y63107D01*
X211076Y63099D01*
X211091Y63086D01*
X211187Y63047D01*
X211281Y63004D01*
X211301Y63002D01*
X211319Y62994D01*
X211486Y62976D01*
X234885Y62976D01*
X249726Y48135D01*
X249821Y48067D01*
X249915Y47997D01*
X249921Y47995D01*
X249926Y47991D01*
X250037Y47957D01*
X250149Y47921D01*
X250155Y47921D01*
X250161Y47919D01*
X250278Y47922D01*
X250395Y47923D01*
X250402Y47925D01*
X250407Y47925D01*
X250424Y47932D01*
X250556Y47970D01*
X253097Y49023D01*
X257443Y49023D01*
X261457Y47360D01*
X264530Y44287D01*
X266193Y40273D01*
X266193Y35927D01*
X264530Y31913D01*
X261457Y28840D01*
X257443Y27177D01*
X253097Y27177D01*
G37*
%LPD*%
%LPC*%
G36*
X253097Y77977D02*
X253097Y77977D01*
X249083Y79640D01*
X246010Y82713D01*
X244347Y86727D01*
X244347Y91073D01*
X245400Y93614D01*
X245427Y93728D01*
X245455Y93841D01*
X245455Y93848D01*
X245456Y93854D01*
X245445Y93970D01*
X245436Y94087D01*
X245434Y94092D01*
X245433Y94099D01*
X245385Y94206D01*
X245340Y94313D01*
X245335Y94319D01*
X245333Y94323D01*
X245321Y94337D01*
X245235Y94444D01*
X242748Y96931D01*
X242674Y96984D01*
X242604Y97044D01*
X242574Y97056D01*
X242548Y97075D01*
X242461Y97102D01*
X242376Y97136D01*
X242335Y97140D01*
X242313Y97147D01*
X242281Y97146D01*
X242209Y97154D01*
X236175Y97154D01*
X222428Y110901D01*
X222354Y110954D01*
X222284Y111014D01*
X222254Y111026D01*
X222228Y111045D01*
X222141Y111072D01*
X222056Y111106D01*
X222015Y111110D01*
X221993Y111117D01*
X221961Y111116D01*
X221889Y111124D01*
X204831Y111124D01*
X204741Y111110D01*
X204650Y111102D01*
X204620Y111090D01*
X204588Y111085D01*
X204507Y111042D01*
X204423Y111006D01*
X204391Y110980D01*
X204371Y110969D01*
X204348Y110946D01*
X204292Y110901D01*
X198869Y105478D01*
X198816Y105404D01*
X198756Y105334D01*
X198744Y105304D01*
X198725Y105278D01*
X198698Y105191D01*
X198664Y105106D01*
X198660Y105065D01*
X198653Y105043D01*
X198654Y105011D01*
X198646Y104939D01*
X198646Y103536D01*
X198649Y103516D01*
X198647Y103497D01*
X198669Y103395D01*
X198685Y103293D01*
X198695Y103276D01*
X198699Y103256D01*
X198752Y103167D01*
X198801Y103076D01*
X198815Y103062D01*
X198825Y103045D01*
X198904Y102978D01*
X198979Y102906D01*
X198997Y102898D01*
X199012Y102885D01*
X199108Y102846D01*
X199202Y102803D01*
X199222Y102801D01*
X199240Y102793D01*
X199407Y102775D01*
X200102Y102775D01*
X200995Y101882D01*
X200995Y88618D01*
X200102Y87725D01*
X190838Y87725D01*
X189945Y88618D01*
X189945Y91313D01*
X189942Y91333D01*
X189944Y91352D01*
X189922Y91454D01*
X189906Y91556D01*
X189896Y91573D01*
X189892Y91593D01*
X189839Y91682D01*
X189790Y91773D01*
X189776Y91787D01*
X189766Y91804D01*
X189687Y91871D01*
X189612Y91943D01*
X189594Y91951D01*
X189579Y91964D01*
X189483Y92003D01*
X189389Y92046D01*
X189369Y92048D01*
X189351Y92056D01*
X189184Y92074D01*
X180386Y92074D01*
X180366Y92071D01*
X180347Y92073D01*
X180245Y92051D01*
X180143Y92035D01*
X180126Y92025D01*
X180106Y92021D01*
X180017Y91968D01*
X179926Y91919D01*
X179912Y91905D01*
X179895Y91895D01*
X179828Y91816D01*
X179756Y91741D01*
X179748Y91723D01*
X179735Y91708D01*
X179696Y91612D01*
X179653Y91518D01*
X179651Y91498D01*
X179643Y91480D01*
X179625Y91313D01*
X179625Y88618D01*
X178732Y87725D01*
X169468Y87725D01*
X168575Y88618D01*
X168575Y101882D01*
X169468Y102775D01*
X178732Y102775D01*
X179625Y101882D01*
X179625Y99187D01*
X179628Y99167D01*
X179626Y99148D01*
X179648Y99046D01*
X179664Y98944D01*
X179674Y98927D01*
X179678Y98907D01*
X179731Y98818D01*
X179780Y98727D01*
X179794Y98713D01*
X179804Y98696D01*
X179883Y98629D01*
X179958Y98557D01*
X179976Y98549D01*
X179991Y98536D01*
X180087Y98497D01*
X180181Y98454D01*
X180201Y98452D01*
X180219Y98444D01*
X180386Y98426D01*
X189184Y98426D01*
X189204Y98429D01*
X189223Y98427D01*
X189325Y98449D01*
X189427Y98465D01*
X189444Y98475D01*
X189464Y98479D01*
X189553Y98532D01*
X189644Y98581D01*
X189658Y98595D01*
X189675Y98605D01*
X189742Y98684D01*
X189814Y98759D01*
X189822Y98777D01*
X189835Y98792D01*
X189874Y98888D01*
X189917Y98982D01*
X189919Y99002D01*
X189927Y99020D01*
X189945Y99187D01*
X189945Y101882D01*
X190838Y102775D01*
X191533Y102775D01*
X191553Y102778D01*
X191572Y102776D01*
X191674Y102798D01*
X191776Y102814D01*
X191793Y102824D01*
X191813Y102828D01*
X191902Y102881D01*
X191993Y102930D01*
X192007Y102944D01*
X192024Y102954D01*
X192091Y103033D01*
X192163Y103108D01*
X192171Y103126D01*
X192184Y103141D01*
X192223Y103237D01*
X192266Y103331D01*
X192268Y103351D01*
X192276Y103369D01*
X192294Y103536D01*
X192294Y107885D01*
X201885Y117476D01*
X224835Y117476D01*
X238582Y103729D01*
X238656Y103676D01*
X238726Y103616D01*
X238756Y103604D01*
X238782Y103585D01*
X238869Y103558D01*
X238954Y103524D01*
X238995Y103520D01*
X239017Y103513D01*
X239049Y103514D01*
X239121Y103506D01*
X245155Y103506D01*
X249726Y98935D01*
X249821Y98866D01*
X249915Y98797D01*
X249921Y98795D01*
X249926Y98791D01*
X250037Y98757D01*
X250149Y98721D01*
X250155Y98721D01*
X250161Y98719D01*
X250278Y98722D01*
X250395Y98723D01*
X250402Y98725D01*
X250407Y98725D01*
X250424Y98732D01*
X250556Y98770D01*
X253097Y99823D01*
X257443Y99823D01*
X261457Y98160D01*
X264530Y95087D01*
X266193Y91073D01*
X266193Y86727D01*
X264530Y82713D01*
X261457Y79640D01*
X257443Y77977D01*
X253097Y77977D01*
G37*
%LPD*%
%LPC*%
G36*
X29848Y117855D02*
X29848Y117855D01*
X28955Y118748D01*
X28955Y135252D01*
X29848Y136145D01*
X46352Y136145D01*
X47245Y135252D01*
X47245Y130937D01*
X47248Y130918D01*
X47246Y130900D01*
X47246Y130899D01*
X47246Y130898D01*
X47268Y130796D01*
X47284Y130694D01*
X47294Y130677D01*
X47298Y130657D01*
X47351Y130568D01*
X47400Y130477D01*
X47414Y130463D01*
X47424Y130446D01*
X47503Y130379D01*
X47578Y130307D01*
X47596Y130299D01*
X47611Y130286D01*
X47707Y130247D01*
X47801Y130204D01*
X47821Y130202D01*
X47839Y130194D01*
X48006Y130176D01*
X82464Y130176D01*
X82484Y130179D01*
X82503Y130177D01*
X82605Y130199D01*
X82707Y130215D01*
X82724Y130225D01*
X82744Y130229D01*
X82833Y130282D01*
X82924Y130331D01*
X82938Y130345D01*
X82955Y130355D01*
X83022Y130434D01*
X83094Y130509D01*
X83102Y130527D01*
X83115Y130542D01*
X83154Y130638D01*
X83197Y130732D01*
X83199Y130752D01*
X83207Y130770D01*
X83225Y130937D01*
X83225Y131982D01*
X84118Y132875D01*
X93682Y132875D01*
X94605Y131951D01*
X94614Y131894D01*
X94624Y131877D01*
X94628Y131857D01*
X94681Y131768D01*
X94730Y131677D01*
X94744Y131663D01*
X94754Y131646D01*
X94833Y131579D01*
X94908Y131507D01*
X94926Y131499D01*
X94941Y131486D01*
X95037Y131447D01*
X95131Y131404D01*
X95151Y131402D01*
X95169Y131394D01*
X95336Y131376D01*
X110104Y131376D01*
X110194Y131390D01*
X110285Y131398D01*
X110315Y131410D01*
X110347Y131415D01*
X110428Y131458D01*
X110511Y131494D01*
X110544Y131520D01*
X110564Y131531D01*
X110586Y131554D01*
X110642Y131599D01*
X111749Y132705D01*
X111806Y132714D01*
X111823Y132724D01*
X111843Y132728D01*
X111932Y132781D01*
X112023Y132830D01*
X112037Y132844D01*
X112054Y132854D01*
X112121Y132933D01*
X112193Y133008D01*
X112201Y133026D01*
X112214Y133041D01*
X112253Y133137D01*
X112296Y133231D01*
X112298Y133251D01*
X112306Y133269D01*
X112324Y133436D01*
X112324Y151239D01*
X112365Y151287D01*
X112377Y151317D01*
X112396Y151343D01*
X112423Y151430D01*
X112457Y151515D01*
X112461Y151556D01*
X112468Y151578D01*
X112467Y151610D01*
X112475Y151682D01*
X112475Y159032D01*
X113368Y159925D01*
X122632Y159925D01*
X123525Y159032D01*
X123525Y145768D01*
X122632Y144875D01*
X119437Y144875D01*
X119417Y144872D01*
X119398Y144874D01*
X119296Y144852D01*
X119194Y144836D01*
X119177Y144826D01*
X119157Y144822D01*
X119068Y144769D01*
X118977Y144720D01*
X118963Y144706D01*
X118946Y144696D01*
X118879Y144617D01*
X118807Y144542D01*
X118799Y144524D01*
X118786Y144509D01*
X118747Y144413D01*
X118704Y144319D01*
X118702Y144299D01*
X118694Y144281D01*
X118676Y144114D01*
X118676Y133436D01*
X118679Y133416D01*
X118677Y133397D01*
X118699Y133295D01*
X118715Y133193D01*
X118725Y133176D01*
X118729Y133156D01*
X118782Y133067D01*
X118831Y132976D01*
X118845Y132962D01*
X118855Y132945D01*
X118934Y132878D01*
X119009Y132806D01*
X119027Y132798D01*
X119042Y132785D01*
X119138Y132746D01*
X119232Y132703D01*
X119252Y132701D01*
X119258Y132698D01*
X120175Y131782D01*
X120175Y122218D01*
X119282Y121325D01*
X111718Y121325D01*
X110825Y122218D01*
X110825Y124263D01*
X110822Y124283D01*
X110824Y124302D01*
X110802Y124404D01*
X110786Y124506D01*
X110776Y124523D01*
X110772Y124543D01*
X110719Y124632D01*
X110670Y124723D01*
X110656Y124737D01*
X110646Y124754D01*
X110567Y124821D01*
X110492Y124893D01*
X110474Y124901D01*
X110459Y124914D01*
X110363Y124953D01*
X110269Y124996D01*
X110249Y124998D01*
X110231Y125006D01*
X110064Y125024D01*
X95336Y125024D01*
X95316Y125021D01*
X95297Y125023D01*
X95195Y125001D01*
X95093Y124985D01*
X95076Y124975D01*
X95056Y124971D01*
X94967Y124918D01*
X94876Y124869D01*
X94862Y124855D01*
X94845Y124845D01*
X94778Y124766D01*
X94706Y124691D01*
X94698Y124673D01*
X94685Y124658D01*
X94646Y124562D01*
X94603Y124468D01*
X94601Y124448D01*
X94598Y124442D01*
X93682Y123525D01*
X84118Y123525D01*
X84042Y123601D01*
X83968Y123654D01*
X83899Y123714D01*
X83869Y123726D01*
X83843Y123745D01*
X83756Y123772D01*
X83671Y123806D01*
X83630Y123810D01*
X83608Y123817D01*
X83575Y123816D01*
X83504Y123824D01*
X48006Y123824D01*
X47986Y123821D01*
X47967Y123823D01*
X47865Y123801D01*
X47763Y123785D01*
X47746Y123775D01*
X47726Y123771D01*
X47637Y123718D01*
X47546Y123669D01*
X47532Y123655D01*
X47515Y123645D01*
X47448Y123566D01*
X47376Y123491D01*
X47368Y123473D01*
X47355Y123458D01*
X47316Y123362D01*
X47273Y123268D01*
X47271Y123248D01*
X47263Y123230D01*
X47245Y123063D01*
X47245Y118748D01*
X46352Y117855D01*
X29848Y117855D01*
G37*
%LPD*%
%LPC*%
G36*
X29848Y92455D02*
X29848Y92455D01*
X28955Y93348D01*
X28955Y109852D01*
X29848Y110745D01*
X46352Y110745D01*
X47245Y109852D01*
X47245Y105537D01*
X47248Y105517D01*
X47246Y105498D01*
X47268Y105396D01*
X47284Y105294D01*
X47294Y105277D01*
X47298Y105257D01*
X47351Y105168D01*
X47400Y105077D01*
X47414Y105063D01*
X47424Y105046D01*
X47503Y104979D01*
X47578Y104907D01*
X47596Y104899D01*
X47611Y104886D01*
X47707Y104847D01*
X47801Y104804D01*
X47821Y104802D01*
X47839Y104794D01*
X48006Y104776D01*
X83504Y104776D01*
X83594Y104790D01*
X83685Y104798D01*
X83715Y104810D01*
X83747Y104815D01*
X83828Y104858D01*
X83911Y104894D01*
X83944Y104920D01*
X83964Y104931D01*
X83986Y104954D01*
X84042Y104999D01*
X84118Y105075D01*
X93682Y105075D01*
X93758Y104999D01*
X93832Y104946D01*
X93901Y104886D01*
X93931Y104874D01*
X93957Y104855D01*
X94044Y104828D01*
X94129Y104794D01*
X94170Y104790D01*
X94192Y104783D01*
X94225Y104784D01*
X94296Y104776D01*
X110064Y104776D01*
X110084Y104779D01*
X110103Y104777D01*
X110205Y104799D01*
X110307Y104815D01*
X110324Y104825D01*
X110344Y104829D01*
X110433Y104882D01*
X110524Y104931D01*
X110538Y104945D01*
X110555Y104955D01*
X110622Y105034D01*
X110694Y105109D01*
X110702Y105127D01*
X110715Y105142D01*
X110754Y105238D01*
X110797Y105332D01*
X110799Y105352D01*
X110807Y105370D01*
X110825Y105537D01*
X110825Y106382D01*
X111718Y107275D01*
X119282Y107275D01*
X120175Y106382D01*
X120175Y96818D01*
X119282Y95925D01*
X111718Y95925D01*
X110825Y96818D01*
X110825Y97663D01*
X110822Y97683D01*
X110824Y97702D01*
X110802Y97804D01*
X110786Y97906D01*
X110776Y97923D01*
X110772Y97943D01*
X110719Y98032D01*
X110670Y98123D01*
X110656Y98137D01*
X110646Y98154D01*
X110567Y98221D01*
X110492Y98293D01*
X110474Y98301D01*
X110459Y98314D01*
X110363Y98353D01*
X110269Y98396D01*
X110249Y98398D01*
X110231Y98406D01*
X110064Y98424D01*
X95336Y98424D01*
X95316Y98421D01*
X95297Y98423D01*
X95195Y98401D01*
X95093Y98385D01*
X95076Y98375D01*
X95056Y98371D01*
X94967Y98318D01*
X94876Y98269D01*
X94862Y98255D01*
X94845Y98245D01*
X94778Y98166D01*
X94706Y98091D01*
X94698Y98073D01*
X94685Y98058D01*
X94646Y97962D01*
X94603Y97868D01*
X94601Y97848D01*
X94593Y97830D01*
X94575Y97663D01*
X94575Y96618D01*
X93682Y95725D01*
X84118Y95725D01*
X83225Y96618D01*
X83225Y97663D01*
X83222Y97683D01*
X83224Y97702D01*
X83202Y97804D01*
X83186Y97906D01*
X83176Y97923D01*
X83172Y97943D01*
X83119Y98032D01*
X83070Y98123D01*
X83056Y98137D01*
X83046Y98154D01*
X82967Y98221D01*
X82892Y98293D01*
X82874Y98301D01*
X82859Y98314D01*
X82763Y98353D01*
X82669Y98396D01*
X82649Y98398D01*
X82631Y98406D01*
X82464Y98424D01*
X48006Y98424D01*
X47986Y98421D01*
X47967Y98423D01*
X47865Y98401D01*
X47763Y98385D01*
X47746Y98375D01*
X47726Y98371D01*
X47637Y98318D01*
X47546Y98269D01*
X47532Y98255D01*
X47515Y98245D01*
X47448Y98166D01*
X47376Y98091D01*
X47368Y98073D01*
X47355Y98058D01*
X47316Y97962D01*
X47273Y97868D01*
X47271Y97848D01*
X47263Y97830D01*
X47245Y97663D01*
X47245Y93348D01*
X46352Y92455D01*
X29848Y92455D01*
G37*
%LPD*%
%LPC*%
G36*
X169468Y12795D02*
X169468Y12795D01*
X168575Y13688D01*
X168575Y26952D01*
X169468Y27845D01*
X173363Y27845D01*
X173383Y27848D01*
X173402Y27846D01*
X173504Y27868D01*
X173606Y27884D01*
X173623Y27894D01*
X173643Y27898D01*
X173732Y27951D01*
X173823Y28000D01*
X173837Y28014D01*
X173854Y28024D01*
X173921Y28103D01*
X173993Y28178D01*
X174001Y28196D01*
X174014Y28211D01*
X174053Y28307D01*
X174096Y28401D01*
X174098Y28421D01*
X174106Y28439D01*
X174124Y28606D01*
X174124Y35514D01*
X174121Y35534D01*
X174123Y35553D01*
X174101Y35655D01*
X174085Y35757D01*
X174075Y35774D01*
X174071Y35794D01*
X174018Y35883D01*
X173969Y35974D01*
X173955Y35988D01*
X173945Y36005D01*
X173866Y36072D01*
X173791Y36144D01*
X173773Y36152D01*
X173758Y36165D01*
X173662Y36204D01*
X173568Y36247D01*
X173548Y36249D01*
X173530Y36257D01*
X173363Y36275D01*
X171168Y36275D01*
X170275Y37168D01*
X170275Y37363D01*
X170272Y37383D01*
X170274Y37402D01*
X170252Y37504D01*
X170236Y37606D01*
X170226Y37623D01*
X170222Y37643D01*
X170169Y37732D01*
X170120Y37823D01*
X170106Y37837D01*
X170096Y37854D01*
X170017Y37921D01*
X169942Y37993D01*
X169924Y38001D01*
X169909Y38014D01*
X169813Y38053D01*
X169719Y38096D01*
X169699Y38098D01*
X169681Y38106D01*
X169514Y38124D01*
X160747Y38124D01*
X160657Y38110D01*
X160566Y38102D01*
X160536Y38090D01*
X160504Y38085D01*
X160423Y38042D01*
X160340Y38006D01*
X160307Y37980D01*
X160287Y37969D01*
X160265Y37946D01*
X160209Y37901D01*
X159333Y37025D01*
X146069Y37025D01*
X145176Y37918D01*
X145176Y44682D01*
X146069Y45575D01*
X159333Y45575D01*
X160209Y44699D01*
X160283Y44646D01*
X160352Y44586D01*
X160382Y44574D01*
X160408Y44555D01*
X160495Y44528D01*
X160580Y44494D01*
X160621Y44490D01*
X160643Y44483D01*
X160676Y44484D01*
X160747Y44476D01*
X169514Y44476D01*
X169534Y44479D01*
X169553Y44477D01*
X169655Y44499D01*
X169757Y44515D01*
X169774Y44525D01*
X169794Y44529D01*
X169883Y44582D01*
X169974Y44631D01*
X169988Y44645D01*
X170005Y44655D01*
X170072Y44734D01*
X170144Y44809D01*
X170152Y44827D01*
X170165Y44842D01*
X170204Y44938D01*
X170247Y45032D01*
X170249Y45052D01*
X170257Y45070D01*
X170275Y45237D01*
X170275Y46432D01*
X171168Y47325D01*
X184432Y47325D01*
X185325Y46432D01*
X185325Y37168D01*
X184432Y36275D01*
X181237Y36275D01*
X181217Y36272D01*
X181198Y36274D01*
X181096Y36252D01*
X180994Y36236D01*
X180977Y36226D01*
X180957Y36222D01*
X180868Y36169D01*
X180777Y36120D01*
X180763Y36106D01*
X180746Y36096D01*
X180679Y36017D01*
X180607Y35942D01*
X180599Y35924D01*
X180586Y35909D01*
X180547Y35813D01*
X180504Y35719D01*
X180502Y35699D01*
X180494Y35681D01*
X180476Y35514D01*
X180476Y22205D01*
X179848Y21577D01*
X179795Y21503D01*
X179735Y21433D01*
X179723Y21403D01*
X179704Y21377D01*
X179677Y21290D01*
X179643Y21205D01*
X179639Y21164D01*
X179632Y21142D01*
X179633Y21110D01*
X179625Y21038D01*
X179625Y13688D01*
X178732Y12795D01*
X169468Y12795D01*
G37*
%LPD*%
%LPC*%
G36*
X256793Y141223D02*
X256793Y141223D01*
X256793Y151546D01*
X258066Y151345D01*
X259853Y150764D01*
X261527Y149911D01*
X263048Y148806D01*
X264376Y147478D01*
X265481Y145957D01*
X266334Y144283D01*
X266915Y142496D01*
X267116Y141223D01*
X256793Y141223D01*
G37*
%LPD*%
%LPC*%
G36*
X256793Y138177D02*
X256793Y138177D01*
X267116Y138177D01*
X266915Y136904D01*
X266334Y135117D01*
X265481Y133443D01*
X264376Y131922D01*
X263048Y130594D01*
X261527Y129489D01*
X259853Y128636D01*
X258066Y128055D01*
X256793Y127854D01*
X256793Y138177D01*
G37*
%LPD*%
%LPC*%
G36*
X243424Y141223D02*
X243424Y141223D01*
X243625Y142496D01*
X244206Y144283D01*
X245059Y145957D01*
X246164Y147478D01*
X247492Y148806D01*
X249013Y149911D01*
X250687Y150764D01*
X252474Y151345D01*
X253747Y151546D01*
X253747Y141223D01*
X243424Y141223D01*
G37*
%LPD*%
%LPC*%
G36*
X252474Y128055D02*
X252474Y128055D01*
X250687Y128636D01*
X249013Y129489D01*
X247492Y130594D01*
X246164Y131922D01*
X245059Y133443D01*
X244206Y135117D01*
X243625Y136904D01*
X243424Y138177D01*
X253747Y138177D01*
X253747Y127854D01*
X252474Y128055D01*
G37*
%LPD*%
%LPC*%
G36*
X194563Y136033D02*
X194563Y136033D01*
X194563Y141051D01*
X199374Y141051D01*
X200021Y140878D01*
X200600Y140543D01*
X201073Y140070D01*
X201408Y139491D01*
X201581Y138844D01*
X201581Y136033D01*
X194563Y136033D01*
G37*
%LPD*%
%LPC*%
G36*
X157623Y21843D02*
X157623Y21843D01*
X157623Y28861D01*
X160434Y28861D01*
X161081Y28688D01*
X161660Y28353D01*
X162133Y27880D01*
X162468Y27301D01*
X162641Y26654D01*
X162641Y21843D01*
X157623Y21843D01*
G37*
%LPD*%
%LPC*%
G36*
X214993Y96773D02*
X214993Y96773D01*
X214993Y103791D01*
X217804Y103791D01*
X218451Y103618D01*
X219030Y103283D01*
X219503Y102810D01*
X219838Y102231D01*
X220011Y101584D01*
X220011Y96773D01*
X214993Y96773D01*
G37*
%LPD*%
%LPC*%
G36*
X204723Y43323D02*
X204723Y43323D01*
X204723Y48341D01*
X209534Y48341D01*
X210181Y48168D01*
X210760Y47833D01*
X211233Y47360D01*
X211568Y46781D01*
X211741Y46134D01*
X211741Y43323D01*
X204723Y43323D01*
G37*
%LPD*%
%LPC*%
G36*
X98043Y33163D02*
X98043Y33163D01*
X98043Y38181D01*
X102854Y38181D01*
X103501Y38008D01*
X104080Y37673D01*
X104553Y37200D01*
X104888Y36621D01*
X105061Y35974D01*
X105061Y33163D01*
X98043Y33163D01*
G37*
%LPD*%
%LPC*%
G36*
X214993Y86709D02*
X214993Y86709D01*
X214993Y93727D01*
X220011Y93727D01*
X220011Y88916D01*
X219838Y88269D01*
X219503Y87690D01*
X219030Y87217D01*
X218451Y86882D01*
X217804Y86709D01*
X214993Y86709D01*
G37*
%LPD*%
%LPC*%
G36*
X157623Y11779D02*
X157623Y11779D01*
X157623Y18797D01*
X162641Y18797D01*
X162641Y13986D01*
X162468Y13339D01*
X162133Y12760D01*
X161660Y12287D01*
X161081Y11952D01*
X160434Y11779D01*
X157623Y11779D01*
G37*
%LPD*%
%LPC*%
G36*
X194659Y43323D02*
X194659Y43323D01*
X194659Y46134D01*
X194832Y46781D01*
X195167Y47360D01*
X195640Y47833D01*
X196219Y48168D01*
X196866Y48341D01*
X201677Y48341D01*
X201677Y43323D01*
X194659Y43323D01*
G37*
%LPD*%
%LPC*%
G36*
X87979Y33163D02*
X87979Y33163D01*
X87979Y35974D01*
X88152Y36621D01*
X88487Y37200D01*
X88960Y37673D01*
X89539Y38008D01*
X90186Y38181D01*
X94997Y38181D01*
X94997Y33163D01*
X87979Y33163D01*
G37*
%LPD*%
%LPC*%
G36*
X184499Y136033D02*
X184499Y136033D01*
X184499Y138844D01*
X184672Y139491D01*
X185007Y140070D01*
X185480Y140543D01*
X186059Y140878D01*
X186706Y141051D01*
X191517Y141051D01*
X191517Y136033D01*
X184499Y136033D01*
G37*
%LPD*%
%LPC*%
G36*
X206929Y96773D02*
X206929Y96773D01*
X206929Y101584D01*
X207102Y102231D01*
X207437Y102810D01*
X207910Y103283D01*
X208489Y103618D01*
X209136Y103791D01*
X211947Y103791D01*
X211947Y96773D01*
X206929Y96773D01*
G37*
%LPD*%
%LPC*%
G36*
X149559Y21843D02*
X149559Y21843D01*
X149559Y26654D01*
X149732Y27301D01*
X150067Y27880D01*
X150540Y28353D01*
X151119Y28688D01*
X151766Y28861D01*
X154577Y28861D01*
X154577Y21843D01*
X149559Y21843D01*
G37*
%LPD*%
%LPC*%
G36*
X194563Y127969D02*
X194563Y127969D01*
X194563Y132987D01*
X201581Y132987D01*
X201581Y130176D01*
X201408Y129529D01*
X201073Y128950D01*
X200600Y128477D01*
X200021Y128142D01*
X199374Y127969D01*
X194563Y127969D01*
G37*
%LPD*%
%LPC*%
G36*
X98043Y25099D02*
X98043Y25099D01*
X98043Y30117D01*
X105061Y30117D01*
X105061Y27306D01*
X104888Y26659D01*
X104553Y26080D01*
X104080Y25607D01*
X103501Y25272D01*
X102854Y25099D01*
X98043Y25099D01*
G37*
%LPD*%
%LPC*%
G36*
X204723Y35259D02*
X204723Y35259D01*
X204723Y40277D01*
X211741Y40277D01*
X211741Y37466D01*
X211568Y36819D01*
X211233Y36240D01*
X210760Y35767D01*
X210181Y35432D01*
X209534Y35259D01*
X204723Y35259D01*
G37*
%LPD*%
%LPC*%
G36*
X90186Y25099D02*
X90186Y25099D01*
X89539Y25272D01*
X88960Y25607D01*
X88487Y26080D01*
X88152Y26659D01*
X87979Y27306D01*
X87979Y30117D01*
X94997Y30117D01*
X94997Y25099D01*
X90186Y25099D01*
G37*
%LPD*%
%LPC*%
G36*
X209136Y86709D02*
X209136Y86709D01*
X208489Y86882D01*
X207910Y87217D01*
X207437Y87690D01*
X207102Y88269D01*
X206929Y88916D01*
X206929Y93727D01*
X211947Y93727D01*
X211947Y86709D01*
X209136Y86709D01*
G37*
%LPD*%
%LPC*%
G36*
X151766Y11779D02*
X151766Y11779D01*
X151119Y11952D01*
X150540Y12287D01*
X150067Y12760D01*
X149732Y13339D01*
X149559Y13986D01*
X149559Y18797D01*
X154577Y18797D01*
X154577Y11779D01*
X151766Y11779D01*
G37*
%LPD*%
%LPC*%
G36*
X186706Y127969D02*
X186706Y127969D01*
X186059Y128142D01*
X185480Y128477D01*
X185007Y128950D01*
X184672Y129529D01*
X184499Y130176D01*
X184499Y132987D01*
X191517Y132987D01*
X191517Y127969D01*
X186706Y127969D01*
G37*
%LPD*%
%LPC*%
G36*
X196866Y35259D02*
X196866Y35259D01*
X196219Y35432D01*
X195640Y35767D01*
X195167Y36240D01*
X194832Y36819D01*
X194659Y37466D01*
X194659Y40277D01*
X201677Y40277D01*
X201677Y35259D01*
X196866Y35259D01*
G37*
%LPD*%
%LPC*%
G36*
X164083Y121663D02*
X164083Y121663D01*
X164083Y127181D01*
X167644Y127181D01*
X168291Y127008D01*
X168870Y126673D01*
X169343Y126200D01*
X169678Y125621D01*
X169851Y124974D01*
X169851Y121663D01*
X164083Y121663D01*
G37*
%LPD*%
%LPC*%
G36*
X155269Y121663D02*
X155269Y121663D01*
X155269Y124974D01*
X155442Y125621D01*
X155777Y126200D01*
X156250Y126673D01*
X156829Y127008D01*
X157476Y127181D01*
X161037Y127181D01*
X161037Y121663D01*
X155269Y121663D01*
G37*
%LPD*%
%LPC*%
G36*
X164083Y113099D02*
X164083Y113099D01*
X164083Y118617D01*
X169851Y118617D01*
X169851Y115306D01*
X169678Y114659D01*
X169343Y114080D01*
X168870Y113607D01*
X168291Y113272D01*
X167644Y113099D01*
X164083Y113099D01*
G37*
%LPD*%
%LPC*%
G36*
X157476Y113099D02*
X157476Y113099D01*
X156829Y113272D01*
X156250Y113607D01*
X155777Y114080D01*
X155442Y114659D01*
X155269Y115306D01*
X155269Y118617D01*
X161037Y118617D01*
X161037Y113099D01*
X157476Y113099D01*
G37*
%LPD*%
%LPC*%
G36*
X90423Y78923D02*
X90423Y78923D01*
X90423Y83091D01*
X93384Y83091D01*
X94031Y82918D01*
X94610Y82583D01*
X95083Y82110D01*
X95418Y81531D01*
X95591Y80884D01*
X95591Y78923D01*
X90423Y78923D01*
G37*
%LPD*%
%LPC*%
G36*
X90423Y152723D02*
X90423Y152723D01*
X90423Y156891D01*
X93384Y156891D01*
X94031Y156718D01*
X94610Y156383D01*
X95083Y155910D01*
X95418Y155331D01*
X95591Y154684D01*
X95591Y152723D01*
X90423Y152723D01*
G37*
%LPD*%
%LPC*%
G36*
X82209Y152723D02*
X82209Y152723D01*
X82209Y154684D01*
X82382Y155331D01*
X82717Y155910D01*
X83190Y156383D01*
X83769Y156718D01*
X84416Y156891D01*
X87377Y156891D01*
X87377Y152723D01*
X82209Y152723D01*
G37*
%LPD*%
%LPC*%
G36*
X82209Y78923D02*
X82209Y78923D01*
X82209Y80884D01*
X82382Y81531D01*
X82717Y82110D01*
X83190Y82583D01*
X83769Y82918D01*
X84416Y83091D01*
X87377Y83091D01*
X87377Y78923D01*
X82209Y78923D01*
G37*
%LPD*%
%LPC*%
G36*
X90423Y145509D02*
X90423Y145509D01*
X90423Y149677D01*
X95591Y149677D01*
X95591Y147716D01*
X95418Y147069D01*
X95083Y146490D01*
X94610Y146017D01*
X94031Y145682D01*
X93384Y145509D01*
X90423Y145509D01*
G37*
%LPD*%
%LPC*%
G36*
X90423Y71709D02*
X90423Y71709D01*
X90423Y75877D01*
X95591Y75877D01*
X95591Y73916D01*
X95418Y73269D01*
X95083Y72690D01*
X94610Y72217D01*
X94031Y71882D01*
X93384Y71709D01*
X90423Y71709D01*
G37*
%LPD*%
%LPC*%
G36*
X84416Y71709D02*
X84416Y71709D01*
X83769Y71882D01*
X83190Y72217D01*
X82717Y72690D01*
X82382Y73269D01*
X82209Y73916D01*
X82209Y75877D01*
X87377Y75877D01*
X87377Y71709D01*
X84416Y71709D01*
G37*
%LPD*%
%LPC*%
G36*
X84416Y145509D02*
X84416Y145509D01*
X83769Y145682D01*
X83190Y146017D01*
X82717Y146490D01*
X82382Y147069D01*
X82209Y147716D01*
X82209Y149677D01*
X87377Y149677D01*
X87377Y145509D01*
X84416Y145509D01*
G37*
%LPD*%
%LPC*%
G36*
X255269Y139699D02*
X255269Y139699D01*
X255269Y139701D01*
X255271Y139701D01*
X255271Y139699D01*
X255269Y139699D01*
G37*
%LPD*%
%LPC*%
G36*
X96519Y31639D02*
X96519Y31639D01*
X96519Y31641D01*
X96521Y31641D01*
X96521Y31639D01*
X96519Y31639D01*
G37*
%LPD*%
%LPC*%
G36*
X213469Y95249D02*
X213469Y95249D01*
X213469Y95251D01*
X213471Y95251D01*
X213471Y95249D01*
X213469Y95249D01*
G37*
%LPD*%
%LPC*%
G36*
X203199Y41799D02*
X203199Y41799D01*
X203199Y41801D01*
X203201Y41801D01*
X203201Y41799D01*
X203199Y41799D01*
G37*
%LPD*%
%LPC*%
G36*
X162559Y120139D02*
X162559Y120139D01*
X162559Y120141D01*
X162561Y120141D01*
X162561Y120139D01*
X162559Y120139D01*
G37*
%LPD*%
%LPC*%
G36*
X193039Y134509D02*
X193039Y134509D01*
X193039Y134511D01*
X193041Y134511D01*
X193041Y134509D01*
X193039Y134509D01*
G37*
%LPD*%
%LPC*%
G36*
X156099Y20319D02*
X156099Y20319D01*
X156099Y20321D01*
X156101Y20321D01*
X156101Y20319D01*
X156099Y20319D01*
G37*
%LPD*%
%LPC*%
G36*
X88899Y77399D02*
X88899Y77399D01*
X88899Y77401D01*
X88901Y77401D01*
X88901Y77399D01*
X88899Y77399D01*
G37*
%LPD*%
%LPC*%
G36*
X88899Y151199D02*
X88899Y151199D01*
X88899Y151201D01*
X88901Y151201D01*
X88901Y151199D01*
X88899Y151199D01*
G37*
%LPD*%
D10*
X193040Y152510D03*
X193040Y134510D03*
X203200Y59800D03*
X203200Y41800D03*
X96520Y49640D03*
X96520Y31640D03*
D11*
X138500Y101600D03*
X115500Y101600D03*
X138500Y127000D03*
X115500Y127000D03*
D12*
X88900Y100400D03*
X88900Y77400D03*
X88900Y128200D03*
X88900Y151200D03*
D13*
X162560Y151640D03*
X162560Y120140D03*
D14*
X38100Y101600D03*
X38100Y127000D03*
D15*
X255270Y139700D03*
X252730Y114300D03*
X255270Y88900D03*
X252730Y63500D03*
X255270Y38100D03*
D16*
X118000Y152400D03*
X136000Y152400D03*
X156100Y20320D03*
X174100Y20320D03*
D10*
X177800Y41800D03*
X177800Y59800D03*
D16*
X156100Y95250D03*
X174100Y95250D03*
X213470Y95250D03*
X195470Y95250D03*
D17*
X126699Y60300D03*
X126699Y50800D03*
X126699Y41300D03*
X152701Y41300D03*
X152701Y60300D03*
D18*
X87700Y101600D02*
X38100Y101600D01*
X87700Y101600D02*
X88900Y100400D01*
X90100Y101600D01*
X115500Y101600D01*
X87700Y127000D02*
X38100Y127000D01*
X87700Y127000D02*
X88900Y128200D01*
X114300Y128200D01*
X115500Y127000D01*
X115500Y149900D02*
X118000Y152400D01*
X115500Y149900D02*
X115500Y127000D01*
X136000Y152400D02*
X161800Y152400D01*
X162560Y151640D01*
X192170Y151640D01*
X193040Y152510D01*
X215790Y152510D01*
X252730Y115570D02*
X252730Y114300D01*
X252730Y115570D02*
X215790Y152510D01*
X126699Y60300D02*
X107180Y60300D01*
X96520Y49640D01*
X112370Y41300D02*
X126699Y41300D01*
X104030Y49640D02*
X96520Y49640D01*
X104030Y49640D02*
X112370Y41300D01*
X138500Y101600D02*
X138500Y127000D01*
X138500Y101600D02*
X149750Y101600D01*
X156100Y95250D01*
X154940Y94090D02*
X154940Y81280D01*
X154940Y94090D02*
X156100Y95250D01*
X138500Y101600D02*
X138500Y87700D01*
X126699Y75899D02*
X126699Y60300D01*
X126699Y75899D02*
X138500Y87700D01*
X154940Y81280D02*
X160020Y76200D01*
X240030Y76200D02*
X252730Y63500D01*
X240030Y76200D02*
X160020Y76200D01*
X174100Y95250D02*
X195470Y95250D01*
X195470Y106570D01*
X203200Y114300D01*
X223520Y114300D01*
X237490Y100330D01*
X243840Y100330D01*
X255270Y88900D01*
X177300Y60300D02*
X152701Y60300D01*
X177300Y60300D02*
X177800Y59800D01*
X203200Y59800D01*
X233570Y59800D01*
X255270Y38100D01*
X177300Y41300D02*
X152701Y41300D01*
X177300Y41300D02*
X177800Y41800D01*
X177300Y23520D02*
X174100Y20320D01*
X177300Y23520D02*
X177300Y41300D01*
M02*
