999
dxflib 3.17.0.0
  0
SECTION
  2
HEADER
  9
$ACADVER
  1
AC1015
  9
$HANDSEED
  5
FFFF
  9
$DIMADEC
 70
0
  9
$DIMASZ
 40
2.5
  9
$DIMAUNIT
 70
0
  9
$DIMAZIN
 70
2
  9
$DIMDEC
 70
4
  9
$DIMDLI
 40
5.0
  9
$DIMDSEP
 70
46
  9
$DIMEXE
 40
1.25
  9
$DIMEXO
 40
0.625
  9
$DIMGAP
 40
0.625
  9
$DIMLUNIT
 70
2
  9
$DIMSCALE
 40
1.0
  9
$DIMTSZ
 40
0.0
  9
$DIMTXT
 40
2.5
  9
$DIMZIN
 70
8
  9
$DWGCODEPAGE
  3
ANSI_1252
  9
$INSUNITS
 70
4
  9
$LTSCALE
 40
1.0
  9
$MAXACTVP
 70
64
  9
$MEASUREMENT
 70
1
  9
$PDMODE
 70
0
  9
$PDSIZE
 40
0.0
  0
ENDSEC
  0
SECTION
  2
TABLES
  0
TABLE
  2
VPORT
  5
8
100
AcDbSymbolTable
 70
1
  0
VPORT
  5
30
100
AcDbSymbolTableRecord
100
AcDbViewportTableRecord
  2
*Active
 70
0
 10
0.0
 20
0.0
 11
1.0
 21
1.0
 12
286.3055555555554861
 22
148.5
 13
0.0
 23
0.0
 14
10.0
 24
10.0
 15
10.0
 25
10.0
 16
0.0
 26
0.0
 36
1.0
 17
0.0
 27
0.0
 37
0.0
 40
297.0
 41
1.92798353909465
 42
50.0
 43
0.0
 44
0.0
 50
0.0
 51
0.0
 71
0
 72
100
 73
1
 74
3
 75
1
 76
1
 77
0
 78
0
281
0
 65
1
110
0.0
120
0.0
130
0.0
111
1.0
121
0.0
131
0.0
112
0.0
122
1.0
132
0.0
 79
0
146
0.0
  0
ENDTAB
  0
TABLE
  2
LTYPE
  5
5
100
AcDbSymbolTable
 70
41
  0
LTYPE
  5
16
100
AcDbSymbolTableRecord
100
AcDbLinetypeTableRecord
  2
Continuous
 70
0
  3
Solid line
 72
65
 73
0
 40
0.0
  0
LTYPE
  5
31
100
AcDbSymbolTableRecord
100
AcDbLinetypeTableRecord
  2
HIDDEN
 70
0
  3
Hidden __ __ __ __ __ __ __ __ __ __ __ __ __ __
 72
65
 73
2
 40
9.5249999999999986
 49
6.3499999999999996
 74
0
 49
-3.1749999999999998
 74
0
  0
LTYPE
  5
32
100
AcDbSymbolTableRecord
100
AcDbLinetypeTableRecord
  2
ACAD_ISO07W100
 70
0
  3
ISO dot . . . . . . . . . . . . . . . . . . . . 
 72
65
 73
2
 40
3.0
 49
0.1
 74
0
 49
-2.8999999999999999
 74
0
  0
LTYPE
  5
33
100
AcDbSymbolTableRecord
100
AcDbLinetypeTableRecord
  2
ACAD_ISO12W100
 70
0
  3
ISO dash double-dot __ . . __ . . __ . . __ . . 
 72
65
 73
6
 40
21.0
 49
12.0
 74
0
 49
-2.9500000000000002
 74
0
 49
0.1
 74
0
 49
-2.9000000000000004
 74
0
 49
0.1
 74
0
 49
-2.9500000000000002
 74
0
  0
LTYPE
  5
34
100
AcDbSymbolTableRecord
100
AcDbLinetypeTableRecord
  2
DIVIDE
 70
0
  3
Divide ____ . . ____ . . ____ . . ____ . . ____
 72
65
 73
6
 40
31.7500000000000036
 49
12.6999999999999993
 74
0
 49
-6.2999999999999998
 74
0
 49
0.1
 74
0
 49
-6.25
 74
0
 49
0.1
 74
0
 49
-6.2999999999999998
 74
0
  0
LTYPE
  5
35
100
AcDbSymbolTableRecord
100
AcDbLinetypeTableRecord
  2
DASHDOT
 70
0
  3
Dash dot __ . __ . __ . __ . __ . __ . __ . __
 72
65
 73
4
 40
25.4000000000000021
 49
12.6999999999999993
 74
0
 49
-6.2999999999999998
 74
0
 49
0.1
 74
0
 49
-6.2999999999999998
 74
0
  0
LTYPE
  5
36
100
AcDbSymbolTableRecord
100
AcDbLinetypeTableRecord
  2
ACAD_ISO04W100
 70
0
  3
ISO long-dash dot ____ . ____ . ____ . ____ . _
 72
65
 73
4
 40
30.0
 49
24.0
 74
0
 49
-2.9500000000000002
 74
0
 49
0.1
 74
0
 49
-2.9500000000000002
 74
0
  0
LTYPE
  5
37
100
AcDbSymbolTableRecord
100
AcDbLinetypeTableRecord
  2
PHANTOMX2
 70
0
  3
Phantom (2x) ____________    ____    ____   _
 72
65
 73
6
 40
127.0000000000000142
 49
63.5
 74
0
 49
-12.6999999999999993
 74
0
 49
12.6999999999999993
 74
0
 49
-12.6999999999999993
 74
0
 49
12.6999999999999993
 74
0
 49
-12.6999999999999993
 74
0
  0
LTYPE
  5
38
100
AcDbSymbolTableRecord
100
AcDbLinetypeTableRecord
  2
ACAD_ISO10W100
 70
0
  3
ISO dash dot __ . __ . __ . __ . __ . __ . __ . 
 72
65
 73
4
 40
18.0
 49
12.0
 74
0
 49
-2.9500000000000002
 74
0
 49
0.1
 74
0
 49
-2.9500000000000002
 74
0
  0
LTYPE
  5
39
100
AcDbSymbolTableRecord
100
AcDbLinetypeTableRecord
  2
DASHDOTX2
 70
0
  3
Dash dot (2x) ____  .  ____  .  ____  .  ___
 72
65
 73
4
 40
50.7999999999999972
 49
25.3999999999999986
 74
0
 49
-12.6499999999999986
 74
0
 49
0.1
 74
0
 49
-12.6499999999999986
 74
0
  0
LTYPE
  5
3A
100
AcDbSymbolTableRecord
100
AcDbLinetypeTableRecord
  2
DOT
 70
0
  3
Dot . . . . . . . . . . . . . . . . . . . . . . . .
 72
65
 73
2
 40
6.3499999999999996
 49
0.1
 74
0
 49
-6.25
 74
0
  0
LTYPE
  5
3B
100
AcDbSymbolTableRecord
100
AcDbLinetypeTableRecord
  2
DASHED2
 70
0
  3
Dashed (.5x) _ _ _ _ _ _ _ _ _ _ _ _ _ _ _ _ _ 
 72
65
 73
2
 40
9.5249999999999986
 49
6.3499999999999996
 74
0
 49
-3.1749999999999998
 74
0
  0
LTYPE
  5
3C
100
AcDbSymbolTableRecord
100
AcDbLinetypeTableRecord
  2
ACAD_ISO11W100
 70
0
  3
ISO double-dash dot __ __ . __ __ . __ __ . __ _
 72
65
 73
6
 40
33.0
 49
12.0
 74
0
 49
-3.0
 74
0
 49
12.0
 74
0
 49
-2.9500000000000002
 74
0
 49
0.1
 74
0
 49
-2.9500000000000002
 74
0
  0
LTYPE
  5
3D
100
AcDbSymbolTableRecord
100
AcDbLinetypeTableRecord
  2
DIVIDEX2
 70
0
  3
Divide (2x) ________  .  .  ________  .  .  _
 72
65
 73
6
 40
63.5
 49
25.3999999999999986
 74
0
 49
-12.6499999999999986
 74
0
 49
0.1
 74
0
 49
-12.5999999999999979
 74
0
 49
0.1
 74
0
 49
-12.6499999999999986
 74
0
  0
LTYPE
  5
15
100
AcDbSymbolTableRecord
100
AcDbLinetypeTableRecord
  2
BYLAYER
 70
0
  3

 72
65
 73
0
 40
0.0
  0
LTYPE
  5
14
100
AcDbSymbolTableRecord
100
AcDbLinetypeTableRecord
  2
BYBLOCK
 70
0
  3

 72
65
 73
0
 40
0.0
  0
LTYPE
  5
3E
100
AcDbSymbolTableRecord
100
AcDbLinetypeTableRecord
  2
CENTER2
 70
0
  3
Center (.5x) ___ _ ___ _ ___ _ ___ _ ___ _ ___
 72
65
 73
4
 40
28.5750000000000028
 49
19.0500000000000007
 74
0
 49
-3.1749999999999998
 74
0
 49
3.1749999999999998
 74
0
 49
-3.1749999999999998
 74
0
  0
LTYPE
  5
3F
100
AcDbSymbolTableRecord
100
AcDbLinetypeTableRecord
  2
ACAD_ISO14W100
 70
0
  3
ISO dash triple-dot __ . . . __ . . . __ . . . _
 72
65
 73
8
 40
24.0000000000000036
 49
12.0
 74
0
 49
-2.9500000000000002
 74
0
 49
0.1
 74
0
 49
-2.9000000000000004
 74
0
 49
0.1
 74
0
 49
-2.9000000000000004
 74
0
 49
0.1
 74
0
 49
-2.9500000000000002
 74
0
  0
LTYPE
  5
40
100
AcDbSymbolTableRecord
100
AcDbLinetypeTableRecord
  2
BORDER2
 70
0
  3
Border (.5x) __.__.__.__.__.__.__.__.__.__.__.
 72
65
 73
6
 40
22.2250000000000014
 49
6.3499999999999996
 74
0
 49
-3.1749999999999998
 74
0
 49
6.3499999999999996
 74
0
 49
-3.125
 74
0
 49
0.1
 74
0
 49
-3.125
 74
0
  0
LTYPE
  5
41
100
AcDbSymbolTableRecord
100
AcDbLinetypeTableRecord
  2
DASHDOT2
 70
0
  3
Dash dot (.5x) _._._._._._._._._._._._._._._.
 72
65
 73
4
 40
12.6999999999999993
 49
6.3499999999999996
 74
0
 49
-3.125
 74
0
 49
0.1
 74
0
 49
-3.125
 74
0
  0
LTYPE
  5
42
100
AcDbSymbolTableRecord
100
AcDbLinetypeTableRecord
  2
ACAD_ISO03W100
 70
0
  3
ISO dash space __    __    __    __    __    __
 72
65
 73
2
 40
30.0
 49
12.0
 74
0
 49
-18.0
 74
0
  0
LTYPE
  5
43
100
AcDbSymbolTableRecord
100
AcDbLinetypeTableRecord
  2
HIDDENX2
 70
0
  3
Hidden (2x) ____ ____ ____ ____ ____ ____ ____ 
 72
65
 73
2
 40
19.0499999999999972
 49
12.6999999999999993
 74
0
 49
-6.3499999999999996
 74
0
  0
LTYPE
  5
44
100
AcDbSymbolTableRecord
100
AcDbLinetypeTableRecord
  2
CENTER
 70
0
  3
Center ____ _ ____ _ ____ _ ____ _ ____ _ ____
 72
65
 73
4
 40
50.8000000000000043
 49
31.75
 74
0
 49
-6.3499999999999996
 74
0
 49
6.3499999999999996
 74
0
 49
-6.3499999999999996
 74
0
  0
LTYPE
  5
45
100
AcDbSymbolTableRecord
100
AcDbLinetypeTableRecord
  2
DOT2
 70
0
  3
Dot (.5x) ........................................
 72
65
 73
2
 40
3.1749999999999998
 49
0.1
 74
0
 49
-3.0749999999999997
 74
0
  0
LTYPE
  5
46
100
AcDbSymbolTableRecord
100
AcDbLinetypeTableRecord
  2
HIDDEN2
 70
0
  3
Hidden (.5x) _ _ _ _ _ _ _ _ _ _ _ _ _ _ _ _ _ 
 72
65
 73
2
 40
4.7624999999999993
 49
3.1749999999999998
 74
0
 49
-1.5874999999999999
 74
0
  0
LTYPE
  5
47
100
AcDbSymbolTableRecord
100
AcDbLinetypeTableRecord
  2
ACAD_ISO05W100
 70
0
  3
ISO long-dash double-dot ____ .. ____ .. ____ . 
 72
65
 73
6
 40
33.0000000000000071
 49
24.0
 74
0
 49
-2.9500000000000002
 74
0
 49
0.1
 74
0
 49
-2.9000000000000004
 74
0
 49
0.1
 74
0
 49
-2.9500000000000002
 74
0
  0
LTYPE
  5
48
100
AcDbSymbolTableRecord
100
AcDbLinetypeTableRecord
  2
PHANTOM2
 70
0
  3
Phantom (.5x) ___ _ _ ___ _ _ ___ _ _ ___ _ _
 72
65
 73
6
 40
31.7500000000000036
 49
15.875
 74
0
 49
-3.1749999999999998
 74
0
 49
3.1749999999999998
 74
0
 49
-3.1749999999999998
 74
0
 49
3.1749999999999998
 74
0
 49
-3.1749999999999998
 74
0
  0
LTYPE
  5
49
100
AcDbSymbolTableRecord
100
AcDbLinetypeTableRecord
  2
ACAD_ISO09W100
 70
0
  3
ISO long-dash double-short-dash ____ __ __ ____
 72
65
 73
6
 40
45.0
 49
24.0
 74
0
 49
-3.0
 74
0
 49
6.0
 74
0
 49
-3.0
 74
0
 49
6.0
 74
0
 49
-3.0
 74
0
  0
LTYPE
  5
4A
100
AcDbSymbolTableRecord
100
AcDbLinetypeTableRecord
  2
DOTX2
 70
0
  3
Dot (2x) .  .  .  .  .  .  .  .  .  .  .  .  .  .
 72
65
 73
2
 40
12.6999999999999993
 49
0.1
 74
0
 49
-12.5999999999999996
 74
0
  0
LTYPE
  5
4B
100
AcDbSymbolTableRecord
100
AcDbLinetypeTableRecord
  2
DASHEDX2
 70
0
  3
Dashed (2x) ____  ____  ____  ____  ____  ___
 72
65
 73
2
 40
38.0999999999999943
 49
25.3999999999999986
 74
0
 49
-12.6999999999999993
 74
0
  0
LTYPE
  5
4C
100
AcDbSymbolTableRecord
100
AcDbLinetypeTableRecord
  2
ACAD_ISO06W100
 70
0
  3
ISO long-dash triple-dot ____ ... ____ ... ____
 72
65
 73
8
 40
36.0000000000000071
 49
24.0
 74
0
 49
-2.9500000000000002
 74
0
 49
0.1
 74
0
 49
-2.9000000000000004
 74
0
 49
0.1
 74
0
 49
-2.9000000000000004
 74
0
 49
0.1
 74
0
 49
-2.9500000000000002
 74
0
  0
LTYPE
  5
4D
100
AcDbSymbolTableRecord
100
AcDbLinetypeTableRecord
  2
PHANTOM
 70
0
  3
Phantom ______  __  __  ______  __  __  ______ 
 72
65
 73
6
 40
63.5000000000000071
 49
31.75
 74
0
 49
-6.3499999999999996
 74
0
 49
6.3499999999999996
 74
0
 49
-6.3499999999999996
 74
0
 49
6.3499999999999996
 74
0
 49
-6.3499999999999996
 74
0
  0
LTYPE
  5
4E
100
AcDbSymbolTableRecord
100
AcDbLinetypeTableRecord
  2
BORDERX2
 70
0
  3
Border (2x) ____  ____  .  ____  ____  .  ___
 72
65
 73
6
 40
88.8999999999999773
 49
25.3999999999999986
 74
0
 49
-12.6999999999999993
 74
0
 49
25.3999999999999986
 74
0
 49
-12.6499999999999986
 74
0
 49
0.1
 74
0
 49
-12.6499999999999986
 74
0
  0
LTYPE
  5
4F
100
AcDbSymbolTableRecord
100
AcDbLinetypeTableRecord
  2
DASHED
 70
0
  3
Dashed __ __ __ __ __ __ __ __ __ __ __ __ __ _
 72
65
 73
2
 40
19.0499999999999972
 49
12.6999999999999993
 74
0
 49
-6.3499999999999996
 74
0
  0
LTYPE
  5
50
100
AcDbSymbolTableRecord
100
AcDbLinetypeTableRecord
  2
CENTERX2
 70
0
  3
Center (2x) ________  __  ________  __  _____
 72
65
 73
4
 40
101.6000000000000085
 49
63.5
 74
0
 49
-12.6999999999999993
 74
0
 49
12.6999999999999993
 74
0
 49
-12.6999999999999993
 74
0
  0
LTYPE
  5
51
100
AcDbSymbolTableRecord
100
AcDbLinetypeTableRecord
  2
ACAD_ISO08W100
 70
0
  3
ISO long-dash short-dash ____ __ ____ __ ____ _
 72
65
 73
4
 40
36.0
 49
24.0
 74
0
 49
-3.0
 74
0
 49
6.0
 74
0
 49
-3.0
 74
0
  0
LTYPE
  5
52
100
AcDbSymbolTableRecord
100
AcDbLinetypeTableRecord
  2
ACAD_ISO13W100
 70
0
  3
ISO double-dash double-dot __ __ . . __ __ . . _
 72
65
 73
8
 40
36.0000000000000071
 49
12.0
 74
0
 49
-3.0
 74
0
 49
12.0
 74
0
 49
-2.9500000000000002
 74
0
 49
0.1
 74
0
 49
-2.9000000000000004
 74
0
 49
0.1
 74
0
 49
-2.9500000000000002
 74
0
  0
LTYPE
  5
53
100
AcDbSymbolTableRecord
100
AcDbLinetypeTableRecord
  2
BORDER
 70
0
  3
Border __ __ . __ __ . __ __ . __ __ . __ __ .
 72
65
 73
6
 40
44.4499999999999957
 49
12.6999999999999993
 74
0
 49
-6.3499999999999996
 74
0
 49
12.6999999999999993
 74
0
 49
-6.2999999999999998
 74
0
 49
0.1
 74
0
 49
-6.2999999999999998
 74
0
  0
LTYPE
  5
54
100
AcDbSymbolTableRecord
100
AcDbLinetypeTableRecord
  2
ACAD_ISO15W100
 70
0
  3
ISO double-dash triple-dot __ __ . . . __ __ . .
 72
65
 73
10
 40
39.0000000000000071
 49
12.0
 74
0
 49
-3.0
 74
0
 49
12.0
 74
0
 49
-2.9500000000000002
 74
0
 49
0.1
 74
0
 49
-2.9000000000000004
 74
0
 49
0.1
 74
0
 49
-2.9000000000000004
 74
0
 49
0.1
 74
0
 49
-2.9500000000000002
 74
0
  0
LTYPE
  5
55
100
AcDbSymbolTableRecord
100
AcDbLinetypeTableRecord
  2
DIVIDE2
 70
0
  3
Divide (.5x) __..__..__..__..__..__..__..__.._
 72
65
 73
6
 40
15.8749999999999982
 49
6.3499999999999996
 74
0
 49
-3.125
 74
0
 49
0.1
 74
0
 49
-3.0750000000000002
 74
0
 49
0.1
 74
0
 49
-3.125
 74
0
  0
LTYPE
  5
56
100
AcDbSymbolTableRecord
100
AcDbLinetypeTableRecord
  2
ACAD_ISO02W100
 70
0
  3
ISO dash __ __ __ __ __ __ __ __ __ __ __ __ __
 72
65
 73
2
 40
15.0
 49
12.0
 74
0
 49
-3.0
 74
0
  0
ENDTAB
  0
TABLE
  2
LAYER
  5
2
100
AcDbSymbolTable
 70
2
  0
LAYER
  5
57
100
AcDbSymbolTableRecord
100
AcDbLayerTableRecord
  2
mark
 70
1
 62
2
420
16776960
  6
Continuous
370
25
390
F
  0
LAYER
  5
10
100
AcDbSymbolTableRecord
100
AcDbLayerTableRecord
  2
0
 70
0
 62
7
420
16777215
  6
Continuous
370
25
390
F
  0
ENDTAB
  0
TABLE
  2
STYLE
  5
3
100
AcDbSymbolTable
 70
1
  0
STYLE
  5
58
100
AcDbSymbolTableRecord
100
AcDbTextStyleTableRecord
  2
Standard
 70
0
 40
0.0
 41
1.0
 50
0.0
 71
0
 42
2.5
  3

  4

1001
ACAD
1000
txt
1071
0
  0
ENDTAB
  0
TABLE
  2
VIEW
  5
6
100
AcDbSymbolTable
 70
0
  0
ENDTAB
  0
TABLE
  2
UCS
  5
7
100
AcDbSymbolTable
 70
0
  0
ENDTAB
  0
TABLE
  2
APPID
  5
9
100
AcDbSymbolTable
 70
1
  0
APPID
  5
12
100
AcDbSymbolTableRecord
100
AcDbRegAppTableRecord
  2
ACAD
 70
0
  0
APPID
  5
59
100
AcDbSymbolTableRecord
100
AcDbRegAppTableRecord
  2
QCAD
 70
0
  0
ENDTAB
  0
TABLE
  2
DIMSTYLE
  5
A
100
AcDbSymbolTable
 70
1
100
AcDbDimStyleTable
 71
0
  0
DIMSTYLE
105
27
100
AcDbSymbolTableRecord
100
AcDbDimStyleTableRecord
  2
Standard
 41
2.5
 42
0.625
 43
3.75
 44
1.25
 70
0
 73
0
 74
0
 77
1
 78
8
140
2.5
141
2.5
143
0.03937007874016
147
0.625
171
3
172
1
271
2
272
2
274
3
278
44
283
0
284
8
340
58
  0
ENDTAB
  0
TABLE
  2
BLOCK_RECORD
  5
1
100
AcDbSymbolTable
 70
1
  0
BLOCK_RECORD
  5
1F
100
AcDbSymbolTableRecord
100
AcDbBlockTableRecord
  2
*Model_Space
340
22
  0
BLOCK_RECORD
  5
1B
100
AcDbSymbolTableRecord
100
AcDbBlockTableRecord
  2
*Paper_Space
340
1E
  0
BLOCK_RECORD
  5
23
100
AcDbSymbolTableRecord
100
AcDbBlockTableRecord
  2
*Paper_Space0
340
26
  0
ENDTAB
  0
ENDSEC
  0
SECTION
  2
BLOCKS
  0
BLOCK
  5
20
100
AcDbEntity
  8
0
100
AcDbBlockBegin
  2
*Model_Space
 70
0
 10
0.0
 20
0.0
 30
0.0
  3
*Model_Space
  1

  0
ENDBLK
  5
21
100
AcDbEntity
  8
0
100
AcDbBlockEnd
  0
BLOCK
  5
1C
100
AcDbEntity
 67
1
  8
0
100
AcDbBlockBegin
  2
*Paper_Space
 70
0
 10
0.0
 20
0.0
 30
0.0
  3
*Paper_Space
  1

  0
ENDBLK
  5
1D
100
AcDbEntity
 67
1
  8
0
100
AcDbBlockEnd
  0
BLOCK
  5
24
100
AcDbEntity
  8
0
100
AcDbBlockBegin
  2
*Paper_Space0
 70
0
 10
0.0
 20
0.0
 30
0.0
  3
*Paper_Space0
  1

  0
ENDBLK
  5
25
100
AcDbEntity
  8
0
100
AcDbBlockEnd
  0
ENDSEC
  0
SECTION
  2
ENTITIES
  0
ARC
  5
5A
100
AcDbEntity
  8
0
 62
256
370
-1
 48
1.0
  6
BYLAYER
100
AcDbCircle
 10
9.2705098312484235
 20
28.5316954888546093
 30
0.0
 40
35.2671151375483873
100
AcDbArc
 50
306.0
 51
17.9189151213493787
  0
ARC
  5
5B
100
AcDbEntity
  8
0
 62
256
370
-1
 48
1.0
  6
BYLAYER
100
AcDbCircle
 10
29.9999999999999858
 20
-0.0000000000000266
 30
0.0
 40
35.267115137548366
100
AcDbArc
 50
234.0
 51
306.21514093404204
  0
ARC
  5
5C
100
AcDbEntity
  8
0
 62
256
370
-1
 48
1.0
  6
BYLAYER
100
AcDbCircle
 10
9.2705098312484022
 20
-28.5316954888546022
 30
0.0
 40
35.2671151375483731
100
AcDbArc
 50
162.0
 51
234.0000000000000568
  0
LINE
  5
5D
100
AcDbEntity
  8
0
 62
256
370
-1
 48
1.0
  6
BYLAYER
100
AcDbLine
 10
9.2705098312484022
 20
-28.5316954888546022
 30
0.0
 11
-11.4589803375031476
 21
-57.0633909777092185
 31
0.0
  0
ARC
  5
5E
100
AcDbEntity
  8
0
 62
256
370
-1
 48
1.0
  6
BYLAYER
100
AcDbCircle
 10
-24.2705098312484289
 20
-17.6335575687741937
 30
0.0
 40
35.2671151375483802
100
AcDbArc
 50
89.9999999999999716
 51
161.9999999999999716
  0
LINE
  5
5F
100
AcDbEntity
  8
0
 62
256
370
-1
 48
1.0
  6
BYLAYER
100
AcDbLine
 10
-24.2705098312484289
 20
-17.6335575687741724
 30
0.0
 11
-57.8115294937452546
 21
-6.735419648693763
 31
0.0
  0
LINE
  5
60
100
AcDbEntity
  8
0
 62
256
370
-1
 48
1.0
  6
BYLAYER
100
AcDbLine
 10
-57.8115294937452546
 20
-6.735419648693763
 30
0.0
 11
-57.8115294937452546
 21
-6.7354196486937603
 31
0.0
  0
ARC
  5
61
100
AcDbEntity
  8
0
 62
256
370
-1
 48
1.0
  6
BYLAYER
100
AcDbCircle
 10
-24.2705098312484928
 20
17.6335575687741724
 30
0.0
 40
35.1358947180527252
100
AcDbArc
 50
17.9594575606746965
 51
89.9999999999998721
  0
LINE
  5
62
100
AcDbEntity
  8
0
 62
256
370
-1
 48
1.0
  6
BYLAYER
100
AcDbLine
 10
9.1533862492815459
 20
28.4674981462378618
 30
0.0
 11
42.8269189250095792
 21
39.3823553239632034
 31
0.0
  0
LINE
  5
63
100
AcDbEntity
  8
0
 62
256
370
-1
 48
1.0
  6
BYLAYER
100
AcDbLine
 10
29.9999999999999929
 20
-0.0000000000000053
 30
0.0
 11
50.8364779475274275
 21
-28.4536570034028671
 31
0.0
  0
LINE
  5
64
100
AcDbEntity
  8
0
 62
256
370
-1
 48
1.0
  6
BYLAYER
100
AcDbLine
 10
50.8364779475274275
 20
-28.4536570034028671
 30
0.0
 11
50.8364779475274275
 21
-28.4536570034028671
 31
0.0
  0
LINE
  5
65
100
AcDbEntity
  8
0
 62
256
370
-1
 48
1.0
  6
BYLAYER
100
AcDbLine
 10
-24.2705098312484111
 20
17.6335575687741866
 30
0.0
 11
-24.2705098312484111
 21
52.7694522868269047
 31
0.0
  0
LINE
  5
66
100
AcDbEntity
  8
0
 62
256
370
-1
 48
1.0
  6
BYLAYER
100
AcDbLine
 10
-24.2705098312484111
 20
52.7694522868269047
 30
0.0
 11
-24.2705098312484111
 21
52.7694522868269047
 31
0.0
  0
LINE
  5
67
100
AcDbEntity
  8
mark
 62
256
370
-1
 48
1.0
  6
BYLAYER
100
AcDbLine
 10
-24.2705098312484111
 20
17.6335575687741866
 30
0.0
 11
-24.2705098312484253
 21
-17.6335575687741724
 31
0.0
  0
LINE
  5
68
100
AcDbEntity
  8
mark
 62
256
370
-1
 48
1.0
  6
BYLAYER
100
AcDbLine
 10
-24.2705098312484253
 20
-17.6335575687741724
 30
0.0
 11
9.2705098312484022
 21
-28.5316954888546022
 31
0.0
  0
LINE
  5
69
100
AcDbEntity
  8
mark
 62
256
370
-1
 48
1.0
  6
BYLAYER
100
AcDbLine
 10
9.2705098312484022
 20
-28.5316954888546022
 30
0.0
 11
29.9999999999999929
 21
-0.0000000000000053
 31
0.0
  0
LINE
  5
6A
100
AcDbEntity
  8
mark
 62
256
370
-1
 48
1.0
  6
BYLAYER
100
AcDbLine
 10
29.9999999999999929
 20
-0.0000000000000053
 30
0.0
 11
9.1533862492815459
 21
28.4674981462378618
 31
0.0
  0
LINE
  5
6B
100
AcDbEntity
  8
mark
 62
256
370
-1
 48
1.0
  6
BYLAYER
100
AcDbLine
 10
9.1533862492815459
 20
28.4674981462378618
 30
0.0
 11
-24.2705098312484111
 21
17.6335575687741866
 31
0.0
  0
LINE
  5
6C
100
AcDbEntity
  8
mark
 62
256
370
-1
 48
1.0
  6
BYLAYER
100
AcDbLine
 10
-24.2705098312484111
 20
17.6335575687741866
 30
0.0
 11
-24.2705098312484111
 21
17.6335575687741866
 31
0.0
  0
LINE
  5
6D
100
AcDbEntity
  8
mark
 62
256
370
-1
 48
1.0
  6
BYLAYER
100
AcDbLine
 10
-7.5585617909834335
 20
23.050527857506026
 30
0.0
 11
-11.2586891955309856
 21
34.4658271172764898
 31
0.0
  0
LINE
  5
6E
100
AcDbEntity
  8
mark
 62
256
370
-1
 48
1.0
  6
BYLAYER
100
AcDbLine
 10
19.6352549156241984
 20
-14.2658477444273046
 30
0.0
 11
29.35864486158194
 21
-21.2983215594406161
 31
0.0
  0
LINE
  5
6F
100
AcDbEntity
  8
mark
 62
256
370
-1
 48
1.0
  6
BYLAYER
100
AcDbLine
 10
19.5766931246407694
 20
14.2337490731189291
 30
0.0
 11
29.3097764710289432
 21
21.2528009016967161
 31
0.0
  0
LINE
  5
70
100
AcDbEntity
  8
mark
 62
256
370
-1
 48
1.0
  6
BYLAYER
100
AcDbLine
 10
44.3562707755041004
 20
32.1036402095408064
 30
0.0
 11
44.3562707755041004
 21
32.1036402095408064
 31
0.0
  0
LINE
  5
71
100
AcDbEntity
  8
mark
 62
256
370
-1
 48
1.0
  6
BYLAYER
100
AcDbLine
 10
-7.5000000000000107
 20
-23.0826265288143873
 30
0.0
 11
-11.1275532906597157
 21
-34.5211953695139968
 31
0.0
  0
LINE
  5
72
100
AcDbEntity
  8
mark
 62
256
370
-1
 48
1.0
  6
BYLAYER
100
AcDbLine
 10
-16.6797481987999205
 20
-52.0286331891783504
 30
0.0
 11
-16.6797481987999205
 21
-52.0286331891783504
 31
0.0
  0
LINE
  5
73
100
AcDbEntity
  8
mark
 62
256
370
-1
 48
1.0
  6
BYLAYER
100
AcDbLine
 10
-24.2705098312484182
 20
0.0000000000000067
 30
0.0
 11
-36.2700673594689107
 21
-0.1030491481137885
 31
0.0
  0
CIRCLE
  5
74
100
AcDbEntity
  8
0
 62
256
370
-1
 48
1.0
  6
BYLAYER
100
AcDbCircle
 10
-36.2700673594689107
 20
-0.1030491481137885
 30
0.0
 40
1.7
  0
CIRCLE
  5
75
100
AcDbEntity
  8
0
 62
256
370
-1
 48
1.0
  6
BYLAYER
100
AcDbCircle
 10
-11.2586891955309856
 20
34.4658271172764898
 30
0.0
 40
1.7
  0
CIRCLE
  5
76
100
AcDbEntity
  8
0
 62
256
370
-1
 48
1.0
  6
BYLAYER
100
AcDbCircle
 10
29.3097764710289432
 20
21.2528009016967161
 30
0.0
 40
1.7
  0
CIRCLE
  5
77
100
AcDbEntity
  8
0
 62
256
370
-1
 48
1.0
  6
BYLAYER
100
AcDbCircle
 10
29.35864486158194
 20
-21.2983215594406161
 30
0.0
 40
1.7
  0
CIRCLE
  5
78
100
AcDbEntity
  8
0
 62
256
370
-1
 48
1.0
  6
BYLAYER
100
AcDbCircle
 10
-11.1275532906597157
 20
-34.5211953695139968
 30
0.0
 40
1.7
  0
CIRCLE
  5
79
100
AcDbEntity
  8
0
 62
256
370
-1
 48
1.0
  6
BYLAYER
100
AcDbCircle
 10
0.0
 20
0.0
 30
0.0
 40
1.7
  0
LINE
  5
7A
100
AcDbEntity
  8
mark
 62
256
370
-1
 48
1.0
  6
BYLAYER
100
AcDbLine
 10
175.0000000000000568
 20
25.9807621135331637
 30
0.0
 11
144.9999999999999432
 21
25.9807621135331388
 31
0.0
  0
LINE
  5
7B
100
AcDbEntity
  8
mark
 62
256
370
-1
 48
1.0
  6
BYLAYER
100
AcDbLine
 10
145.0000000000000568
 20
25.9807621135331743
 30
0.0
 11
130.0
 21
0.0000000000000037
 31
0.0
  0
LINE
  5
7C
100
AcDbEntity
  8
mark
 62
256
370
-1
 48
1.0
  6
BYLAYER
100
AcDbLine
 10
130.0000000000000568
 20
-0.0000000000000338
 30
0.0
 11
145.0
 21
-25.980762113533153
 31
0.0
  0
LINE
  5
7D
100
AcDbEntity
  8
mark
 62
256
370
-1
 48
1.0
  6
BYLAYER
100
AcDbLine
 10
145.0
 20
-25.9807621135331814
 30
0.0
 11
175.0
 21
-25.9807621135331708
 31
0.0
  0
LINE
  5
7E
100
AcDbEntity
  8
mark
 62
256
370
-1
 48
1.0
  6
BYLAYER
100
AcDbLine
 10
175.0000000000000568
 20
-25.9807621135332312
 30
0.0
 11
190.0000000000001137
 21
0.0000000000001137
 31
0.0
  0
LINE
  5
7F
100
AcDbEntity
  8
mark
 62
256
370
-1
 48
1.0
  6
BYLAYER
100
AcDbLine
 10
190.0000000000000568
 20
0.0
 30
0.0
 11
175.0
 21
25.9807621135331921
 31
0.0
  0
LINE
  5
80
100
AcDbEntity
  8
mark
 62
256
370
-1
 48
1.0
  6
BYLAYER
100
AcDbLine
 10
145.0
 20
25.9807621135331637
 30
0.0
 11
139.9999629905094594
 21
34.6410802536956552
 31
0.0
  0
LINE
  5
81
100
AcDbEntity
  8
mark
 62
256
370
-1
 48
1.0
  6
BYLAYER
100
AcDbLine
 10
190.0
 20
-0.0000000000000246
 30
0.0
 11
194.4721359549996578
 21
0.0000000000000064
 31
0.0
  0
CIRCLE
  5
82
100
AcDbEntity
  8
mark
 62
256
370
-1
 48
1.0
  6
BYLAYER
100
AcDbCircle
 10
160.0
 20
0.0
 30
0.0
 40
60.0
  0
LINE
  5
83
100
AcDbEntity
  8
mark
 62
256
370
-1
 48
1.0
  6
BYLAYER
100
AcDbLine
 10
160.0
 20
0.0
 30
0.0
 11
190.0
 21
51.9615242270663273
 31
0.0
  0
LINE
  5
84
100
AcDbEntity
  8
mark
 62
256
370
-1
 48
1.0
  6
BYLAYER
100
AcDbLine
 10
160.0
 20
0.0
 30
0.0
 11
189.9999999999999432
 21
-51.9615242270663416
 31
0.0
  0
LINE
  5
85
100
AcDbEntity
  8
mark
 62
256
370
-1
 48
1.0
  6
BYLAYER
100
AcDbLine
 10
159.9999999999999432
 20
0.0
 30
0.0
 11
220.0
 21
-0.0000000000000391
 31
0.0
  0
LINE
  5
86
100
AcDbEntity
  8
mark
 62
256
370
-1
 48
1.0
  6
BYLAYER
100
AcDbLine
 10
160.0
 20
-0.0
 30
0.0
 11
130.0
 21
-51.961524227066306
 31
0.0
  0
LINE
  5
87
100
AcDbEntity
  8
mark
 62
256
370
-1
 48
1.0
  6
BYLAYER
100
AcDbLine
 10
159.9999999999999432
 20
0.0
 30
0.0
 11
100.0
 21
0.0000000000000037
 31
0.0
  0
LINE
  5
88
100
AcDbEntity
  8
mark
 62
256
370
-1
 48
1.0
  6
BYLAYER
100
AcDbLine
 10
159.9999999999999432
 20
0.0
 30
0.0
 11
130.0000000000000568
 21
51.9615242270663487
 31
0.0
  0
ARC
  5
89
100
AcDbEntity
  8
0
 62
256
370
-1
 48
1.0
  6
BYLAYER
100
AcDbCircle
 10
145.0000000000001137
 20
25.9807621135331921
 30
0.0
 40
51.9615242270661994
100
AcDbArc
 50
329.9999999999998295
 51
30.0000000000000284
  0
ARC
  5
8A
100
AcDbEntity
  8
0
 62
256
370
-1
 48
1.0
  6
BYLAYER
100
AcDbCircle
 10
175.0
 20
25.9807621135331388
 30
0.0
 40
51.9615242270663131
100
AcDbArc
 50
269.9999999999999432
 51
330.0
  0
ARC
  5
8B
100
AcDbEntity
  8
0
 62
256
370
-1
 48
1.0
  6
BYLAYER
100
AcDbCircle
 10
190.0
 20
-0.0000000000000426
 30
0.0
 40
51.9615242270663202
100
AcDbArc
 50
209.9999999999999716
 51
269.9999999999999432
  0
ARC
  5
8C
100
AcDbEntity
  8
0
 62
256
370
-1
 48
1.0
  6
BYLAYER
100
AcDbCircle
 10
175.0
 20
-25.9807621135332028
 30
0.0
 40
51.9615242270662847
100
AcDbArc
 50
149.9999999999999147
 51
209.9999999999999432
  0
ARC
  5
8D
100
AcDbEntity
  8
0
 62
256
370
-1
 48
1.0
  6
BYLAYER
100
AcDbCircle
 10
144.9999999999999432
 20
-25.9807621135331175
 30
0.0
 40
51.9615242270662847
100
AcDbArc
 50
89.9999999999999147
 51
150.0
  0
ARC
  5
8E
100
AcDbEntity
  8
0
 62
256
370
-1
 48
1.0
  6
BYLAYER
100
AcDbCircle
 10
129.9999999999998863
 20
-0.0000000000002061
 30
0.0
 40
51.9615242270665476
100
AcDbArc
 50
30.0000000000002096
 51
89.9999999999998295
  0
LINE
  5
8F
100
AcDbEntity
  8
mark
 62
256
370
-1
 48
1.0
  6
BYLAYER
100
AcDbLine
 10
174.9999999999999432
 20
25.9807621135331068
 30
0.0
 11
174.9999999999999432
 21
25.9807621135331068
 31
0.0
  0
LINE
  5
90
100
AcDbEntity
  8
mark
 62
256
370
-1
 48
1.0
  6
BYLAYER
100
AcDbLine
 10
182.5
 20
12.990381056766596
 30
0.0
 11
211.9615242270663202
 21
30.0000000000000284
 31
0.0
  0
LINE
  5
91
100
AcDbEntity
  8
mark
 62
256
370
-1
 48
1.0
  6
BYLAYER
100
AcDbLine
 10
182.5000000000001137
 20
-12.9903810567665587
 30
0.0
 11
211.9615242270664339
 21
-29.9999999999998472
 31
0.0
  0
LINE
  5
92
100
AcDbEntity
  8
mark
 62
256
370
-1
 48
1.0
  6
BYLAYER
100
AcDbLine
 10
160.0
 20
-25.9807621135331743
 30
0.0
 11
160.0
 21
-60.0
 31
0.0
  0
LINE
  5
93
100
AcDbEntity
  8
mark
 62
256
370
-1
 48
1.0
  6
BYLAYER
100
AcDbLine
 10
137.5
 20
-12.9903810567665943
 30
0.0
 11
108.0384757729336798
 21
-30.0000000000000142
 31
0.0
  0
LINE
  5
94
100
AcDbEntity
  8
mark
 62
256
370
-1
 48
1.0
  6
BYLAYER
100
AcDbLine
 10
137.5
 20
12.9903810567665889
 30
0.0
 11
108.0384757729336798
 21
30.0000000000000213
 31
0.0
  0
LINE
  5
95
100
AcDbEntity
  8
mark
 62
256
370
-1
 48
1.0
  6
BYLAYER
100
AcDbLine
 10
160.0
 20
25.980762113533153
 30
0.0
 11
160.0
 21
60.0
 31
0.0
  0
CIRCLE
  5
96
100
AcDbEntity
  8
0
 62
256
370
-1
 48
1.0
  6
BYLAYER
100
AcDbCircle
 10
182.5000000000000568
 20
-12.9903810567665658
 30
0.0
 40
1.7
  0
CIRCLE
  5
97
100
AcDbEntity
  8
0
 62
256
370
-1
 48
1.0
  6
BYLAYER
100
AcDbCircle
 10
160.0000000000000568
 20
-0.0
 30
0.0
 40
1.7
  0
CIRCLE
  5
98
100
AcDbEntity
  8
0
 62
256
370
-1
 48
1.0
  6
BYLAYER
100
AcDbCircle
 10
182.5
 20
12.990381056766596
 30
0.0
 40
1.7
  0
CIRCLE
  5
99
100
AcDbEntity
  8
0
 62
256
370
-1
 48
1.0
  6
BYLAYER
100
AcDbCircle
 10
160.0000000000000568
 20
-25.9807621135331779
 30
0.0
 40
1.7
  0
CIRCLE
  5
9A
100
AcDbEntity
  8
0
 62
256
370
-1
 48
1.0
  6
BYLAYER
100
AcDbCircle
 10
137.5000000000000568
 20
-12.9903810567665943
 30
0.0
 40
1.7
  0
CIRCLE
  5
9B
100
AcDbEntity
  8
0
 62
256
370
-1
 48
1.0
  6
BYLAYER
100
AcDbCircle
 10
137.5
 20
12.9903810567665747
 30
0.0
 40
1.7
  0
CIRCLE
  5
9C
100
AcDbEntity
  8
0
 62
256
370
-1
 48
1.0
  6
BYLAYER
100
AcDbCircle
 10
160.0
 20
25.9807621135331495
 30
0.0
 40
1.7
  0
LINE
  5
9D
100
AcDbEntity
  8
0
 62
256
370
-1
 48
1.0
  6
BYLAYER
100
AcDbLine
 10
99.9999999999999432
 20
0.0000000000000037
 30
0.0
 11
130.0
 21
0.0000000000000018
 31
0.0
  0
LINE
  5
9E
100
AcDbEntity
  8
0
 62
256
370
-1
 48
1.0
  6
BYLAYER
100
AcDbLine
 10
130.0
 20
-51.961524227066306
 30
0.0
 11
145.0
 21
-25.980762113533121
 31
0.0
  0
LINE
  5
9F
100
AcDbEntity
  8
0
 62
256
370
-1
 48
1.0
  6
BYLAYER
100
AcDbLine
 10
189.9999999999999432
 20
-51.9615242270663629
 30
0.0
 11
174.9999999999998863
 21
-25.9807621135331779
 31
0.0
  0
LINE
  5
A0
100
AcDbEntity
  8
0
 62
256
370
-1
 48
1.0
  6
BYLAYER
100
AcDbLine
 10
220.0
 20
-0.0000000000000391
 30
0.0
 11
190.0000000000001137
 21
0.0
 31
0.0
  0
LINE
  5
A1
100
AcDbEntity
  8
0
 62
256
370
-1
 48
1.0
  6
BYLAYER
100
AcDbLine
 10
190.0
 20
51.9615242270663131
 30
0.0
 11
175.0000000000000568
 21
25.9807621135331637
 31
0.0
  0
LINE
  5
A2
100
AcDbEntity
  8
0
 62
256
370
-1
 48
1.0
  6
BYLAYER
100
AcDbLine
 10
130.0000000000000568
 20
51.9615242270663344
 30
0.0
 11
144.9999999999998863
 21
25.9807621135331388
 31
0.0
  0
ENDSEC
  0
SECTION
  2
OBJECTS
  0
DICTIONARY
  5
C
100
AcDbDictionary
280
0
281
1
  3
ACAD_GROUP
350
D
  3
ACAD_LAYOUT
350
1A
  3
ACAD_MLINESTYLE
350
17
  3
ACAD_PLOTSETTINGS
350
19
  3
ACAD_PLOTSTYLENAME
350
E
  3
AcDbVariableDictionary
350
A3
  3
QCAD_OBJECTS
350
A4
  0
DICTIONARY
  5
D
100
AcDbDictionary
280
0
281
1
  0
ACDBDICTIONARYWDFLT
  5
E
100
AcDbDictionary
281
1
  3
Normal
350
F
100
AcDbDictionaryWithDefault
340
F
  0
ACDBPLACEHOLDER
  5
F
  0
DICTIONARY
  5
17
100
AcDbDictionary
280
0
281
1
  3
Standard
350
18
  0
MLINESTYLE
  5
18
100
AcDbMlineStyle
  2
STANDARD
 70
0
  3

 62
256
 51
90.0
 52
90.0
 71
2
 49
0.5
 62
256
  6
BYLAYER
 49
-0.5
 62
256
  6
BYLAYER
  0
DICTIONARY
  5
19
100
AcDbDictionary
280
0
281
1
  0
DICTIONARY
  5
1A
100
AcDbDictionary
281
1
  3
Layout1
350
1E
  3
Layout2
350
26
  3
Model
350
22
  0
LAYOUT
  5
1E
100
AcDbPlotSettings
  1

  2
none_device
  4

  6

 40
0.0
 41
0.0
 42
0.0
 43
0.0
 44
0.0
 45
0.0
 46
0.0
 47
0.0
 48
0.0
 49
0.0
140
0.0
141
0.0
142
1.0
143
1.0
 70
688
 72
0
 73
0
 74
5
  7

 75
16
147
1.0
148
0.0
149
0.0
100
AcDbLayout
  1
Layout1
 70
1
 71
1
 10
0.0
 20
0.0
 11
420.0
 21
297.0
 12
0.0
 22
0.0
 32
0.0
 14
100000000000000000000.0
 24
100000000000000000000.0
 34
100000000000000000000.0
 15
-100000000000000000000.0
 25
-100000000000000000000.0
 35
-100000000000000000000.0
146
0.0
 13
0.0
 23
0.0
 33
0.0
 16
1.0
 26
0.0
 36
0.0
 17
0.0
 27
1.0
 37
0.0
 76
0
330
1B
  0
LAYOUT
  5
22
100
AcDbPlotSettings
  1

  2
none_device
  4

  6

 40
0.0
 41
0.0
 42
0.0
 43
0.0
 44
0.0
 45
0.0
 46
0.0
 47
0.0
 48
0.0
 49
0.0
140
0.0
141
0.0
142
1.0
143
1.0
 70
1712
 72
0
 73
0
 74
0
  7

 75
0
147
1.0
148
0.0
149
0.0
100
AcDbLayout
  1
Model
 70
1
 71
0
 10
0.0
 20
0.0
 11
12.0
 21
9.0
 12
0.0
 22
0.0
 32
0.0
 14
0.0
 24
0.0
 34
0.0
 15
0.0
 25
0.0
 35
0.0
146
0.0
 13
0.0
 23
0.0
 33
0.0
 16
1.0
 26
0.0
 36
0.0
 17
0.0
 27
1.0
 37
0.0
 76
0
330
1F
  0
LAYOUT
  5
26
100
AcDbPlotSettings
  1

  2
none_device
  4

  6

 40
0.0
 41
0.0
 42
0.0
 43
0.0
 44
0.0
 45
0.0
 46
0.0
 47
0.0
 48
0.0
 49
0.0
140
0.0
141
0.0
142
1.0
143
1.0
 70
688
 72
0
 73
0
 74
5
  7

 75
16
147
1.0
148
0.0
149
0.0
100
AcDbLayout
  1
Layout2
 70
1
 71
2
 10
0.0
 20
0.0
 11
12.0
 21
9.0
 12
0.0
 22
0.0
 32
0.0
 14
0.0
 24
0.0
 34
0.0
 15
0.0
 25
0.0
 35
0.0
146
0.0
 13
0.0
 23
0.0
 33
0.0
 16
1.0
 26
0.0
 36
0.0
 17
0.0
 27
1.0
 37
0.0
 76
0
330
23
  0
DICTIONARY
  5
A3
100
AcDbDictionary
281
1
  3
DIMASSOC
350
A6
  3
HIDETEXT
350
A5
  0
DICTIONARYVAR
  5
A5
100
DictionaryVariables
280
0
  1
2
  0
DICTIONARYVAR
  5
A6
100
DictionaryVariables
280
0
  1
1
  0
DICTIONARY
  5
A4
100
AcDbDictionary
281
1
  3
ColorSettings/BackgroundColor
350
A7
  3
ColorSettings/ColorMode
350
A8
  3
Grid/DisplayGrid00
350
A9
  3
Grid/DisplayGrid01
350
AA
  3
Grid/DisplayGrid02
350
AB
  3
Grid/DisplayGrid03
350
AC
  3
Grid/GridSpacingX00
350
AD
  3
Grid/GridSpacingX01
350
AE
  3
Grid/GridSpacingX02
350
AF
  3
Grid/GridSpacingX03
350
B0
  3
Grid/GridSpacingY00
350
B1
  3
Grid/GridSpacingY01
350
B2
  3
Grid/GridSpacingY02
350
B3
  3
Grid/GridSpacingY03
350
B4
  3
Grid/IsometricGrid00
350
B5
  3
Grid/IsometricGrid01
350
B6
  3
Grid/IsometricGrid02
350
B7
  3
Grid/IsometricGrid03
350
B8
  3
Grid/IsometricProjection00
350
B9
  3
Grid/IsometricProjection01
350
BA
  3
Grid/IsometricProjection02
350
BB
  3
Grid/IsometricProjection03
350
BC
  3
Grid/MetaGridSpacingX00
350
BD
  3
Grid/MetaGridSpacingX01
350
BE
  3
Grid/MetaGridSpacingX02
350
BF
  3
Grid/MetaGridSpacingX03
350
C0
  3
Grid/MetaGridSpacingY00
350
C1
  3
Grid/MetaGridSpacingY01
350
C2
  3
Grid/MetaGridSpacingY02
350
C3
  3
Grid/MetaGridSpacingY03
350
C4
  3
MultiPageSettings/Columns
350
C5
  3
MultiPageSettings/GlueMarginsBottom
350
C6
  3
MultiPageSettings/GlueMarginsLeft
350
C7
  3
MultiPageSettings/GlueMarginsRight
350
C8
  3
MultiPageSettings/GlueMarginsTop
350
C9
  3
MultiPageSettings/PrintCropMarks
350
CA
  3
MultiPageSettings/Rows
350
CB
  3
PageSettings/OffsetX
350
CC
  3
PageSettings/OffsetY
350
CD
  3
PageSettings/PageOrientation
350
CE
  3
PageSettings/PaperHeight
350
CF
  3
PageSettings/PaperWidth
350
D0
  3
PageSettings/Scale
350
D1
  3
PageSettings/ShowPaperBorders
350
D2
  3
QCADVersion
350
D3
  3
UnitSettings/PaperUnit
350
D4
  3
ViewportCenter
350
D5
  3
ViewportHeight
350
D6
  3
ViewportWidth
350
D7
  0
XRECORD
  5
A7
330
A4
100
AcDbXrecord
280
1
1000
White
  0
XRECORD
  5
A8
330
A4
100
AcDbXrecord
280
1
1000
FullColor
  0
XRECORD
  5
A9
330
A4
100
AcDbXrecord
280
1
290
1
  0
XRECORD
  5
AA
330
A4
100
AcDbXrecord
280
1
290
1
  0
XRECORD
  5
AB
330
A4
100
AcDbXrecord
280
1
290
1
  0
XRECORD
  5
AC
330
A4
100
AcDbXrecord
280
1
290
1
  0
XRECORD
  5
AD
330
A4
100
AcDbXrecord
280
1
1000
auto
  0
XRECORD
  5
AE
330
A4
100
AcDbXrecord
280
1
1000
auto
  0
XRECORD
  5
AF
330
A4
100
AcDbXrecord
280
1
1000
auto
  0
XRECORD
  5
B0
330
A4
100
AcDbXrecord
280
1
1000
auto
  0
XRECORD
  5
B1
330
A4
100
AcDbXrecord
280
1
1000
auto
  0
XRECORD
  5
B2
330
A4
100
AcDbXrecord
280
1
1000
auto
  0
XRECORD
  5
B3
330
A4
100
AcDbXrecord
280
1
1000
auto
  0
XRECORD
  5
B4
330
A4
100
AcDbXrecord
280
1
1000
auto
  0
XRECORD
  5
B5
330
A4
100
AcDbXrecord
280
1
290
0
  0
XRECORD
  5
B6
330
A4
100
AcDbXrecord
280
1
290
0
  0
XRECORD
  5
B7
330
A4
100
AcDbXrecord
280
1
290
0
  0
XRECORD
  5
B8
330
A4
100
AcDbXrecord
280
1
290
0
  0
XRECORD
  5
B9
330
A4
100
AcDbXrecord
280
1
 90
65537
  0
XRECORD
  5
BA
330
A4
100
AcDbXrecord
280
1
 90
65537
  0
XRECORD
  5
BB
330
A4
100
AcDbXrecord
280
1
 90
65537
  0
XRECORD
  5
BC
330
A4
100
AcDbXrecord
280
1
 90
65537
  0
XRECORD
  5
BD
330
A4
100
AcDbXrecord
280
1
1000
auto
  0
XRECORD
  5
BE
330
A4
100
AcDbXrecord
280
1
1000
auto
  0
XRECORD
  5
BF
330
A4
100
AcDbXrecord
280
1
1000
auto
  0
XRECORD
  5
C0
330
A4
100
AcDbXrecord
280
1
1000
auto
  0
XRECORD
  5
C1
330
A4
100
AcDbXrecord
280
1
1000
auto
  0
XRECORD
  5
C2
330
A4
100
AcDbXrecord
280
1
1000
auto
  0
XRECORD
  5
C3
330
A4
100
AcDbXrecord
280
1
1000
auto
  0
XRECORD
  5
C4
330
A4
100
AcDbXrecord
280
1
1000
auto
  0
XRECORD
  5
C5
330
A4
100
AcDbXrecord
280
1
 90
1
  0
XRECORD
  5
C6
330
A4
100
AcDbXrecord
280
1
 40
10.0
  0
XRECORD
  5
C7
330
A4
100
AcDbXrecord
280
1
 40
10.0
  0
XRECORD
  5
C8
330
A4
100
AcDbXrecord
280
1
 40
10.0
  0
XRECORD
  5
C9
330
A4
100
AcDbXrecord
280
1
 40
10.0
  0
XRECORD
  5
CA
330
A4
100
AcDbXrecord
280
1
290
0
  0
XRECORD
  5
CB
330
A4
100
AcDbXrecord
280
1
 90
1
  0
XRECORD
  5
CC
330
A4
100
AcDbXrecord
280
1
 40
0.0
  0
XRECORD
  5
CD
330
A4
100
AcDbXrecord
280
1
 40
0.0
  0
XRECORD
  5
CE
330
A4
100
AcDbXrecord
280
1
1000
Portrait
  0
XRECORD
  5
CF
330
A4
100
AcDbXrecord
280
1
 40
297.0
  0
XRECORD
  5
D0
330
A4
100
AcDbXrecord
280
1
 40
210.0
  0
XRECORD
  5
D1
330
A4
100
AcDbXrecord
280
1
1000
1:1
  0
XRECORD
  5
D2
330
A4
100
AcDbXrecord
280
1
290
1
  0
XRECORD
  5
D3
330
A4
100
AcDbXrecord
280
1
1000
3.23.0.3
  0
XRECORD
  5
D4
330
A4
100
AcDbXrecord
280
1
 90
4
  0
XRECORD
  5
D6
330
A4
100
AcDbXrecord
280
1
 40
192.1739765662995865
  0
XRECORD
  5
D7
330
A4
100
AcDbXrecord
280
1
 40
414.2539898316774725
  0
ENDSEC
  0
EOF
